<mxfile host="app.diagrams.net" modified="2023-06-10T04:08:43.501Z" agent="Mozilla/5.0 (Macintosh; Intel Mac OS X 10_15_7) AppleWebKit/537.36 (KHTML, like Gecko) Chrome/113.0.0.0 Safari/537.36" etag="_CvrYC50IwYFMqQLwGZ4" version="21.3.7" type="github" pages="15">
  <diagram name="DFD Level 0" id="u61Qbh-0fJe4nxN6BOSN">
    <mxGraphModel dx="954" dy="484" grid="1" gridSize="10" guides="1" tooltips="1" connect="1" arrows="1" fold="1" page="1" pageScale="1" pageWidth="1169" pageHeight="827" math="0" shadow="0">
      <root>
        <mxCell id="0" />
        <mxCell id="1" parent="0" />
        <mxCell id="CZ4R0bNDatEh2KJGHGkp-6" style="edgeStyle=orthogonalEdgeStyle;rounded=0;orthogonalLoop=1;jettySize=auto;html=1;entryX=0.5;entryY=1;entryDx=0;entryDy=0;" edge="1" parent="1" source="CZ4R0bNDatEh2KJGHGkp-1" target="CZ4R0bNDatEh2KJGHGkp-2">
          <mxGeometry relative="1" as="geometry" />
        </mxCell>
        <mxCell id="CZ4R0bNDatEh2KJGHGkp-11" style="edgeStyle=orthogonalEdgeStyle;rounded=0;orthogonalLoop=1;jettySize=auto;html=1;exitX=0;exitY=0.5;exitDx=0;exitDy=0;" edge="1" parent="1" source="CZ4R0bNDatEh2KJGHGkp-1" target="CZ4R0bNDatEh2KJGHGkp-4">
          <mxGeometry relative="1" as="geometry" />
        </mxCell>
        <mxCell id="CZ4R0bNDatEh2KJGHGkp-15" style="edgeStyle=orthogonalEdgeStyle;rounded=0;orthogonalLoop=1;jettySize=auto;html=1;entryX=0.5;entryY=1;entryDx=0;entryDy=0;" edge="1" parent="1" source="CZ4R0bNDatEh2KJGHGkp-1" target="CZ4R0bNDatEh2KJGHGkp-3">
          <mxGeometry relative="1" as="geometry" />
        </mxCell>
        <mxCell id="CZ4R0bNDatEh2KJGHGkp-1" value="Sistem Informasi Akademik" style="ellipse;whiteSpace=wrap;html=1;aspect=fixed;" vertex="1" parent="1">
          <mxGeometry x="460" y="240" width="80" height="80" as="geometry" />
        </mxCell>
        <mxCell id="CZ4R0bNDatEh2KJGHGkp-5" style="edgeStyle=orthogonalEdgeStyle;rounded=0;orthogonalLoop=1;jettySize=auto;html=1;" edge="1" parent="1" source="CZ4R0bNDatEh2KJGHGkp-2" target="CZ4R0bNDatEh2KJGHGkp-1">
          <mxGeometry relative="1" as="geometry" />
        </mxCell>
        <mxCell id="CZ4R0bNDatEh2KJGHGkp-2" value="Siswa" style="rounded=0;whiteSpace=wrap;html=1;" vertex="1" parent="1">
          <mxGeometry x="640" y="120" width="120" height="40" as="geometry" />
        </mxCell>
        <mxCell id="CZ4R0bNDatEh2KJGHGkp-9" style="edgeStyle=orthogonalEdgeStyle;rounded=0;orthogonalLoop=1;jettySize=auto;html=1;entryX=0.5;entryY=0;entryDx=0;entryDy=0;" edge="1" parent="1" source="CZ4R0bNDatEh2KJGHGkp-3" target="CZ4R0bNDatEh2KJGHGkp-1">
          <mxGeometry relative="1" as="geometry" />
        </mxCell>
        <mxCell id="CZ4R0bNDatEh2KJGHGkp-3" value="Guru" style="rounded=0;whiteSpace=wrap;html=1;" vertex="1" parent="1">
          <mxGeometry x="200" y="120" width="120" height="40" as="geometry" />
        </mxCell>
        <mxCell id="CZ4R0bNDatEh2KJGHGkp-13" style="edgeStyle=orthogonalEdgeStyle;rounded=0;orthogonalLoop=1;jettySize=auto;html=1;entryX=0.5;entryY=1;entryDx=0;entryDy=0;" edge="1" parent="1" source="CZ4R0bNDatEh2KJGHGkp-4" target="CZ4R0bNDatEh2KJGHGkp-1">
          <mxGeometry relative="1" as="geometry" />
        </mxCell>
        <mxCell id="CZ4R0bNDatEh2KJGHGkp-4" value="Admin" style="rounded=0;whiteSpace=wrap;html=1;" vertex="1" parent="1">
          <mxGeometry x="200" y="400" width="120" height="40" as="geometry" />
        </mxCell>
        <mxCell id="CZ4R0bNDatEh2KJGHGkp-7" value="Data Login, Data Absensi, Update Profile" style="text;html=1;strokeColor=none;fillColor=none;align=center;verticalAlign=middle;whiteSpace=wrap;rounded=0;" vertex="1" parent="1">
          <mxGeometry x="520" y="100" width="96" height="30" as="geometry" />
        </mxCell>
        <mxCell id="CZ4R0bNDatEh2KJGHGkp-8" value="Data Login, Data Absensi, Data Belajar, Data Profile" style="text;html=1;strokeColor=none;fillColor=none;align=center;verticalAlign=middle;whiteSpace=wrap;rounded=0;" vertex="1" parent="1">
          <mxGeometry x="710" y="220" width="96" height="30" as="geometry" />
        </mxCell>
        <mxCell id="CZ4R0bNDatEh2KJGHGkp-10" value="Data Login, Data Absensi, Update Profile, Data Belajar" style="text;html=1;strokeColor=none;fillColor=none;align=center;verticalAlign=middle;whiteSpace=wrap;rounded=0;" vertex="1" parent="1">
          <mxGeometry x="354" y="90" width="106" height="30" as="geometry" />
        </mxCell>
        <mxCell id="CZ4R0bNDatEh2KJGHGkp-12" value="Data Login, Data Siswa, Data Pegawai, Data Kelas, Data Mata Pelajaran, Data Mengajar, Data Belajar" style="text;html=1;strokeColor=none;fillColor=none;align=center;verticalAlign=middle;whiteSpace=wrap;rounded=0;" vertex="1" parent="1">
          <mxGeometry x="350" y="440" width="150" height="30" as="geometry" />
        </mxCell>
        <mxCell id="CZ4R0bNDatEh2KJGHGkp-14" value="Data Siswa, Data Pegawai, Data Kelas, Data Mata Pelajaran, Data Mengajar, Data Belajar" style="text;html=1;strokeColor=none;fillColor=none;align=center;verticalAlign=middle;whiteSpace=wrap;rounded=0;" vertex="1" parent="1">
          <mxGeometry x="100" y="310" width="150" height="70" as="geometry" />
        </mxCell>
        <mxCell id="CZ4R0bNDatEh2KJGHGkp-16" value="Data Siswa, Data Profile, Data Mata Pelajaran, Data Mengajar, Data Belajar" style="text;html=1;strokeColor=none;fillColor=none;align=center;verticalAlign=middle;whiteSpace=wrap;rounded=0;" vertex="1" parent="1">
          <mxGeometry x="100" y="190" width="150" height="70" as="geometry" />
        </mxCell>
      </root>
    </mxGraphModel>
  </diagram>
  <diagram id="XrWNm6vqrYSLM8ccCRSu" name="DFD Level 1">
    <mxGraphModel dx="1004" dy="509" grid="1" gridSize="10" guides="1" tooltips="1" connect="1" arrows="1" fold="1" page="1" pageScale="1" pageWidth="827" pageHeight="1169" math="0" shadow="0">
      <root>
        <mxCell id="0" />
        <mxCell id="1" parent="0" />
        <mxCell id="-mSjsd6_kTnmYOXzpJNl-29" style="edgeStyle=orthogonalEdgeStyle;rounded=0;orthogonalLoop=1;jettySize=auto;html=1;jumpStyle=arc;" edge="1" parent="1" source="-mSjsd6_kTnmYOXzpJNl-1">
          <mxGeometry relative="1" as="geometry">
            <mxPoint x="440" y="100" as="targetPoint" />
          </mxGeometry>
        </mxCell>
        <mxCell id="-mSjsd6_kTnmYOXzpJNl-1" value="&lt;font style=&quot;font-size: 11px;&quot;&gt;1.0&lt;br&gt;Login Pegawai&lt;br&gt;&lt;/font&gt;" style="ellipse;whiteSpace=wrap;html=1;aspect=fixed;" vertex="1" parent="1">
          <mxGeometry x="270" y="65" width="70" height="70" as="geometry" />
        </mxCell>
        <mxCell id="-mSjsd6_kTnmYOXzpJNl-31" style="edgeStyle=orthogonalEdgeStyle;shape=connector;rounded=0;jumpStyle=arc;orthogonalLoop=1;jettySize=auto;html=1;labelBackgroundColor=default;strokeColor=default;fontFamily=Helvetica;fontSize=11;fontColor=default;endArrow=classic;startArrow=classic;startFill=1;" edge="1" parent="1" source="-mSjsd6_kTnmYOXzpJNl-2">
          <mxGeometry relative="1" as="geometry">
            <mxPoint x="460" y="120" as="targetPoint" />
          </mxGeometry>
        </mxCell>
        <mxCell id="-mSjsd6_kTnmYOXzpJNl-2" value="&lt;font style=&quot;font-size: 11px;&quot;&gt;2.0&lt;br&gt;Mengelolah Data Pegawai&lt;br&gt;&lt;/font&gt;" style="ellipse;whiteSpace=wrap;html=1;aspect=fixed;" vertex="1" parent="1">
          <mxGeometry x="270" y="225" width="70" height="70" as="geometry" />
        </mxCell>
        <mxCell id="-mSjsd6_kTnmYOXzpJNl-33" style="edgeStyle=orthogonalEdgeStyle;shape=connector;rounded=0;jumpStyle=arc;orthogonalLoop=1;jettySize=auto;html=1;labelBackgroundColor=default;strokeColor=default;fontFamily=Helvetica;fontSize=11;fontColor=default;endArrow=classic;startArrow=classic;startFill=1;" edge="1" parent="1" source="-mSjsd6_kTnmYOXzpJNl-3">
          <mxGeometry relative="1" as="geometry">
            <mxPoint x="440" y="420" as="targetPoint" />
            <Array as="points">
              <mxPoint x="410" y="420" />
              <mxPoint x="410" y="420" />
            </Array>
          </mxGeometry>
        </mxCell>
        <mxCell id="-mSjsd6_kTnmYOXzpJNl-3" value="&lt;font style=&quot;font-size: 11px;&quot;&gt;3.0&lt;br&gt;Mengelolah Data Kelas&lt;br&gt;&lt;/font&gt;" style="ellipse;whiteSpace=wrap;html=1;aspect=fixed;" vertex="1" parent="1">
          <mxGeometry x="270" y="385" width="70" height="70" as="geometry" />
        </mxCell>
        <mxCell id="-mSjsd6_kTnmYOXzpJNl-35" style="edgeStyle=orthogonalEdgeStyle;shape=connector;rounded=0;jumpStyle=arc;orthogonalLoop=1;jettySize=auto;html=1;labelBackgroundColor=default;strokeColor=default;fontFamily=Helvetica;fontSize=11;fontColor=default;endArrow=classic;startArrow=classic;startFill=1;" edge="1" parent="1" source="-mSjsd6_kTnmYOXzpJNl-4">
          <mxGeometry relative="1" as="geometry">
            <mxPoint x="440" y="580" as="targetPoint" />
          </mxGeometry>
        </mxCell>
        <mxCell id="-mSjsd6_kTnmYOXzpJNl-4" value="&lt;font style=&quot;font-size: 11px;&quot;&gt;4.0&lt;br&gt;Mengelolah Data Mata Pelajaran&lt;br&gt;&lt;/font&gt;" style="ellipse;whiteSpace=wrap;html=1;aspect=fixed;" vertex="1" parent="1">
          <mxGeometry x="270" y="545" width="70" height="70" as="geometry" />
        </mxCell>
        <mxCell id="-mSjsd6_kTnmYOXzpJNl-37" style="edgeStyle=orthogonalEdgeStyle;shape=connector;rounded=0;jumpStyle=arc;orthogonalLoop=1;jettySize=auto;html=1;labelBackgroundColor=default;strokeColor=default;fontFamily=Helvetica;fontSize=11;fontColor=default;endArrow=classic;startArrow=classic;startFill=1;" edge="1" parent="1" source="-mSjsd6_kTnmYOXzpJNl-5">
          <mxGeometry relative="1" as="geometry">
            <mxPoint x="440" y="740" as="targetPoint" />
          </mxGeometry>
        </mxCell>
        <mxCell id="-mSjsd6_kTnmYOXzpJNl-5" value="&lt;font style=&quot;font-size: 11px;&quot;&gt;5.0&lt;br&gt;Mengelolah Data Mengajar&lt;br&gt;&lt;/font&gt;" style="ellipse;whiteSpace=wrap;html=1;aspect=fixed;" vertex="1" parent="1">
          <mxGeometry x="270" y="705" width="70" height="70" as="geometry" />
        </mxCell>
        <mxCell id="-mSjsd6_kTnmYOXzpJNl-39" style="edgeStyle=orthogonalEdgeStyle;shape=connector;rounded=0;jumpStyle=arc;orthogonalLoop=1;jettySize=auto;html=1;labelBackgroundColor=default;strokeColor=default;fontFamily=Helvetica;fontSize=11;fontColor=default;endArrow=classic;startArrow=classic;startFill=1;" edge="1" parent="1" source="-mSjsd6_kTnmYOXzpJNl-6">
          <mxGeometry relative="1" as="geometry">
            <mxPoint x="440" y="900.0000000000002" as="targetPoint" />
          </mxGeometry>
        </mxCell>
        <mxCell id="-mSjsd6_kTnmYOXzpJNl-6" value="&lt;font style=&quot;font-size: 11px;&quot;&gt;6.0&lt;br&gt;Mengelolah Data Siswa&lt;br&gt;&lt;/font&gt;" style="ellipse;whiteSpace=wrap;html=1;aspect=fixed;" vertex="1" parent="1">
          <mxGeometry x="270" y="865" width="70" height="70" as="geometry" />
        </mxCell>
        <mxCell id="-mSjsd6_kTnmYOXzpJNl-41" style="edgeStyle=orthogonalEdgeStyle;shape=connector;rounded=0;jumpStyle=arc;orthogonalLoop=1;jettySize=auto;html=1;labelBackgroundColor=default;strokeColor=default;fontFamily=Helvetica;fontSize=11;fontColor=default;endArrow=classic;startArrow=classic;startFill=1;" edge="1" parent="1" source="-mSjsd6_kTnmYOXzpJNl-7">
          <mxGeometry relative="1" as="geometry">
            <mxPoint x="440" y="1060" as="targetPoint" />
          </mxGeometry>
        </mxCell>
        <mxCell id="-mSjsd6_kTnmYOXzpJNl-7" value="&lt;font style=&quot;font-size: 11px;&quot;&gt;7.0&lt;br&gt;Mengelolah Data Belajar&lt;br&gt;&lt;/font&gt;" style="ellipse;whiteSpace=wrap;html=1;aspect=fixed;" vertex="1" parent="1">
          <mxGeometry x="270" y="1025" width="70" height="70" as="geometry" />
        </mxCell>
        <mxCell id="-mSjsd6_kTnmYOXzpJNl-9" value="" style="endArrow=none;html=1;rounded=0;" edge="1" parent="1">
          <mxGeometry width="50" height="50" relative="1" as="geometry">
            <mxPoint x="440" y="120" as="sourcePoint" />
            <mxPoint x="560" y="120" as="targetPoint" />
          </mxGeometry>
        </mxCell>
        <mxCell id="-mSjsd6_kTnmYOXzpJNl-10" value="" style="endArrow=none;html=1;rounded=0;" edge="1" parent="1">
          <mxGeometry width="50" height="50" relative="1" as="geometry">
            <mxPoint x="440" y="80" as="sourcePoint" />
            <mxPoint x="560" y="80" as="targetPoint" />
          </mxGeometry>
        </mxCell>
        <mxCell id="-mSjsd6_kTnmYOXzpJNl-44" style="edgeStyle=orthogonalEdgeStyle;shape=connector;rounded=0;jumpStyle=arc;orthogonalLoop=1;jettySize=auto;html=1;labelBackgroundColor=default;strokeColor=default;fontFamily=Helvetica;fontSize=11;fontColor=default;endArrow=classic;entryX=0;entryY=0;entryDx=0;entryDy=0;" edge="1" parent="1" source="-mSjsd6_kTnmYOXzpJNl-11" target="-mSjsd6_kTnmYOXzpJNl-5">
          <mxGeometry relative="1" as="geometry">
            <mxPoint x="260" y="710" as="targetPoint" />
            <Array as="points">
              <mxPoint x="500" y="340" />
              <mxPoint x="240" y="340" />
              <mxPoint x="240" y="715" />
            </Array>
          </mxGeometry>
        </mxCell>
        <mxCell id="-mSjsd6_kTnmYOXzpJNl-70" style="edgeStyle=orthogonalEdgeStyle;shape=connector;rounded=0;jumpStyle=arc;orthogonalLoop=1;jettySize=auto;html=1;entryX=0;entryY=0.5;entryDx=0;entryDy=0;labelBackgroundColor=default;strokeColor=default;fontFamily=Helvetica;fontSize=11;fontColor=default;endArrow=classic;" edge="1" parent="1" source="-mSjsd6_kTnmYOXzpJNl-11" target="-mSjsd6_kTnmYOXzpJNl-59">
          <mxGeometry relative="1" as="geometry" />
        </mxCell>
        <mxCell id="-mSjsd6_kTnmYOXzpJNl-11" value="pegawai" style="text;html=1;strokeColor=none;fillColor=none;align=center;verticalAlign=middle;whiteSpace=wrap;rounded=0;" vertex="1" parent="1">
          <mxGeometry x="470" y="85" width="60" height="30" as="geometry" />
        </mxCell>
        <mxCell id="-mSjsd6_kTnmYOXzpJNl-12" value="" style="endArrow=none;html=1;rounded=0;" edge="1" parent="1">
          <mxGeometry width="50" height="50" relative="1" as="geometry">
            <mxPoint x="440" y="440" as="sourcePoint" />
            <mxPoint x="560" y="440" as="targetPoint" />
          </mxGeometry>
        </mxCell>
        <mxCell id="-mSjsd6_kTnmYOXzpJNl-13" value="" style="endArrow=none;html=1;rounded=0;" edge="1" parent="1">
          <mxGeometry width="50" height="50" relative="1" as="geometry">
            <mxPoint x="440" y="400" as="sourcePoint" />
            <mxPoint x="560" y="400" as="targetPoint" />
          </mxGeometry>
        </mxCell>
        <mxCell id="-mSjsd6_kTnmYOXzpJNl-42" style="edgeStyle=orthogonalEdgeStyle;shape=connector;rounded=0;jumpStyle=arc;orthogonalLoop=1;jettySize=auto;html=1;labelBackgroundColor=default;strokeColor=default;fontFamily=Helvetica;fontSize=11;fontColor=default;endArrow=classic;" edge="1" parent="1" source="-mSjsd6_kTnmYOXzpJNl-14" target="-mSjsd6_kTnmYOXzpJNl-4">
          <mxGeometry relative="1" as="geometry">
            <Array as="points">
              <mxPoint x="500" y="500" />
              <mxPoint x="305" y="500" />
            </Array>
          </mxGeometry>
        </mxCell>
        <mxCell id="-mSjsd6_kTnmYOXzpJNl-14" value="kelas" style="text;html=1;strokeColor=none;fillColor=none;align=center;verticalAlign=middle;whiteSpace=wrap;rounded=0;" vertex="1" parent="1">
          <mxGeometry x="470" y="405" width="60" height="30" as="geometry" />
        </mxCell>
        <mxCell id="-mSjsd6_kTnmYOXzpJNl-15" value="" style="endArrow=none;html=1;rounded=0;" edge="1" parent="1">
          <mxGeometry width="50" height="50" relative="1" as="geometry">
            <mxPoint x="440" y="599.58" as="sourcePoint" />
            <mxPoint x="560" y="599.58" as="targetPoint" />
          </mxGeometry>
        </mxCell>
        <mxCell id="-mSjsd6_kTnmYOXzpJNl-16" value="" style="endArrow=none;html=1;rounded=0;" edge="1" parent="1">
          <mxGeometry width="50" height="50" relative="1" as="geometry">
            <mxPoint x="440" y="559.58" as="sourcePoint" />
            <mxPoint x="560" y="559.58" as="targetPoint" />
          </mxGeometry>
        </mxCell>
        <mxCell id="-mSjsd6_kTnmYOXzpJNl-43" style="edgeStyle=orthogonalEdgeStyle;shape=connector;rounded=0;jumpStyle=arc;orthogonalLoop=1;jettySize=auto;html=1;entryX=0.5;entryY=0;entryDx=0;entryDy=0;labelBackgroundColor=default;strokeColor=default;fontFamily=Helvetica;fontSize=11;fontColor=default;endArrow=classic;" edge="1" parent="1" source="-mSjsd6_kTnmYOXzpJNl-17" target="-mSjsd6_kTnmYOXzpJNl-5">
          <mxGeometry relative="1" as="geometry">
            <Array as="points">
              <mxPoint x="500" y="630" />
              <mxPoint x="305" y="630" />
            </Array>
          </mxGeometry>
        </mxCell>
        <mxCell id="-mSjsd6_kTnmYOXzpJNl-17" value="matapelajaran" style="text;html=1;strokeColor=none;fillColor=none;align=center;verticalAlign=middle;whiteSpace=wrap;rounded=0;" vertex="1" parent="1">
          <mxGeometry x="470" y="564.58" width="60" height="30" as="geometry" />
        </mxCell>
        <mxCell id="-mSjsd6_kTnmYOXzpJNl-18" value="" style="endArrow=none;html=1;rounded=0;" edge="1" parent="1">
          <mxGeometry width="50" height="50" relative="1" as="geometry">
            <mxPoint x="440" y="760" as="sourcePoint" />
            <mxPoint x="560" y="760" as="targetPoint" />
          </mxGeometry>
        </mxCell>
        <mxCell id="-mSjsd6_kTnmYOXzpJNl-19" value="" style="endArrow=none;html=1;rounded=0;" edge="1" parent="1">
          <mxGeometry width="50" height="50" relative="1" as="geometry">
            <mxPoint x="440" y="720" as="sourcePoint" />
            <mxPoint x="560" y="720" as="targetPoint" />
          </mxGeometry>
        </mxCell>
        <mxCell id="-mSjsd6_kTnmYOXzpJNl-45" style="edgeStyle=orthogonalEdgeStyle;shape=connector;rounded=0;jumpStyle=arc;orthogonalLoop=1;jettySize=auto;html=1;entryX=0;entryY=0;entryDx=0;entryDy=0;labelBackgroundColor=default;strokeColor=default;fontFamily=Helvetica;fontSize=11;fontColor=default;endArrow=classic;" edge="1" parent="1" source="-mSjsd6_kTnmYOXzpJNl-20" target="-mSjsd6_kTnmYOXzpJNl-7">
          <mxGeometry relative="1" as="geometry">
            <Array as="points">
              <mxPoint x="500" y="820" />
              <mxPoint x="200" y="820" />
              <mxPoint x="200" y="1035" />
            </Array>
          </mxGeometry>
        </mxCell>
        <mxCell id="-mSjsd6_kTnmYOXzpJNl-57" style="edgeStyle=orthogonalEdgeStyle;shape=connector;rounded=0;jumpStyle=arc;orthogonalLoop=1;jettySize=auto;html=1;labelBackgroundColor=default;strokeColor=default;fontFamily=Helvetica;fontSize=11;fontColor=default;endArrow=classic;" edge="1" parent="1" source="-mSjsd6_kTnmYOXzpJNl-20" target="-mSjsd6_kTnmYOXzpJNl-52">
          <mxGeometry relative="1" as="geometry" />
        </mxCell>
        <mxCell id="-mSjsd6_kTnmYOXzpJNl-20" value="mengajar" style="text;html=1;strokeColor=none;fillColor=none;align=center;verticalAlign=middle;whiteSpace=wrap;rounded=0;" vertex="1" parent="1">
          <mxGeometry x="470" y="725" width="60" height="30" as="geometry" />
        </mxCell>
        <mxCell id="-mSjsd6_kTnmYOXzpJNl-21" value="" style="endArrow=none;html=1;rounded=0;" edge="1" parent="1">
          <mxGeometry width="50" height="50" relative="1" as="geometry">
            <mxPoint x="440" y="920" as="sourcePoint" />
            <mxPoint x="560" y="920" as="targetPoint" />
          </mxGeometry>
        </mxCell>
        <mxCell id="-mSjsd6_kTnmYOXzpJNl-22" value="" style="endArrow=none;html=1;rounded=0;" edge="1" parent="1">
          <mxGeometry width="50" height="50" relative="1" as="geometry">
            <mxPoint x="440" y="880" as="sourcePoint" />
            <mxPoint x="560" y="880" as="targetPoint" />
          </mxGeometry>
        </mxCell>
        <mxCell id="-mSjsd6_kTnmYOXzpJNl-46" style="edgeStyle=orthogonalEdgeStyle;shape=connector;rounded=0;jumpStyle=arc;orthogonalLoop=1;jettySize=auto;html=1;labelBackgroundColor=default;strokeColor=default;fontFamily=Helvetica;fontSize=11;fontColor=default;endArrow=classic;" edge="1" parent="1" source="-mSjsd6_kTnmYOXzpJNl-23" target="-mSjsd6_kTnmYOXzpJNl-7">
          <mxGeometry relative="1" as="geometry">
            <Array as="points">
              <mxPoint x="500" y="980" />
              <mxPoint x="305" y="980" />
            </Array>
          </mxGeometry>
        </mxCell>
        <mxCell id="-mSjsd6_kTnmYOXzpJNl-71" style="edgeStyle=orthogonalEdgeStyle;shape=connector;rounded=0;jumpStyle=arc;orthogonalLoop=1;jettySize=auto;html=1;exitX=1;exitY=0;exitDx=0;exitDy=0;labelBackgroundColor=default;strokeColor=default;fontFamily=Helvetica;fontSize=11;fontColor=default;endArrow=classic;entryX=1;entryY=0.5;entryDx=0;entryDy=0;" edge="1" parent="1" source="-mSjsd6_kTnmYOXzpJNl-23" target="-mSjsd6_kTnmYOXzpJNl-59">
          <mxGeometry relative="1" as="geometry">
            <mxPoint x="730" y="150" as="targetPoint" />
            <Array as="points">
              <mxPoint x="530" y="860" />
              <mxPoint x="800" y="860" />
              <mxPoint x="800" y="100" />
            </Array>
          </mxGeometry>
        </mxCell>
        <mxCell id="VimBytMg7rEc7Gno3n_m-1" style="edgeStyle=orthogonalEdgeStyle;shape=connector;rounded=0;jumpStyle=arc;orthogonalLoop=1;jettySize=auto;html=1;exitX=0.5;exitY=0;exitDx=0;exitDy=0;entryX=0;entryY=1;entryDx=0;entryDy=0;labelBackgroundColor=default;strokeColor=default;fontFamily=Helvetica;fontSize=11;fontColor=default;endArrow=classic;" edge="1" parent="1" source="-mSjsd6_kTnmYOXzpJNl-23" target="-mSjsd6_kTnmYOXzpJNl-52">
          <mxGeometry relative="1" as="geometry">
            <Array as="points">
              <mxPoint x="510" y="885" />
              <mxPoint x="510" y="800" />
              <mxPoint x="676" y="800" />
            </Array>
          </mxGeometry>
        </mxCell>
        <mxCell id="-mSjsd6_kTnmYOXzpJNl-23" value="siswa" style="text;html=1;strokeColor=none;fillColor=none;align=center;verticalAlign=middle;whiteSpace=wrap;rounded=0;" vertex="1" parent="1">
          <mxGeometry x="470" y="885" width="60" height="30" as="geometry" />
        </mxCell>
        <mxCell id="-mSjsd6_kTnmYOXzpJNl-24" value="" style="endArrow=none;html=1;rounded=0;" edge="1" parent="1">
          <mxGeometry width="50" height="50" relative="1" as="geometry">
            <mxPoint x="440" y="1079.58" as="sourcePoint" />
            <mxPoint x="560" y="1079.58" as="targetPoint" />
          </mxGeometry>
        </mxCell>
        <mxCell id="-mSjsd6_kTnmYOXzpJNl-25" value="" style="endArrow=none;html=1;rounded=0;" edge="1" parent="1">
          <mxGeometry width="50" height="50" relative="1" as="geometry">
            <mxPoint x="440" y="1039.58" as="sourcePoint" />
            <mxPoint x="560" y="1039.58" as="targetPoint" />
          </mxGeometry>
        </mxCell>
        <mxCell id="-mSjsd6_kTnmYOXzpJNl-75" style="edgeStyle=orthogonalEdgeStyle;shape=connector;rounded=0;jumpStyle=arc;orthogonalLoop=1;jettySize=auto;html=1;entryX=1;entryY=0;entryDx=0;entryDy=0;labelBackgroundColor=default;strokeColor=default;fontFamily=Helvetica;fontSize=11;fontColor=default;endArrow=classic;" edge="1" parent="1" source="-mSjsd6_kTnmYOXzpJNl-26" target="-mSjsd6_kTnmYOXzpJNl-59">
          <mxGeometry relative="1" as="geometry">
            <Array as="points">
              <mxPoint x="500" y="1140" />
              <mxPoint x="810" y="1140" />
              <mxPoint x="810" y="75" />
            </Array>
          </mxGeometry>
        </mxCell>
        <mxCell id="-mSjsd6_kTnmYOXzpJNl-26" value="belajar" style="text;html=1;strokeColor=none;fillColor=none;align=center;verticalAlign=middle;whiteSpace=wrap;rounded=0;" vertex="1" parent="1">
          <mxGeometry x="470" y="1044.58" width="60" height="30" as="geometry" />
        </mxCell>
        <mxCell id="-mSjsd6_kTnmYOXzpJNl-28" value="" style="edgeStyle=orthogonalEdgeStyle;rounded=0;orthogonalLoop=1;jettySize=auto;html=1;" edge="1" parent="1" source="-mSjsd6_kTnmYOXzpJNl-27" target="-mSjsd6_kTnmYOXzpJNl-1">
          <mxGeometry relative="1" as="geometry" />
        </mxCell>
        <mxCell id="-mSjsd6_kTnmYOXzpJNl-30" style="edgeStyle=orthogonalEdgeStyle;shape=connector;rounded=0;jumpStyle=arc;orthogonalLoop=1;jettySize=auto;html=1;exitX=1;exitY=1;exitDx=0;exitDy=0;entryX=0;entryY=0.5;entryDx=0;entryDy=0;labelBackgroundColor=default;strokeColor=default;fontFamily=Helvetica;fontSize=11;fontColor=default;endArrow=classic;startArrow=classic;startFill=1;" edge="1" parent="1" source="-mSjsd6_kTnmYOXzpJNl-27" target="-mSjsd6_kTnmYOXzpJNl-2">
          <mxGeometry relative="1" as="geometry" />
        </mxCell>
        <mxCell id="-mSjsd6_kTnmYOXzpJNl-32" style="edgeStyle=orthogonalEdgeStyle;shape=connector;rounded=0;jumpStyle=arc;orthogonalLoop=1;jettySize=auto;html=1;exitX=0.75;exitY=1;exitDx=0;exitDy=0;labelBackgroundColor=default;strokeColor=default;fontFamily=Helvetica;fontSize=11;fontColor=default;endArrow=classic;entryX=0;entryY=0.5;entryDx=0;entryDy=0;startArrow=classic;startFill=1;" edge="1" parent="1" source="-mSjsd6_kTnmYOXzpJNl-27" target="-mSjsd6_kTnmYOXzpJNl-3">
          <mxGeometry relative="1" as="geometry">
            <mxPoint x="230" y="380" as="targetPoint" />
          </mxGeometry>
        </mxCell>
        <mxCell id="-mSjsd6_kTnmYOXzpJNl-34" style="edgeStyle=orthogonalEdgeStyle;shape=connector;rounded=0;jumpStyle=arc;orthogonalLoop=1;jettySize=auto;html=1;entryX=0;entryY=0.5;entryDx=0;entryDy=0;labelBackgroundColor=default;strokeColor=default;fontFamily=Helvetica;fontSize=11;fontColor=default;endArrow=classic;startArrow=classic;startFill=1;" edge="1" parent="1" source="-mSjsd6_kTnmYOXzpJNl-27" target="-mSjsd6_kTnmYOXzpJNl-4">
          <mxGeometry relative="1" as="geometry">
            <Array as="points">
              <mxPoint x="100" y="580" />
            </Array>
          </mxGeometry>
        </mxCell>
        <mxCell id="-mSjsd6_kTnmYOXzpJNl-36" style="edgeStyle=orthogonalEdgeStyle;shape=connector;rounded=0;jumpStyle=arc;orthogonalLoop=1;jettySize=auto;html=1;exitX=0.25;exitY=1;exitDx=0;exitDy=0;entryX=0;entryY=0.5;entryDx=0;entryDy=0;labelBackgroundColor=default;strokeColor=default;fontFamily=Helvetica;fontSize=11;fontColor=default;endArrow=classic;startArrow=classic;startFill=1;" edge="1" parent="1" source="-mSjsd6_kTnmYOXzpJNl-27" target="-mSjsd6_kTnmYOXzpJNl-5">
          <mxGeometry relative="1" as="geometry" />
        </mxCell>
        <mxCell id="-mSjsd6_kTnmYOXzpJNl-38" style="edgeStyle=orthogonalEdgeStyle;shape=connector;rounded=0;jumpStyle=arc;orthogonalLoop=1;jettySize=auto;html=1;exitX=0;exitY=1;exitDx=0;exitDy=0;entryX=0;entryY=0.5;entryDx=0;entryDy=0;labelBackgroundColor=default;strokeColor=default;fontFamily=Helvetica;fontSize=11;fontColor=default;endArrow=classic;startArrow=classic;startFill=1;" edge="1" parent="1" source="-mSjsd6_kTnmYOXzpJNl-27" target="-mSjsd6_kTnmYOXzpJNl-6">
          <mxGeometry relative="1" as="geometry" />
        </mxCell>
        <mxCell id="-mSjsd6_kTnmYOXzpJNl-40" style="edgeStyle=orthogonalEdgeStyle;shape=connector;rounded=0;jumpStyle=arc;orthogonalLoop=1;jettySize=auto;html=1;exitX=0;exitY=0.5;exitDx=0;exitDy=0;entryX=0;entryY=0.5;entryDx=0;entryDy=0;labelBackgroundColor=default;strokeColor=default;fontFamily=Helvetica;fontSize=11;fontColor=default;endArrow=classic;startArrow=classic;startFill=1;" edge="1" parent="1" source="-mSjsd6_kTnmYOXzpJNl-27" target="-mSjsd6_kTnmYOXzpJNl-7">
          <mxGeometry relative="1" as="geometry" />
        </mxCell>
        <mxCell id="-mSjsd6_kTnmYOXzpJNl-27" value="Admin" style="rounded=0;whiteSpace=wrap;html=1;" vertex="1" parent="1">
          <mxGeometry x="40" y="80" width="120" height="40" as="geometry" />
        </mxCell>
        <mxCell id="-mSjsd6_kTnmYOXzpJNl-60" style="edgeStyle=orthogonalEdgeStyle;shape=connector;rounded=0;jumpStyle=arc;orthogonalLoop=1;jettySize=auto;html=1;entryX=1;entryY=0;entryDx=0;entryDy=0;labelBackgroundColor=default;strokeColor=default;fontFamily=Helvetica;fontSize=11;fontColor=default;endArrow=classic;" edge="1" parent="1" source="-mSjsd6_kTnmYOXzpJNl-47" target="-mSjsd6_kTnmYOXzpJNl-52">
          <mxGeometry relative="1" as="geometry" />
        </mxCell>
        <mxCell id="-mSjsd6_kTnmYOXzpJNl-61" style="edgeStyle=orthogonalEdgeStyle;shape=connector;rounded=0;jumpStyle=arc;orthogonalLoop=1;jettySize=auto;html=1;exitX=0.75;exitY=1;exitDx=0;exitDy=0;labelBackgroundColor=default;strokeColor=default;fontFamily=Helvetica;fontSize=11;fontColor=default;endArrow=classic;entryX=0.5;entryY=1;entryDx=0;entryDy=0;startArrow=classic;startFill=1;" edge="1" parent="1" source="-mSjsd6_kTnmYOXzpJNl-47" target="-mSjsd6_kTnmYOXzpJNl-7">
          <mxGeometry relative="1" as="geometry">
            <mxPoint x="790" y="990.0000000000002" as="targetPoint" />
            <Array as="points">
              <mxPoint x="730" y="480" />
              <mxPoint x="780" y="480" />
              <mxPoint x="780" y="1115" />
              <mxPoint x="305" y="1115" />
            </Array>
          </mxGeometry>
        </mxCell>
        <mxCell id="-mSjsd6_kTnmYOXzpJNl-62" style="edgeStyle=orthogonalEdgeStyle;shape=connector;rounded=0;jumpStyle=arc;orthogonalLoop=1;jettySize=auto;html=1;exitX=0.25;exitY=1;exitDx=0;exitDy=0;entryX=1;entryY=0;entryDx=0;entryDy=0;labelBackgroundColor=default;strokeColor=default;fontFamily=Helvetica;fontSize=11;fontColor=default;endArrow=classic;startArrow=classic;startFill=1;" edge="1" parent="1" source="-mSjsd6_kTnmYOXzpJNl-47" target="-mSjsd6_kTnmYOXzpJNl-5">
          <mxGeometry relative="1" as="geometry">
            <Array as="points">
              <mxPoint x="670" y="650" />
              <mxPoint x="330" y="650" />
            </Array>
          </mxGeometry>
        </mxCell>
        <mxCell id="-mSjsd6_kTnmYOXzpJNl-63" style="edgeStyle=orthogonalEdgeStyle;shape=connector;rounded=0;jumpStyle=arc;orthogonalLoop=1;jettySize=auto;html=1;exitX=0.5;exitY=0;exitDx=0;exitDy=0;labelBackgroundColor=default;strokeColor=default;fontFamily=Helvetica;fontSize=11;fontColor=default;endArrow=classic;entryX=1;entryY=0;entryDx=0;entryDy=0;" edge="1" parent="1" source="-mSjsd6_kTnmYOXzpJNl-47" target="-mSjsd6_kTnmYOXzpJNl-1">
          <mxGeometry relative="1" as="geometry">
            <mxPoint x="800" y="150" as="targetPoint" />
            <Array as="points">
              <mxPoint x="700" y="180" />
              <mxPoint x="610" y="180" />
              <mxPoint x="610" y="50" />
              <mxPoint x="330" y="50" />
            </Array>
          </mxGeometry>
        </mxCell>
        <mxCell id="VimBytMg7rEc7Gno3n_m-5" style="edgeStyle=orthogonalEdgeStyle;shape=connector;rounded=0;jumpStyle=arc;orthogonalLoop=1;jettySize=auto;html=1;entryX=1;entryY=1;entryDx=0;entryDy=0;labelBackgroundColor=default;strokeColor=default;fontFamily=Helvetica;fontSize=11;fontColor=default;endArrow=classic;startArrow=classic;startFill=1;" edge="1" parent="1" source="-mSjsd6_kTnmYOXzpJNl-47" target="-mSjsd6_kTnmYOXzpJNl-2">
          <mxGeometry relative="1" as="geometry">
            <Array as="points">
              <mxPoint x="640" y="370" />
              <mxPoint x="330" y="370" />
            </Array>
          </mxGeometry>
        </mxCell>
        <mxCell id="-mSjsd6_kTnmYOXzpJNl-47" value="Guru" style="rounded=0;whiteSpace=wrap;html=1;" vertex="1" parent="1">
          <mxGeometry x="640" y="400" width="120" height="40" as="geometry" />
        </mxCell>
        <mxCell id="-mSjsd6_kTnmYOXzpJNl-49" style="edgeStyle=orthogonalEdgeStyle;shape=connector;rounded=0;jumpStyle=arc;orthogonalLoop=1;jettySize=auto;html=1;entryX=1;entryY=1;entryDx=0;entryDy=0;labelBackgroundColor=default;strokeColor=default;fontFamily=Helvetica;fontSize=11;fontColor=default;endArrow=classic;exitX=0;exitY=0;exitDx=0;exitDy=0;" edge="1" parent="1" source="-mSjsd6_kTnmYOXzpJNl-48" target="-mSjsd6_kTnmYOXzpJNl-23">
          <mxGeometry relative="1" as="geometry">
            <Array as="points">
              <mxPoint x="676" y="980" />
              <mxPoint x="530" y="980" />
            </Array>
          </mxGeometry>
        </mxCell>
        <mxCell id="VimBytMg7rEc7Gno3n_m-3" style="edgeStyle=orthogonalEdgeStyle;shape=connector;rounded=0;jumpStyle=arc;orthogonalLoop=1;jettySize=auto;html=1;entryX=0.5;entryY=1;entryDx=0;entryDy=0;labelBackgroundColor=default;strokeColor=default;fontFamily=Helvetica;fontSize=11;fontColor=default;endArrow=classic;startArrow=classic;startFill=1;" edge="1" parent="1" source="-mSjsd6_kTnmYOXzpJNl-48" target="-mSjsd6_kTnmYOXzpJNl-6">
          <mxGeometry relative="1" as="geometry">
            <Array as="points">
              <mxPoint x="640" y="1055" />
              <mxPoint x="640" y="1000" />
              <mxPoint x="240" y="1000" />
              <mxPoint x="240" y="950" />
              <mxPoint x="305" y="950" />
            </Array>
          </mxGeometry>
        </mxCell>
        <mxCell id="-mSjsd6_kTnmYOXzpJNl-48" value="&lt;font style=&quot;font-size: 11px;&quot;&gt;8.0&lt;br&gt;Login Siswa&lt;br&gt;&lt;/font&gt;" style="ellipse;whiteSpace=wrap;html=1;aspect=fixed;" vertex="1" parent="1">
          <mxGeometry x="666" y="1020" width="70" height="70" as="geometry" />
        </mxCell>
        <mxCell id="-mSjsd6_kTnmYOXzpJNl-51" value="" style="edgeStyle=orthogonalEdgeStyle;shape=connector;rounded=0;jumpStyle=arc;orthogonalLoop=1;jettySize=auto;html=1;labelBackgroundColor=default;strokeColor=default;fontFamily=Helvetica;fontSize=11;fontColor=default;endArrow=classic;" edge="1" parent="1" source="-mSjsd6_kTnmYOXzpJNl-50" target="-mSjsd6_kTnmYOXzpJNl-48">
          <mxGeometry relative="1" as="geometry" />
        </mxCell>
        <mxCell id="-mSjsd6_kTnmYOXzpJNl-58" style="edgeStyle=orthogonalEdgeStyle;shape=connector;rounded=0;jumpStyle=arc;orthogonalLoop=1;jettySize=auto;html=1;labelBackgroundColor=default;strokeColor=default;fontFamily=Helvetica;fontSize=11;fontColor=default;endArrow=classic;startArrow=classic;startFill=1;" edge="1" parent="1" source="-mSjsd6_kTnmYOXzpJNl-50" target="-mSjsd6_kTnmYOXzpJNl-52">
          <mxGeometry relative="1" as="geometry" />
        </mxCell>
        <mxCell id="-mSjsd6_kTnmYOXzpJNl-50" value="Siswa" style="rounded=0;whiteSpace=wrap;html=1;" vertex="1" parent="1">
          <mxGeometry x="640" y="880" width="120" height="40" as="geometry" />
        </mxCell>
        <mxCell id="-mSjsd6_kTnmYOXzpJNl-56" style="edgeStyle=orthogonalEdgeStyle;shape=connector;rounded=0;jumpStyle=arc;orthogonalLoop=1;jettySize=auto;html=1;entryX=1;entryY=0.5;entryDx=0;entryDy=0;labelBackgroundColor=default;strokeColor=default;fontFamily=Helvetica;fontSize=11;fontColor=default;endArrow=classic;startArrow=classic;startFill=1;" edge="1" parent="1" source="-mSjsd6_kTnmYOXzpJNl-52" target="-mSjsd6_kTnmYOXzpJNl-55">
          <mxGeometry relative="1" as="geometry">
            <Array as="points">
              <mxPoint x="701" y="680" />
            </Array>
          </mxGeometry>
        </mxCell>
        <mxCell id="-mSjsd6_kTnmYOXzpJNl-52" value="&lt;font style=&quot;font-size: 11px;&quot;&gt;9.0&lt;br&gt;Mengelolah Absensi&lt;br&gt;&lt;/font&gt;" style="ellipse;whiteSpace=wrap;html=1;aspect=fixed;" vertex="1" parent="1">
          <mxGeometry x="666" y="720" width="70" height="70" as="geometry" />
        </mxCell>
        <mxCell id="-mSjsd6_kTnmYOXzpJNl-53" value="" style="endArrow=none;html=1;rounded=0;" edge="1" parent="1">
          <mxGeometry width="50" height="50" relative="1" as="geometry">
            <mxPoint x="440" y="700" as="sourcePoint" />
            <mxPoint x="560" y="700" as="targetPoint" />
          </mxGeometry>
        </mxCell>
        <mxCell id="-mSjsd6_kTnmYOXzpJNl-54" value="" style="endArrow=none;html=1;rounded=0;" edge="1" parent="1">
          <mxGeometry width="50" height="50" relative="1" as="geometry">
            <mxPoint x="440" y="660" as="sourcePoint" />
            <mxPoint x="560" y="660" as="targetPoint" />
          </mxGeometry>
        </mxCell>
        <mxCell id="-mSjsd6_kTnmYOXzpJNl-69" style="edgeStyle=orthogonalEdgeStyle;shape=connector;rounded=0;jumpStyle=arc;orthogonalLoop=1;jettySize=auto;html=1;exitX=1;exitY=0;exitDx=0;exitDy=0;entryX=0;entryY=1;entryDx=0;entryDy=0;labelBackgroundColor=default;strokeColor=default;fontFamily=Helvetica;fontSize=11;fontColor=default;endArrow=classic;" edge="1" parent="1" source="-mSjsd6_kTnmYOXzpJNl-55" target="-mSjsd6_kTnmYOXzpJNl-59">
          <mxGeometry relative="1" as="geometry">
            <Array as="points">
              <mxPoint x="590" y="665" />
              <mxPoint x="590" y="320" />
              <mxPoint x="675" y="320" />
            </Array>
          </mxGeometry>
        </mxCell>
        <mxCell id="-mSjsd6_kTnmYOXzpJNl-55" value="absensi" style="text;html=1;strokeColor=none;fillColor=none;align=center;verticalAlign=middle;whiteSpace=wrap;rounded=0;" vertex="1" parent="1">
          <mxGeometry x="470" y="665" width="60" height="30" as="geometry" />
        </mxCell>
        <mxCell id="-mSjsd6_kTnmYOXzpJNl-64" style="edgeStyle=orthogonalEdgeStyle;shape=connector;rounded=0;jumpStyle=arc;orthogonalLoop=1;jettySize=auto;html=1;exitX=0;exitY=0;exitDx=0;exitDy=0;entryX=1;entryY=0;entryDx=0;entryDy=0;labelBackgroundColor=default;strokeColor=default;fontFamily=Helvetica;fontSize=11;fontColor=default;endArrow=classic;" edge="1" parent="1" source="-mSjsd6_kTnmYOXzpJNl-59" target="-mSjsd6_kTnmYOXzpJNl-27">
          <mxGeometry relative="1" as="geometry">
            <Array as="points">
              <mxPoint x="675" y="20" />
              <mxPoint x="160" y="20" />
            </Array>
          </mxGeometry>
        </mxCell>
        <mxCell id="-mSjsd6_kTnmYOXzpJNl-59" value="&lt;font style=&quot;font-size: 11px;&quot;&gt;10.0&lt;br&gt;Laporan&lt;br&gt;&lt;/font&gt;" style="ellipse;whiteSpace=wrap;html=1;aspect=fixed;" vertex="1" parent="1">
          <mxGeometry x="665" y="65" width="70" height="70" as="geometry" />
        </mxCell>
        <mxCell id="-mSjsd6_kTnmYOXzpJNl-65" value="Data Login" style="text;html=1;strokeColor=none;fillColor=none;align=center;verticalAlign=middle;whiteSpace=wrap;rounded=0;fontSize=11;fontFamily=Helvetica;fontColor=default;" vertex="1" parent="1">
          <mxGeometry x="190" y="65" width="60" height="30" as="geometry" />
        </mxCell>
        <mxCell id="-mSjsd6_kTnmYOXzpJNl-66" value="Data Login" style="text;html=1;strokeColor=none;fillColor=none;align=center;verticalAlign=middle;whiteSpace=wrap;rounded=0;fontSize=11;fontFamily=Helvetica;fontColor=default;" vertex="1" parent="1">
          <mxGeometry x="354" y="65" width="60" height="30" as="geometry" />
        </mxCell>
        <mxCell id="-mSjsd6_kTnmYOXzpJNl-67" value="Data Pegawai" style="text;html=1;strokeColor=none;fillColor=none;align=center;verticalAlign=middle;whiteSpace=wrap;rounded=0;fontSize=11;fontFamily=Helvetica;fontColor=default;" vertex="1" parent="1">
          <mxGeometry x="180" y="225" width="60" height="30" as="geometry" />
        </mxCell>
        <mxCell id="-mSjsd6_kTnmYOXzpJNl-68" value="Data Pegawai" style="text;html=1;strokeColor=none;fillColor=none;align=center;verticalAlign=middle;whiteSpace=wrap;rounded=0;fontSize=11;fontFamily=Helvetica;fontColor=default;" vertex="1" parent="1">
          <mxGeometry x="370" y="225" width="60" height="30" as="geometry" />
        </mxCell>
        <mxCell id="-mSjsd6_kTnmYOXzpJNl-72" value="Data Pegawai" style="text;html=1;strokeColor=none;fillColor=none;align=center;verticalAlign=middle;whiteSpace=wrap;rounded=0;fontSize=11;fontFamily=Helvetica;fontColor=default;" vertex="1" parent="1">
          <mxGeometry x="380" y="295" width="60" height="30" as="geometry" />
        </mxCell>
        <mxCell id="-mSjsd6_kTnmYOXzpJNl-73" value="Data Pegawai" style="text;html=1;strokeColor=none;fillColor=none;align=center;verticalAlign=middle;whiteSpace=wrap;rounded=0;fontSize=11;fontFamily=Helvetica;fontColor=default;" vertex="1" parent="1">
          <mxGeometry x="540" y="65" width="60" height="30" as="geometry" />
        </mxCell>
        <mxCell id="-mSjsd6_kTnmYOXzpJNl-74" value="Data Absensi" style="text;html=1;strokeColor=none;fillColor=none;align=center;verticalAlign=middle;whiteSpace=wrap;rounded=0;fontSize=11;fontFamily=Helvetica;fontColor=default;" vertex="1" parent="1">
          <mxGeometry x="590" y="280" width="60" height="30" as="geometry" />
        </mxCell>
        <mxCell id="-mSjsd6_kTnmYOXzpJNl-76" value="Data Kelas" style="text;html=1;strokeColor=none;fillColor=none;align=center;verticalAlign=middle;whiteSpace=wrap;rounded=0;fontSize=11;fontFamily=Helvetica;fontColor=default;" vertex="1" parent="1">
          <mxGeometry x="150" y="386" width="60" height="30" as="geometry" />
        </mxCell>
        <mxCell id="-mSjsd6_kTnmYOXzpJNl-77" value="Data Kelas" style="text;html=1;strokeColor=none;fillColor=none;align=center;verticalAlign=middle;whiteSpace=wrap;rounded=0;fontSize=11;fontFamily=Helvetica;fontColor=default;" vertex="1" parent="1">
          <mxGeometry x="370" y="386" width="60" height="30" as="geometry" />
        </mxCell>
        <mxCell id="-mSjsd6_kTnmYOXzpJNl-78" value="Data Kelas" style="text;html=1;strokeColor=none;fillColor=none;align=center;verticalAlign=middle;whiteSpace=wrap;rounded=0;fontSize=11;fontFamily=Helvetica;fontColor=default;" vertex="1" parent="1">
          <mxGeometry x="370" y="466" width="60" height="30" as="geometry" />
        </mxCell>
        <mxCell id="-mSjsd6_kTnmYOXzpJNl-79" value="Data Mata Pelajaran" style="text;html=1;strokeColor=none;fillColor=none;align=center;verticalAlign=middle;whiteSpace=wrap;rounded=0;fontSize=11;fontFamily=Helvetica;fontColor=default;" vertex="1" parent="1">
          <mxGeometry x="110" y="545" width="60" height="30" as="geometry" />
        </mxCell>
        <mxCell id="-mSjsd6_kTnmYOXzpJNl-80" value="Data Mata Pelajaran" style="text;html=1;strokeColor=none;fillColor=none;align=center;verticalAlign=middle;whiteSpace=wrap;rounded=0;fontSize=11;fontFamily=Helvetica;fontColor=default;" vertex="1" parent="1">
          <mxGeometry x="360" y="545" width="60" height="30" as="geometry" />
        </mxCell>
        <mxCell id="-mSjsd6_kTnmYOXzpJNl-81" value="Data Mata Pelajaran" style="text;html=1;strokeColor=none;fillColor=none;align=center;verticalAlign=middle;whiteSpace=wrap;rounded=0;fontSize=11;fontFamily=Helvetica;fontColor=default;" vertex="1" parent="1">
          <mxGeometry x="360" y="594.58" width="60" height="30" as="geometry" />
        </mxCell>
        <mxCell id="-mSjsd6_kTnmYOXzpJNl-82" value="Data Mengajar" style="text;html=1;strokeColor=none;fillColor=none;align=center;verticalAlign=middle;whiteSpace=wrap;rounded=0;fontSize=11;fontFamily=Helvetica;fontColor=default;" vertex="1" parent="1">
          <mxGeometry x="606" y="555" width="60" height="30" as="geometry" />
        </mxCell>
        <mxCell id="-mSjsd6_kTnmYOXzpJNl-83" value="Data Mengajar" style="text;html=1;strokeColor=none;fillColor=none;align=center;verticalAlign=middle;whiteSpace=wrap;rounded=0;fontSize=11;fontFamily=Helvetica;fontColor=default;" vertex="1" parent="1">
          <mxGeometry x="100" y="705" width="60" height="30" as="geometry" />
        </mxCell>
        <mxCell id="-mSjsd6_kTnmYOXzpJNl-84" value="Data Mengajar" style="text;html=1;strokeColor=none;fillColor=none;align=center;verticalAlign=middle;whiteSpace=wrap;rounded=0;fontSize=11;fontFamily=Helvetica;fontColor=default;" vertex="1" parent="1">
          <mxGeometry x="360" y="702" width="60" height="30" as="geometry" />
        </mxCell>
        <mxCell id="-mSjsd6_kTnmYOXzpJNl-85" value="Data Mengajar" style="text;html=1;strokeColor=none;fillColor=none;align=center;verticalAlign=middle;whiteSpace=wrap;rounded=0;fontSize=11;fontFamily=Helvetica;fontColor=default;" vertex="1" parent="1">
          <mxGeometry x="600" y="705" width="60" height="30" as="geometry" />
        </mxCell>
        <mxCell id="-mSjsd6_kTnmYOXzpJNl-86" value="Data Absensi" style="text;html=1;strokeColor=none;fillColor=none;align=center;verticalAlign=middle;whiteSpace=wrap;rounded=0;fontSize=11;fontFamily=Helvetica;fontColor=default;" vertex="1" parent="1">
          <mxGeometry x="600" y="654" width="100" height="30" as="geometry" />
        </mxCell>
        <mxCell id="-mSjsd6_kTnmYOXzpJNl-87" value="Data Absensi" style="text;html=1;strokeColor=none;fillColor=none;align=center;verticalAlign=middle;whiteSpace=wrap;rounded=0;fontSize=11;fontFamily=Helvetica;fontColor=default;" vertex="1" parent="1">
          <mxGeometry x="710" y="545" width="50" height="30" as="geometry" />
        </mxCell>
        <mxCell id="-mSjsd6_kTnmYOXzpJNl-88" value="Data Absensi" style="text;html=1;strokeColor=none;fillColor=none;align=center;verticalAlign=middle;whiteSpace=wrap;rounded=0;fontSize=11;fontFamily=Helvetica;fontColor=default;" vertex="1" parent="1">
          <mxGeometry x="650" y="810" width="50" height="30" as="geometry" />
        </mxCell>
        <mxCell id="-mSjsd6_kTnmYOXzpJNl-89" value="Data Siswa" style="text;html=1;strokeColor=none;fillColor=none;align=center;verticalAlign=middle;whiteSpace=wrap;rounded=0;fontSize=11;fontFamily=Helvetica;fontColor=default;" vertex="1" parent="1">
          <mxGeometry x="518" y="830" width="70" height="30" as="geometry" />
        </mxCell>
        <mxCell id="-mSjsd6_kTnmYOXzpJNl-90" value="Data Mengajar" style="text;html=1;strokeColor=none;fillColor=none;align=center;verticalAlign=middle;whiteSpace=wrap;rounded=0;fontSize=11;fontFamily=Helvetica;fontColor=default;" vertex="1" parent="1">
          <mxGeometry x="360" y="780" width="60" height="30" as="geometry" />
        </mxCell>
        <mxCell id="-mSjsd6_kTnmYOXzpJNl-91" value="Data Siswa" style="text;html=1;strokeColor=none;fillColor=none;align=center;verticalAlign=middle;whiteSpace=wrap;rounded=0;fontSize=11;fontFamily=Helvetica;fontColor=default;" vertex="1" parent="1">
          <mxGeometry x="70" y="865" width="70" height="30" as="geometry" />
        </mxCell>
        <mxCell id="-mSjsd6_kTnmYOXzpJNl-92" value="Data Siswa" style="text;html=1;strokeColor=none;fillColor=none;align=center;verticalAlign=middle;whiteSpace=wrap;rounded=0;fontSize=11;fontFamily=Helvetica;fontColor=default;" vertex="1" parent="1">
          <mxGeometry x="350" y="865" width="70" height="30" as="geometry" />
        </mxCell>
        <mxCell id="-mSjsd6_kTnmYOXzpJNl-93" value="Data Siswa" style="text;html=1;strokeColor=none;fillColor=none;align=center;verticalAlign=middle;whiteSpace=wrap;rounded=0;fontSize=11;fontFamily=Helvetica;fontColor=default;" vertex="1" parent="1">
          <mxGeometry x="360" y="942" width="70" height="30" as="geometry" />
        </mxCell>
        <mxCell id="-mSjsd6_kTnmYOXzpJNl-94" value="Data Belajar" style="text;html=1;strokeColor=none;fillColor=none;align=center;verticalAlign=middle;whiteSpace=wrap;rounded=0;fontSize=11;fontFamily=Helvetica;fontColor=default;" vertex="1" parent="1">
          <mxGeometry x="65" y="1025" width="70" height="30" as="geometry" />
        </mxCell>
        <mxCell id="-mSjsd6_kTnmYOXzpJNl-95" value="Data Belajar" style="text;html=1;strokeColor=none;fillColor=none;align=center;verticalAlign=middle;whiteSpace=wrap;rounded=0;fontSize=11;fontFamily=Helvetica;fontColor=default;" vertex="1" parent="1">
          <mxGeometry x="355" y="1025" width="70" height="30" as="geometry" />
        </mxCell>
        <mxCell id="-mSjsd6_kTnmYOXzpJNl-96" value="Data Belajar" style="text;html=1;strokeColor=none;fillColor=none;align=center;verticalAlign=middle;whiteSpace=wrap;rounded=0;fontSize=11;fontFamily=Helvetica;fontColor=default;" vertex="1" parent="1">
          <mxGeometry x="330" y="1120" width="70" height="30" as="geometry" />
        </mxCell>
        <mxCell id="-mSjsd6_kTnmYOXzpJNl-97" value="Data Belajar" style="text;html=1;strokeColor=none;fillColor=none;align=center;verticalAlign=middle;whiteSpace=wrap;rounded=0;fontSize=11;fontFamily=Helvetica;fontColor=default;" vertex="1" parent="1">
          <mxGeometry x="500" y="1139" width="70" height="30" as="geometry" />
        </mxCell>
        <mxCell id="-mSjsd6_kTnmYOXzpJNl-98" value="Data Login" style="text;html=1;strokeColor=none;fillColor=none;align=center;verticalAlign=middle;whiteSpace=wrap;rounded=0;fontSize=11;fontFamily=Helvetica;fontColor=default;" vertex="1" parent="1">
          <mxGeometry x="556" y="942" width="50" height="30" as="geometry" />
        </mxCell>
        <mxCell id="-mSjsd6_kTnmYOXzpJNl-99" value="Data Login" style="text;html=1;strokeColor=none;fillColor=none;align=center;verticalAlign=middle;whiteSpace=wrap;rounded=0;fontSize=11;fontFamily=Helvetica;fontColor=default;" vertex="1" parent="1">
          <mxGeometry x="700" y="952" width="50" height="30" as="geometry" />
        </mxCell>
        <mxCell id="-mSjsd6_kTnmYOXzpJNl-100" value="Data Login" style="text;html=1;strokeColor=none;fillColor=none;align=center;verticalAlign=middle;whiteSpace=wrap;rounded=0;fontSize=11;fontFamily=Helvetica;fontColor=default;" vertex="1" parent="1">
          <mxGeometry x="705" y="350" width="60" height="30" as="geometry" />
        </mxCell>
        <mxCell id="VimBytMg7rEc7Gno3n_m-2" value="Data Siswa" style="text;html=1;strokeColor=none;fillColor=none;align=center;verticalAlign=middle;whiteSpace=wrap;rounded=0;fontSize=11;fontFamily=Helvetica;fontColor=default;" vertex="1" parent="1">
          <mxGeometry x="530" y="770" width="70" height="30" as="geometry" />
        </mxCell>
        <mxCell id="VimBytMg7rEc7Gno3n_m-4" value="Data Siswa" style="text;html=1;strokeColor=none;fillColor=none;align=center;verticalAlign=middle;whiteSpace=wrap;rounded=0;fontSize=11;fontFamily=Helvetica;fontColor=default;" vertex="1" parent="1">
          <mxGeometry x="556" y="1010" width="70" height="30" as="geometry" />
        </mxCell>
        <mxCell id="VimBytMg7rEc7Gno3n_m-6" value="Data Pegawai" style="text;html=1;strokeColor=none;fillColor=none;align=center;verticalAlign=middle;whiteSpace=wrap;rounded=0;fontSize=11;fontFamily=Helvetica;fontColor=default;" vertex="1" parent="1">
          <mxGeometry x="496" y="340" width="60" height="30" as="geometry" />
        </mxCell>
      </root>
    </mxGraphModel>
  </diagram>
  <diagram id="5E6mnPBb6K2zK4zrvqGn" name="Flowchart Login">
    <mxGraphModel dx="1468" dy="745" grid="1" gridSize="10" guides="1" tooltips="1" connect="1" arrows="1" fold="1" page="1" pageScale="1" pageWidth="827" pageHeight="1169" math="0" shadow="0">
      <root>
        <mxCell id="0" />
        <mxCell id="1" parent="0" />
        <mxCell id="C88E7fU4UrTDfvu7GuRY-1" value="" style="edgeStyle=orthogonalEdgeStyle;rounded=0;orthogonalLoop=1;jettySize=auto;html=1;" edge="1" parent="1" source="C88E7fU4UrTDfvu7GuRY-2" target="C88E7fU4UrTDfvu7GuRY-4">
          <mxGeometry relative="1" as="geometry" />
        </mxCell>
        <mxCell id="C88E7fU4UrTDfvu7GuRY-2" value="Start" style="ellipse;whiteSpace=wrap;html=1;" vertex="1" parent="1">
          <mxGeometry x="355" y="100" width="70" height="40" as="geometry" />
        </mxCell>
        <mxCell id="C88E7fU4UrTDfvu7GuRY-3" value="" style="edgeStyle=orthogonalEdgeStyle;rounded=0;orthogonalLoop=1;jettySize=auto;html=1;" edge="1" parent="1" source="C88E7fU4UrTDfvu7GuRY-4" target="C88E7fU4UrTDfvu7GuRY-7">
          <mxGeometry relative="1" as="geometry" />
        </mxCell>
        <mxCell id="C88E7fU4UrTDfvu7GuRY-4" value="Halaman Login" style="whiteSpace=wrap;html=1;" vertex="1" parent="1">
          <mxGeometry x="330" y="210" width="120" height="60" as="geometry" />
        </mxCell>
        <mxCell id="C88E7fU4UrTDfvu7GuRY-5" value="" style="edgeStyle=orthogonalEdgeStyle;rounded=0;orthogonalLoop=1;jettySize=auto;html=1;" edge="1" parent="1" source="C88E7fU4UrTDfvu7GuRY-7" target="C88E7fU4UrTDfvu7GuRY-11">
          <mxGeometry relative="1" as="geometry" />
        </mxCell>
        <mxCell id="C88E7fU4UrTDfvu7GuRY-6" value="" style="edgeStyle=orthogonalEdgeStyle;rounded=0;orthogonalLoop=1;jettySize=auto;html=1;" edge="1" parent="1" source="C88E7fU4UrTDfvu7GuRY-7" target="C88E7fU4UrTDfvu7GuRY-11">
          <mxGeometry relative="1" as="geometry" />
        </mxCell>
        <mxCell id="C88E7fU4UrTDfvu7GuRY-7" value="Mengisi form login dan submit" style="whiteSpace=wrap;html=1;" vertex="1" parent="1">
          <mxGeometry x="330" y="350" width="120" height="60" as="geometry" />
        </mxCell>
        <mxCell id="C88E7fU4UrTDfvu7GuRY-8" style="edgeStyle=orthogonalEdgeStyle;rounded=0;orthogonalLoop=1;jettySize=auto;html=1;entryX=1;entryY=0.5;entryDx=0;entryDy=0;" edge="1" parent="1" source="C88E7fU4UrTDfvu7GuRY-11" target="C88E7fU4UrTDfvu7GuRY-4">
          <mxGeometry relative="1" as="geometry">
            <Array as="points">
              <mxPoint x="590" y="240" />
            </Array>
          </mxGeometry>
        </mxCell>
        <mxCell id="C88E7fU4UrTDfvu7GuRY-9" value="N" style="edgeLabel;html=1;align=center;verticalAlign=middle;resizable=0;points=[];" vertex="1" connectable="0" parent="C88E7fU4UrTDfvu7GuRY-8">
          <mxGeometry x="-0.5097" y="-2" relative="1" as="geometry">
            <mxPoint as="offset" />
          </mxGeometry>
        </mxCell>
        <mxCell id="C88E7fU4UrTDfvu7GuRY-10" value="" style="edgeStyle=orthogonalEdgeStyle;rounded=0;orthogonalLoop=1;jettySize=auto;html=1;" edge="1" parent="1" source="C88E7fU4UrTDfvu7GuRY-11" target="C88E7fU4UrTDfvu7GuRY-13">
          <mxGeometry relative="1" as="geometry">
            <Array as="points">
              <mxPoint x="590" y="550" />
            </Array>
          </mxGeometry>
        </mxCell>
        <mxCell id="C88E7fU4UrTDfvu7GuRY-11" value="Valid ?" style="rhombus;whiteSpace=wrap;html=1;" vertex="1" parent="1">
          <mxGeometry x="550" y="340" width="80" height="80" as="geometry" />
        </mxCell>
        <mxCell id="C88E7fU4UrTDfvu7GuRY-12" value="" style="edgeStyle=orthogonalEdgeStyle;rounded=0;orthogonalLoop=1;jettySize=auto;html=1;" edge="1" parent="1" source="C88E7fU4UrTDfvu7GuRY-13" target="C88E7fU4UrTDfvu7GuRY-14">
          <mxGeometry relative="1" as="geometry" />
        </mxCell>
        <mxCell id="C88E7fU4UrTDfvu7GuRY-13" value="Dashboard" style="whiteSpace=wrap;html=1;" vertex="1" parent="1">
          <mxGeometry x="330" y="520" width="120" height="60" as="geometry" />
        </mxCell>
        <mxCell id="C88E7fU4UrTDfvu7GuRY-14" value="End" style="ellipse;whiteSpace=wrap;html=1;" vertex="1" parent="1">
          <mxGeometry x="355" y="670" width="70" height="40" as="geometry" />
        </mxCell>
      </root>
    </mxGraphModel>
  </diagram>
  <diagram id="Js0KV5rgwLqru0laAyj1" name="Flowchart Isi raport">
    <mxGraphModel dx="1468" dy="745" grid="1" gridSize="10" guides="1" tooltips="1" connect="1" arrows="1" fold="1" page="1" pageScale="1" pageWidth="827" pageHeight="1169" math="0" shadow="0">
      <root>
        <mxCell id="0" />
        <mxCell id="1" parent="0" />
        <mxCell id="V0YIeGH1XatapRvV5EJr-1" value="" style="edgeStyle=orthogonalEdgeStyle;rounded=0;orthogonalLoop=1;jettySize=auto;html=1;" edge="1" parent="1" source="V0YIeGH1XatapRvV5EJr-2">
          <mxGeometry relative="1" as="geometry">
            <mxPoint x="200" y="170" as="targetPoint" />
          </mxGeometry>
        </mxCell>
        <mxCell id="V0YIeGH1XatapRvV5EJr-2" value="Start" style="ellipse;whiteSpace=wrap;html=1;" vertex="1" parent="1">
          <mxGeometry x="165" y="60" width="70" height="40" as="geometry" />
        </mxCell>
        <mxCell id="V0YIeGH1XatapRvV5EJr-3" value="" style="edgeStyle=orthogonalEdgeStyle;rounded=0;orthogonalLoop=1;jettySize=auto;html=1;" edge="1" parent="1" target="V0YIeGH1XatapRvV5EJr-5">
          <mxGeometry relative="1" as="geometry">
            <mxPoint x="200" y="230" as="sourcePoint" />
          </mxGeometry>
        </mxCell>
        <mxCell id="V0YIeGH1XatapRvV5EJr-4" value="" style="edgeStyle=orthogonalEdgeStyle;rounded=0;orthogonalLoop=1;jettySize=auto;html=1;" edge="1" parent="1" source="V0YIeGH1XatapRvV5EJr-5" target="V0YIeGH1XatapRvV5EJr-9">
          <mxGeometry relative="1" as="geometry" />
        </mxCell>
        <mxCell id="V0YIeGH1XatapRvV5EJr-5" value="Halaman Raport" style="whiteSpace=wrap;html=1;" vertex="1" parent="1">
          <mxGeometry x="140" y="310" width="120" height="60" as="geometry" />
        </mxCell>
        <mxCell id="V0YIeGH1XatapRvV5EJr-7" value="Login" style="shape=process;whiteSpace=wrap;html=1;backgroundOutline=1;" vertex="1" parent="1">
          <mxGeometry x="140" y="170" width="120" height="60" as="geometry" />
        </mxCell>
        <mxCell id="V0YIeGH1XatapRvV5EJr-8" value="" style="edgeStyle=orthogonalEdgeStyle;rounded=0;orthogonalLoop=1;jettySize=auto;html=1;" edge="1" parent="1" source="V0YIeGH1XatapRvV5EJr-9" target="V0YIeGH1XatapRvV5EJr-20">
          <mxGeometry relative="1" as="geometry" />
        </mxCell>
        <mxCell id="V0YIeGH1XatapRvV5EJr-9" value="Pilih Kelas dan Siswa" style="whiteSpace=wrap;html=1;" vertex="1" parent="1">
          <mxGeometry x="140" y="450" width="120" height="60" as="geometry" />
        </mxCell>
        <mxCell id="V0YIeGH1XatapRvV5EJr-34" value="" style="edgeStyle=orthogonalEdgeStyle;shape=connector;rounded=0;jumpStyle=arc;orthogonalLoop=1;jettySize=auto;html=1;labelBackgroundColor=default;strokeColor=default;fontFamily=Helvetica;fontSize=11;fontColor=default;endArrow=classic;" edge="1" parent="1" source="V0YIeGH1XatapRvV5EJr-20" target="V0YIeGH1XatapRvV5EJr-33">
          <mxGeometry relative="1" as="geometry" />
        </mxCell>
        <mxCell id="V0YIeGH1XatapRvV5EJr-20" value="Masukan nilainya mata pelajaran" style="whiteSpace=wrap;html=1;" vertex="1" parent="1">
          <mxGeometry x="340" y="450" width="120" height="60" as="geometry" />
        </mxCell>
        <mxCell id="V0YIeGH1XatapRvV5EJr-35" style="edgeStyle=orthogonalEdgeStyle;shape=connector;rounded=0;jumpStyle=arc;orthogonalLoop=1;jettySize=auto;html=1;labelBackgroundColor=default;strokeColor=default;fontFamily=Helvetica;fontSize=11;fontColor=default;endArrow=classic;" edge="1" parent="1" source="V0YIeGH1XatapRvV5EJr-33" target="V0YIeGH1XatapRvV5EJr-20">
          <mxGeometry relative="1" as="geometry">
            <Array as="points">
              <mxPoint x="500" y="620" />
              <mxPoint x="500" y="480" />
            </Array>
          </mxGeometry>
        </mxCell>
        <mxCell id="P2WOYKS-ys2OWi8rJeZi-1" value="N" style="edgeLabel;html=1;align=center;verticalAlign=middle;resizable=0;points=[];fontSize=11;fontFamily=Helvetica;fontColor=default;" vertex="1" connectable="0" parent="V0YIeGH1XatapRvV5EJr-35">
          <mxGeometry x="-0.7584" relative="1" as="geometry">
            <mxPoint as="offset" />
          </mxGeometry>
        </mxCell>
        <mxCell id="V0YIeGH1XatapRvV5EJr-37" value="" style="edgeStyle=orthogonalEdgeStyle;shape=connector;rounded=0;jumpStyle=arc;orthogonalLoop=1;jettySize=auto;html=1;labelBackgroundColor=default;strokeColor=default;fontFamily=Helvetica;fontSize=11;fontColor=default;endArrow=classic;" edge="1" parent="1" source="V0YIeGH1XatapRvV5EJr-33" target="V0YIeGH1XatapRvV5EJr-36">
          <mxGeometry relative="1" as="geometry" />
        </mxCell>
        <mxCell id="P2WOYKS-ys2OWi8rJeZi-2" value="Y" style="edgeLabel;html=1;align=center;verticalAlign=middle;resizable=0;points=[];fontSize=11;fontFamily=Helvetica;fontColor=default;" vertex="1" connectable="0" parent="V0YIeGH1XatapRvV5EJr-37">
          <mxGeometry x="-0.04" relative="1" as="geometry">
            <mxPoint as="offset" />
          </mxGeometry>
        </mxCell>
        <mxCell id="V0YIeGH1XatapRvV5EJr-33" value="success ?" style="rhombus;whiteSpace=wrap;html=1;" vertex="1" parent="1">
          <mxGeometry x="360" y="580" width="80" height="80" as="geometry" />
        </mxCell>
        <mxCell id="V0YIeGH1XatapRvV5EJr-39" value="" style="edgeStyle=orthogonalEdgeStyle;shape=connector;rounded=0;jumpStyle=arc;orthogonalLoop=1;jettySize=auto;html=1;labelBackgroundColor=default;strokeColor=default;fontFamily=Helvetica;fontSize=11;fontColor=default;endArrow=classic;" edge="1" parent="1" source="V0YIeGH1XatapRvV5EJr-36" target="V0YIeGH1XatapRvV5EJr-38">
          <mxGeometry relative="1" as="geometry" />
        </mxCell>
        <mxCell id="V0YIeGH1XatapRvV5EJr-36" value="Halaman Raport" style="whiteSpace=wrap;html=1;" vertex="1" parent="1">
          <mxGeometry x="140" y="590" width="120" height="60" as="geometry" />
        </mxCell>
        <mxCell id="V0YIeGH1XatapRvV5EJr-38" value="End" style="ellipse;whiteSpace=wrap;html=1;" vertex="1" parent="1">
          <mxGeometry x="165" y="760" width="70" height="40" as="geometry" />
        </mxCell>
      </root>
    </mxGraphModel>
  </diagram>
  <diagram id="kzbkEfF0rgmvwFbWcdm-" name="Flowchart Absensi">
    <mxGraphModel dx="2385" dy="1210" grid="1" gridSize="10" guides="1" tooltips="1" connect="1" arrows="1" fold="1" page="1" pageScale="1" pageWidth="827" pageHeight="1169" math="0" shadow="0">
      <root>
        <mxCell id="0" />
        <mxCell id="1" parent="0" />
        <mxCell id="PvCzHloH9g1gREgS2Aqy-1" value="Guru" style="swimlane;whiteSpace=wrap;html=1;fontFamily=Helvetica;fontSize=11;fontColor=default;" vertex="1" parent="1">
          <mxGeometry x="40" y="60" width="200" height="820" as="geometry" />
        </mxCell>
        <mxCell id="PvCzHloH9g1gREgS2Aqy-20" value="" style="edgeStyle=orthogonalEdgeStyle;shape=connector;rounded=0;jumpStyle=arc;orthogonalLoop=1;jettySize=auto;html=1;labelBackgroundColor=default;strokeColor=default;fontFamily=Helvetica;fontSize=11;fontColor=default;endArrow=classic;" edge="1" parent="PvCzHloH9g1gREgS2Aqy-1" source="PvCzHloH9g1gREgS2Aqy-3" target="PvCzHloH9g1gREgS2Aqy-19">
          <mxGeometry relative="1" as="geometry" />
        </mxCell>
        <mxCell id="PvCzHloH9g1gREgS2Aqy-3" value="&lt;font style=&quot;font-size: 18px;&quot;&gt;Start&lt;/font&gt;" style="ellipse;whiteSpace=wrap;html=1;" vertex="1" parent="PvCzHloH9g1gREgS2Aqy-1">
          <mxGeometry x="60" y="70" width="80" height="40" as="geometry" />
        </mxCell>
        <mxCell id="PvCzHloH9g1gREgS2Aqy-22" value="" style="edgeStyle=orthogonalEdgeStyle;shape=connector;rounded=0;jumpStyle=arc;orthogonalLoop=1;jettySize=auto;html=1;labelBackgroundColor=default;strokeColor=default;fontFamily=Helvetica;fontSize=11;fontColor=default;endArrow=classic;" edge="1" parent="PvCzHloH9g1gREgS2Aqy-1" source="PvCzHloH9g1gREgS2Aqy-19" target="PvCzHloH9g1gREgS2Aqy-21">
          <mxGeometry relative="1" as="geometry" />
        </mxCell>
        <mxCell id="PvCzHloH9g1gREgS2Aqy-19" value="Login" style="shape=process;whiteSpace=wrap;html=1;backgroundOutline=1;" vertex="1" parent="PvCzHloH9g1gREgS2Aqy-1">
          <mxGeometry x="40" y="180" width="120" height="60" as="geometry" />
        </mxCell>
        <mxCell id="PvCzHloH9g1gREgS2Aqy-24" value="" style="edgeStyle=orthogonalEdgeStyle;shape=connector;rounded=0;jumpStyle=arc;orthogonalLoop=1;jettySize=auto;html=1;labelBackgroundColor=default;strokeColor=default;fontFamily=Helvetica;fontSize=11;fontColor=default;endArrow=classic;" edge="1" parent="PvCzHloH9g1gREgS2Aqy-1" source="PvCzHloH9g1gREgS2Aqy-21" target="PvCzHloH9g1gREgS2Aqy-23">
          <mxGeometry relative="1" as="geometry" />
        </mxCell>
        <mxCell id="PvCzHloH9g1gREgS2Aqy-21" value="Halaman Mata Pelajaran" style="whiteSpace=wrap;html=1;" vertex="1" parent="PvCzHloH9g1gREgS2Aqy-1">
          <mxGeometry x="40" y="320" width="120" height="60" as="geometry" />
        </mxCell>
        <mxCell id="PvCzHloH9g1gREgS2Aqy-23" value="Merubah dan menyimpan status mata pelajar untuk absen" style="whiteSpace=wrap;html=1;" vertex="1" parent="PvCzHloH9g1gREgS2Aqy-1">
          <mxGeometry x="40" y="460" width="120" height="60" as="geometry" />
        </mxCell>
        <mxCell id="PvCzHloH9g1gREgS2Aqy-10" value="Sistem" style="swimlane;whiteSpace=wrap;html=1;fontFamily=Helvetica;fontSize=11;fontColor=default;" vertex="1" parent="1">
          <mxGeometry x="240" y="60" width="200" height="820" as="geometry" />
        </mxCell>
        <mxCell id="PvCzHloH9g1gREgS2Aqy-18" value="Valid" style="rhombus;whiteSpace=wrap;html=1;fontSize=11;rounded=1;arcSize=0;" vertex="1" parent="PvCzHloH9g1gREgS2Aqy-10">
          <mxGeometry x="60" y="170" width="80" height="80" as="geometry" />
        </mxCell>
        <mxCell id="PvCzHloH9g1gREgS2Aqy-17" value="Siswa" style="swimlane;whiteSpace=wrap;html=1;fontFamily=Helvetica;fontSize=11;fontColor=default;" vertex="1" parent="1">
          <mxGeometry x="440" y="60" width="200" height="820" as="geometry" />
        </mxCell>
        <mxCell id="PvCzHloH9g1gREgS2Aqy-31" value="" style="edgeStyle=orthogonalEdgeStyle;shape=connector;rounded=0;jumpStyle=arc;orthogonalLoop=1;jettySize=auto;html=1;labelBackgroundColor=default;strokeColor=default;fontFamily=Helvetica;fontSize=11;fontColor=default;endArrow=classic;" edge="1" parent="PvCzHloH9g1gREgS2Aqy-17" source="PvCzHloH9g1gREgS2Aqy-28" target="PvCzHloH9g1gREgS2Aqy-9">
          <mxGeometry relative="1" as="geometry" />
        </mxCell>
        <mxCell id="PvCzHloH9g1gREgS2Aqy-28" value="Halaman Absen dan klik absen" style="whiteSpace=wrap;html=1;" vertex="1" parent="PvCzHloH9g1gREgS2Aqy-17">
          <mxGeometry x="40" y="180" width="120" height="60" as="geometry" />
        </mxCell>
        <mxCell id="PvCzHloH9g1gREgS2Aqy-9" value="&lt;font style=&quot;font-size: 18px;&quot;&gt;End&lt;/font&gt;" style="ellipse;whiteSpace=wrap;html=1;" vertex="1" parent="PvCzHloH9g1gREgS2Aqy-17">
          <mxGeometry x="60" y="330" width="80" height="40" as="geometry" />
        </mxCell>
        <mxCell id="PvCzHloH9g1gREgS2Aqy-25" style="edgeStyle=orthogonalEdgeStyle;shape=connector;rounded=0;jumpStyle=arc;orthogonalLoop=1;jettySize=auto;html=1;entryX=0.5;entryY=1;entryDx=0;entryDy=0;labelBackgroundColor=default;strokeColor=default;fontFamily=Helvetica;fontSize=11;fontColor=default;endArrow=classic;" edge="1" parent="1" source="PvCzHloH9g1gREgS2Aqy-23" target="PvCzHloH9g1gREgS2Aqy-18">
          <mxGeometry relative="1" as="geometry" />
        </mxCell>
        <mxCell id="PvCzHloH9g1gREgS2Aqy-26" style="edgeStyle=orthogonalEdgeStyle;shape=connector;rounded=0;jumpStyle=arc;orthogonalLoop=1;jettySize=auto;html=1;exitX=0;exitY=0.5;exitDx=0;exitDy=0;entryX=1;entryY=0.5;entryDx=0;entryDy=0;labelBackgroundColor=default;strokeColor=default;fontFamily=Helvetica;fontSize=11;fontColor=default;endArrow=classic;" edge="1" parent="1" source="PvCzHloH9g1gREgS2Aqy-18" target="PvCzHloH9g1gREgS2Aqy-21">
          <mxGeometry relative="1" as="geometry" />
        </mxCell>
        <mxCell id="PvCzHloH9g1gREgS2Aqy-27" value="N" style="edgeLabel;html=1;align=center;verticalAlign=middle;resizable=0;points=[];fontSize=11;fontFamily=Helvetica;fontColor=default;" vertex="1" connectable="0" parent="PvCzHloH9g1gREgS2Aqy-26">
          <mxGeometry x="-0.7458" relative="1" as="geometry">
            <mxPoint x="1" as="offset" />
          </mxGeometry>
        </mxCell>
        <mxCell id="PvCzHloH9g1gREgS2Aqy-29" value="" style="edgeStyle=orthogonalEdgeStyle;shape=connector;rounded=0;jumpStyle=arc;orthogonalLoop=1;jettySize=auto;html=1;labelBackgroundColor=default;strokeColor=default;fontFamily=Helvetica;fontSize=11;fontColor=default;endArrow=classic;" edge="1" parent="1" source="PvCzHloH9g1gREgS2Aqy-18" target="PvCzHloH9g1gREgS2Aqy-28">
          <mxGeometry relative="1" as="geometry" />
        </mxCell>
        <mxCell id="PvCzHloH9g1gREgS2Aqy-30" value="Y" style="edgeLabel;html=1;align=center;verticalAlign=middle;resizable=0;points=[];fontSize=11;fontFamily=Helvetica;fontColor=default;" vertex="1" connectable="0" parent="PvCzHloH9g1gREgS2Aqy-29">
          <mxGeometry x="-0.33" y="1" relative="1" as="geometry">
            <mxPoint y="1" as="offset" />
          </mxGeometry>
        </mxCell>
      </root>
    </mxGraphModel>
  </diagram>
  <diagram id="Co1nbYosJedhSMO76ruW" name="DFD Level 2 Proses 1">
    <mxGraphModel dx="954" dy="484" grid="1" gridSize="10" guides="1" tooltips="1" connect="1" arrows="1" fold="1" page="1" pageScale="1" pageWidth="827" pageHeight="1169" math="0" shadow="0">
      <root>
        <mxCell id="0" />
        <mxCell id="1" parent="0" />
        <mxCell id="VFRWH2LRCSRbfw7yFHe8-1" style="edgeStyle=orthogonalEdgeStyle;rounded=0;orthogonalLoop=1;jettySize=auto;html=1;exitX=1;exitY=0.5;exitDx=0;exitDy=0;" edge="1" parent="1" source="VFRWH2LRCSRbfw7yFHe8-2">
          <mxGeometry relative="1" as="geometry">
            <mxPoint x="600" y="300" as="targetPoint" />
          </mxGeometry>
        </mxCell>
        <mxCell id="VFRWH2LRCSRbfw7yFHe8-2" value="1.1&lt;br&gt;Login Pegawai" style="ellipse;whiteSpace=wrap;html=1;aspect=fixed;" vertex="1" parent="1">
          <mxGeometry x="400" y="260" width="80" height="80" as="geometry" />
        </mxCell>
        <mxCell id="VFRWH2LRCSRbfw7yFHe8-3" style="edgeStyle=orthogonalEdgeStyle;rounded=0;orthogonalLoop=1;jettySize=auto;html=1;entryX=0;entryY=0.5;entryDx=0;entryDy=0;" edge="1" parent="1" source="VFRWH2LRCSRbfw7yFHe8-4" target="VFRWH2LRCSRbfw7yFHe8-2">
          <mxGeometry relative="1" as="geometry" />
        </mxCell>
        <mxCell id="VFRWH2LRCSRbfw7yFHe8-4" value="Admin" style="rounded=0;whiteSpace=wrap;html=1;" vertex="1" parent="1">
          <mxGeometry x="200" y="240" width="80" height="40" as="geometry" />
        </mxCell>
        <mxCell id="VFRWH2LRCSRbfw7yFHe8-5" value="" style="endArrow=none;html=1;rounded=0;" edge="1" parent="1">
          <mxGeometry width="50" height="50" relative="1" as="geometry">
            <mxPoint x="600" y="280" as="sourcePoint" />
            <mxPoint x="680" y="280" as="targetPoint" />
          </mxGeometry>
        </mxCell>
        <mxCell id="VFRWH2LRCSRbfw7yFHe8-6" value="" style="endArrow=none;html=1;rounded=0;" edge="1" parent="1">
          <mxGeometry width="50" height="50" relative="1" as="geometry">
            <mxPoint x="600" y="320" as="sourcePoint" />
            <mxPoint x="680" y="320" as="targetPoint" />
          </mxGeometry>
        </mxCell>
        <mxCell id="VFRWH2LRCSRbfw7yFHe8-7" value="pegawai" style="text;html=1;strokeColor=none;fillColor=none;align=center;verticalAlign=middle;whiteSpace=wrap;rounded=0;" vertex="1" parent="1">
          <mxGeometry x="610" y="285" width="60" height="30" as="geometry" />
        </mxCell>
        <mxCell id="VFRWH2LRCSRbfw7yFHe8-10" style="edgeStyle=orthogonalEdgeStyle;rounded=0;orthogonalLoop=1;jettySize=auto;html=1;entryX=0;entryY=0.5;entryDx=0;entryDy=0;" edge="1" parent="1" source="VFRWH2LRCSRbfw7yFHe8-11" target="VFRWH2LRCSRbfw7yFHe8-2">
          <mxGeometry relative="1" as="geometry" />
        </mxCell>
        <mxCell id="VFRWH2LRCSRbfw7yFHe8-11" value="Pegawai" style="rounded=0;whiteSpace=wrap;html=1;" vertex="1" parent="1">
          <mxGeometry x="200" y="320" width="80" height="40" as="geometry" />
        </mxCell>
        <mxCell id="VFRWH2LRCSRbfw7yFHe8-15" value="Data Login" style="text;html=1;strokeColor=none;fillColor=none;align=center;verticalAlign=middle;whiteSpace=wrap;rounded=0;fontSize=11;fontFamily=Helvetica;fontColor=default;" vertex="1" parent="1">
          <mxGeometry x="500" y="285" width="80" height="10" as="geometry" />
        </mxCell>
        <mxCell id="VFRWH2LRCSRbfw7yFHe8-16" value="Data Login" style="text;html=1;strokeColor=none;fillColor=none;align=center;verticalAlign=middle;whiteSpace=wrap;rounded=0;fontSize=11;fontFamily=Helvetica;fontColor=default;" vertex="1" parent="1">
          <mxGeometry x="340" y="270" width="80" height="10" as="geometry" />
        </mxCell>
      </root>
    </mxGraphModel>
  </diagram>
  <diagram id="EY-xThX27MY2fcWm-Viq" name="DFD Level 2 Proses 2">
    <mxGraphModel dx="867" dy="440" grid="1" gridSize="10" guides="1" tooltips="1" connect="1" arrows="1" fold="1" page="1" pageScale="1" pageWidth="827" pageHeight="1169" math="0" shadow="0">
      <root>
        <mxCell id="0" />
        <mxCell id="1" parent="0" />
        <mxCell id="FBtIcCHgsxC3Vn2YdjT2-1" style="edgeStyle=orthogonalEdgeStyle;rounded=0;orthogonalLoop=1;jettySize=auto;html=1;exitX=1;exitY=0.5;exitDx=0;exitDy=0;" edge="1" parent="1" source="FBtIcCHgsxC3Vn2YdjT2-2">
          <mxGeometry relative="1" as="geometry">
            <mxPoint x="720" y="360" as="targetPoint" />
          </mxGeometry>
        </mxCell>
        <mxCell id="FBtIcCHgsxC3Vn2YdjT2-2" value="2.1&lt;br&gt;Insert Data Pegawai" style="ellipse;whiteSpace=wrap;html=1;aspect=fixed;" vertex="1" parent="1">
          <mxGeometry x="485" y="140" width="70" height="70" as="geometry" />
        </mxCell>
        <mxCell id="FBtIcCHgsxC3Vn2YdjT2-3" style="edgeStyle=orthogonalEdgeStyle;rounded=0;orthogonalLoop=1;jettySize=auto;html=1;exitX=0.5;exitY=0;exitDx=0;exitDy=0;entryX=0;entryY=0.5;entryDx=0;entryDy=0;" edge="1" parent="1" source="FBtIcCHgsxC3Vn2YdjT2-6" target="FBtIcCHgsxC3Vn2YdjT2-2">
          <mxGeometry relative="1" as="geometry" />
        </mxCell>
        <mxCell id="FBtIcCHgsxC3Vn2YdjT2-4" style="edgeStyle=orthogonalEdgeStyle;rounded=0;orthogonalLoop=1;jettySize=auto;html=1;exitX=0.75;exitY=0;exitDx=0;exitDy=0;entryX=0;entryY=0.5;entryDx=0;entryDy=0;" edge="1" parent="1" source="FBtIcCHgsxC3Vn2YdjT2-6" target="FBtIcCHgsxC3Vn2YdjT2-8">
          <mxGeometry relative="1" as="geometry" />
        </mxCell>
        <mxCell id="FBtIcCHgsxC3Vn2YdjT2-5" style="edgeStyle=orthogonalEdgeStyle;rounded=0;orthogonalLoop=1;jettySize=auto;html=1;exitX=0.75;exitY=1;exitDx=0;exitDy=0;" edge="1" parent="1" source="FBtIcCHgsxC3Vn2YdjT2-6" target="FBtIcCHgsxC3Vn2YdjT2-10">
          <mxGeometry relative="1" as="geometry" />
        </mxCell>
        <mxCell id="FBtIcCHgsxC3Vn2YdjT2-6" value="Admin" style="rounded=0;whiteSpace=wrap;html=1;" vertex="1" parent="1">
          <mxGeometry x="280" y="360" width="80" height="40" as="geometry" />
        </mxCell>
        <mxCell id="FBtIcCHgsxC3Vn2YdjT2-7" style="edgeStyle=orthogonalEdgeStyle;rounded=0;orthogonalLoop=1;jettySize=auto;html=1;exitX=1;exitY=0.5;exitDx=0;exitDy=0;" edge="1" parent="1" source="FBtIcCHgsxC3Vn2YdjT2-8">
          <mxGeometry relative="1" as="geometry">
            <mxPoint x="700" y="360" as="targetPoint" />
          </mxGeometry>
        </mxCell>
        <mxCell id="FBtIcCHgsxC3Vn2YdjT2-8" value="2.2&lt;br&gt;Update Data Pegawai" style="ellipse;whiteSpace=wrap;html=1;aspect=fixed;" vertex="1" parent="1">
          <mxGeometry x="485" y="270" width="70" height="70" as="geometry" />
        </mxCell>
        <mxCell id="FBtIcCHgsxC3Vn2YdjT2-9" style="edgeStyle=orthogonalEdgeStyle;rounded=0;orthogonalLoop=1;jettySize=auto;html=1;" edge="1" parent="1" source="FBtIcCHgsxC3Vn2YdjT2-10">
          <mxGeometry relative="1" as="geometry">
            <mxPoint x="700" y="400" as="targetPoint" />
            <Array as="points">
              <mxPoint x="700" y="425" />
            </Array>
          </mxGeometry>
        </mxCell>
        <mxCell id="FBtIcCHgsxC3Vn2YdjT2-10" value="2.3&lt;br&gt;Delete Data Pegawai" style="ellipse;whiteSpace=wrap;html=1;aspect=fixed;" vertex="1" parent="1">
          <mxGeometry x="485" y="390" width="70" height="70" as="geometry" />
        </mxCell>
        <mxCell id="FBtIcCHgsxC3Vn2YdjT2-11" style="edgeStyle=orthogonalEdgeStyle;rounded=0;orthogonalLoop=1;jettySize=auto;html=1;entryX=0.5;entryY=1;entryDx=0;entryDy=0;" edge="1" parent="1" source="FBtIcCHgsxC3Vn2YdjT2-12" target="FBtIcCHgsxC3Vn2YdjT2-6">
          <mxGeometry relative="1" as="geometry" />
        </mxCell>
        <mxCell id="i1pWZtuTrEONuyXNz7id-3" style="edgeStyle=orthogonalEdgeStyle;shape=connector;rounded=0;jumpStyle=arc;orthogonalLoop=1;jettySize=auto;html=1;labelBackgroundColor=default;strokeColor=default;fontFamily=Helvetica;fontSize=11;fontColor=default;endArrow=classic;" edge="1" parent="1" source="FBtIcCHgsxC3Vn2YdjT2-12" target="i1pWZtuTrEONuyXNz7id-1">
          <mxGeometry relative="1" as="geometry">
            <Array as="points">
              <mxPoint x="520" y="600" />
              <mxPoint x="160" y="600" />
            </Array>
          </mxGeometry>
        </mxCell>
        <mxCell id="FBtIcCHgsxC3Vn2YdjT2-12" value="2.4&lt;br&gt;View Data Pegawai" style="ellipse;whiteSpace=wrap;html=1;aspect=fixed;" vertex="1" parent="1">
          <mxGeometry x="485" y="514.5" width="70" height="70" as="geometry" />
        </mxCell>
        <mxCell id="FBtIcCHgsxC3Vn2YdjT2-13" value="" style="endArrow=none;html=1;rounded=0;" edge="1" parent="1">
          <mxGeometry width="50" height="50" relative="1" as="geometry">
            <mxPoint x="680" y="360" as="sourcePoint" />
            <mxPoint x="760" y="360" as="targetPoint" />
          </mxGeometry>
        </mxCell>
        <mxCell id="FBtIcCHgsxC3Vn2YdjT2-14" value="" style="endArrow=none;html=1;rounded=0;" edge="1" parent="1">
          <mxGeometry width="50" height="50" relative="1" as="geometry">
            <mxPoint x="680" y="400" as="sourcePoint" />
            <mxPoint x="760" y="400" as="targetPoint" />
          </mxGeometry>
        </mxCell>
        <mxCell id="FBtIcCHgsxC3Vn2YdjT2-15" style="edgeStyle=orthogonalEdgeStyle;rounded=0;orthogonalLoop=1;jettySize=auto;html=1;entryX=1;entryY=0.5;entryDx=0;entryDy=0;" edge="1" parent="1" target="FBtIcCHgsxC3Vn2YdjT2-12">
          <mxGeometry relative="1" as="geometry">
            <mxPoint x="720" y="400" as="sourcePoint" />
            <Array as="points">
              <mxPoint x="720" y="550" />
              <mxPoint x="623" y="550" />
            </Array>
          </mxGeometry>
        </mxCell>
        <mxCell id="FBtIcCHgsxC3Vn2YdjT2-16" value="pegawai" style="text;html=1;strokeColor=none;fillColor=none;align=center;verticalAlign=middle;whiteSpace=wrap;rounded=0;" vertex="1" parent="1">
          <mxGeometry x="690" y="365" width="60" height="30" as="geometry" />
        </mxCell>
        <mxCell id="FBtIcCHgsxC3Vn2YdjT2-17" value="Data Pegawai" style="text;html=1;strokeColor=none;fillColor=none;align=center;verticalAlign=middle;whiteSpace=wrap;rounded=0;" vertex="1" parent="1">
          <mxGeometry x="380" y="140" width="60" height="30" as="geometry" />
        </mxCell>
        <mxCell id="FBtIcCHgsxC3Vn2YdjT2-18" value="Data Pegawai" style="text;html=1;strokeColor=none;fillColor=none;align=center;verticalAlign=middle;whiteSpace=wrap;rounded=0;" vertex="1" parent="1">
          <mxGeometry x="620" y="139" width="60" height="30" as="geometry" />
        </mxCell>
        <mxCell id="FBtIcCHgsxC3Vn2YdjT2-19" value="Data Pegawai" style="text;html=1;strokeColor=none;fillColor=none;align=center;verticalAlign=middle;whiteSpace=wrap;rounded=0;" vertex="1" parent="1">
          <mxGeometry x="380" y="274" width="60" height="30" as="geometry" />
        </mxCell>
        <mxCell id="FBtIcCHgsxC3Vn2YdjT2-20" value="Data Pegawai" style="text;html=1;strokeColor=none;fillColor=none;align=center;verticalAlign=middle;whiteSpace=wrap;rounded=0;" vertex="1" parent="1">
          <mxGeometry x="620" y="274" width="60" height="30" as="geometry" />
        </mxCell>
        <mxCell id="FBtIcCHgsxC3Vn2YdjT2-21" value="Data Pegawai" style="text;html=1;strokeColor=none;fillColor=none;align=center;verticalAlign=middle;whiteSpace=wrap;rounded=0;" vertex="1" parent="1">
          <mxGeometry x="380" y="394" width="60" height="30" as="geometry" />
        </mxCell>
        <mxCell id="FBtIcCHgsxC3Vn2YdjT2-22" value="Data Pegawai" style="text;html=1;strokeColor=none;fillColor=none;align=center;verticalAlign=middle;whiteSpace=wrap;rounded=0;" vertex="1" parent="1">
          <mxGeometry x="610" y="395" width="60" height="30" as="geometry" />
        </mxCell>
        <mxCell id="FBtIcCHgsxC3Vn2YdjT2-23" value="Data Pegawai" style="text;html=1;strokeColor=none;fillColor=none;align=center;verticalAlign=middle;whiteSpace=wrap;rounded=0;" vertex="1" parent="1">
          <mxGeometry x="610" y="519" width="60" height="30" as="geometry" />
        </mxCell>
        <mxCell id="FBtIcCHgsxC3Vn2YdjT2-24" value="Data Pegawai" style="text;html=1;strokeColor=none;fillColor=none;align=center;verticalAlign=middle;whiteSpace=wrap;rounded=0;" vertex="1" parent="1">
          <mxGeometry x="380" y="519.5" width="60" height="30" as="geometry" />
        </mxCell>
        <mxCell id="i1pWZtuTrEONuyXNz7id-2" style="edgeStyle=orthogonalEdgeStyle;shape=connector;rounded=0;jumpStyle=arc;orthogonalLoop=1;jettySize=auto;html=1;entryX=0.5;entryY=0;entryDx=0;entryDy=0;labelBackgroundColor=default;strokeColor=default;fontFamily=Helvetica;fontSize=11;fontColor=default;endArrow=classic;" edge="1" parent="1" source="i1pWZtuTrEONuyXNz7id-1" target="FBtIcCHgsxC3Vn2YdjT2-8">
          <mxGeometry relative="1" as="geometry">
            <Array as="points">
              <mxPoint x="160" y="250" />
              <mxPoint x="520" y="250" />
            </Array>
          </mxGeometry>
        </mxCell>
        <mxCell id="i1pWZtuTrEONuyXNz7id-1" value="Guru" style="rounded=0;whiteSpace=wrap;html=1;" vertex="1" parent="1">
          <mxGeometry x="120" y="355" width="80" height="40" as="geometry" />
        </mxCell>
        <mxCell id="i1pWZtuTrEONuyXNz7id-4" value="Data Pegawai" style="text;html=1;strokeColor=none;fillColor=none;align=center;verticalAlign=middle;whiteSpace=wrap;rounded=0;" vertex="1" parent="1">
          <mxGeometry x="360" y="210" width="60" height="30" as="geometry" />
        </mxCell>
        <mxCell id="i1pWZtuTrEONuyXNz7id-5" value="Data Pegawai" style="text;html=1;strokeColor=none;fillColor=none;align=center;verticalAlign=middle;whiteSpace=wrap;rounded=0;" vertex="1" parent="1">
          <mxGeometry x="250" y="560" width="60" height="30" as="geometry" />
        </mxCell>
      </root>
    </mxGraphModel>
  </diagram>
  <diagram id="3ZWexq1W1h6SX-PLWrNv" name="DFD Level 2 Proses 3">
    <mxGraphModel dx="830" dy="421" grid="1" gridSize="10" guides="1" tooltips="1" connect="1" arrows="1" fold="1" page="1" pageScale="1" pageWidth="827" pageHeight="1169" math="0" shadow="0">
      <root>
        <mxCell id="0" />
        <mxCell id="1" parent="0" />
        <mxCell id="w4OVlH0nEbDxsPz-RjRo-1" style="edgeStyle=orthogonalEdgeStyle;rounded=0;orthogonalLoop=1;jettySize=auto;html=1;exitX=1;exitY=0.5;exitDx=0;exitDy=0;" edge="1" parent="1" source="w4OVlH0nEbDxsPz-RjRo-2">
          <mxGeometry relative="1" as="geometry">
            <mxPoint x="560" y="360" as="targetPoint" />
          </mxGeometry>
        </mxCell>
        <mxCell id="w4OVlH0nEbDxsPz-RjRo-2" value="3.1&lt;br&gt;Insert Data Kelas" style="ellipse;whiteSpace=wrap;html=1;aspect=fixed;" vertex="1" parent="1">
          <mxGeometry x="325" y="140" width="70" height="70" as="geometry" />
        </mxCell>
        <mxCell id="w4OVlH0nEbDxsPz-RjRo-3" style="edgeStyle=orthogonalEdgeStyle;rounded=0;orthogonalLoop=1;jettySize=auto;html=1;exitX=0.5;exitY=0;exitDx=0;exitDy=0;entryX=0;entryY=0.5;entryDx=0;entryDy=0;" edge="1" parent="1" source="w4OVlH0nEbDxsPz-RjRo-6" target="w4OVlH0nEbDxsPz-RjRo-2">
          <mxGeometry relative="1" as="geometry" />
        </mxCell>
        <mxCell id="w4OVlH0nEbDxsPz-RjRo-4" style="edgeStyle=orthogonalEdgeStyle;rounded=0;orthogonalLoop=1;jettySize=auto;html=1;exitX=0.75;exitY=0;exitDx=0;exitDy=0;entryX=0;entryY=0.5;entryDx=0;entryDy=0;" edge="1" parent="1" source="w4OVlH0nEbDxsPz-RjRo-6" target="w4OVlH0nEbDxsPz-RjRo-8">
          <mxGeometry relative="1" as="geometry" />
        </mxCell>
        <mxCell id="w4OVlH0nEbDxsPz-RjRo-5" style="edgeStyle=orthogonalEdgeStyle;rounded=0;orthogonalLoop=1;jettySize=auto;html=1;exitX=0.75;exitY=1;exitDx=0;exitDy=0;" edge="1" parent="1" source="w4OVlH0nEbDxsPz-RjRo-6" target="w4OVlH0nEbDxsPz-RjRo-10">
          <mxGeometry relative="1" as="geometry" />
        </mxCell>
        <mxCell id="w4OVlH0nEbDxsPz-RjRo-6" value="Admin" style="rounded=0;whiteSpace=wrap;html=1;" vertex="1" parent="1">
          <mxGeometry x="120" y="360" width="80" height="40" as="geometry" />
        </mxCell>
        <mxCell id="w4OVlH0nEbDxsPz-RjRo-7" style="edgeStyle=orthogonalEdgeStyle;rounded=0;orthogonalLoop=1;jettySize=auto;html=1;exitX=1;exitY=0.5;exitDx=0;exitDy=0;" edge="1" parent="1" source="w4OVlH0nEbDxsPz-RjRo-8">
          <mxGeometry relative="1" as="geometry">
            <mxPoint x="540" y="360" as="targetPoint" />
          </mxGeometry>
        </mxCell>
        <mxCell id="w4OVlH0nEbDxsPz-RjRo-8" value="3.2&lt;br&gt;Update Data Kelas" style="ellipse;whiteSpace=wrap;html=1;aspect=fixed;" vertex="1" parent="1">
          <mxGeometry x="325" y="270" width="70" height="70" as="geometry" />
        </mxCell>
        <mxCell id="w4OVlH0nEbDxsPz-RjRo-9" style="edgeStyle=orthogonalEdgeStyle;rounded=0;orthogonalLoop=1;jettySize=auto;html=1;" edge="1" parent="1" source="w4OVlH0nEbDxsPz-RjRo-10">
          <mxGeometry relative="1" as="geometry">
            <mxPoint x="540" y="400" as="targetPoint" />
            <Array as="points">
              <mxPoint x="540" y="425" />
            </Array>
          </mxGeometry>
        </mxCell>
        <mxCell id="w4OVlH0nEbDxsPz-RjRo-10" value="3.3&lt;br&gt;Delete Data Kelas" style="ellipse;whiteSpace=wrap;html=1;aspect=fixed;" vertex="1" parent="1">
          <mxGeometry x="325" y="390" width="70" height="70" as="geometry" />
        </mxCell>
        <mxCell id="w4OVlH0nEbDxsPz-RjRo-11" style="edgeStyle=orthogonalEdgeStyle;rounded=0;orthogonalLoop=1;jettySize=auto;html=1;entryX=0.5;entryY=1;entryDx=0;entryDy=0;" edge="1" parent="1" source="w4OVlH0nEbDxsPz-RjRo-12" target="w4OVlH0nEbDxsPz-RjRo-6">
          <mxGeometry relative="1" as="geometry" />
        </mxCell>
        <mxCell id="w4OVlH0nEbDxsPz-RjRo-12" value="3.4&lt;br&gt;View Data Kelas" style="ellipse;whiteSpace=wrap;html=1;aspect=fixed;" vertex="1" parent="1">
          <mxGeometry x="325" y="514.5" width="70" height="70" as="geometry" />
        </mxCell>
        <mxCell id="w4OVlH0nEbDxsPz-RjRo-13" value="" style="endArrow=none;html=1;rounded=0;" edge="1" parent="1">
          <mxGeometry width="50" height="50" relative="1" as="geometry">
            <mxPoint x="520" y="360" as="sourcePoint" />
            <mxPoint x="600" y="360" as="targetPoint" />
          </mxGeometry>
        </mxCell>
        <mxCell id="w4OVlH0nEbDxsPz-RjRo-14" value="" style="endArrow=none;html=1;rounded=0;" edge="1" parent="1">
          <mxGeometry width="50" height="50" relative="1" as="geometry">
            <mxPoint x="520" y="400" as="sourcePoint" />
            <mxPoint x="600" y="400" as="targetPoint" />
          </mxGeometry>
        </mxCell>
        <mxCell id="w4OVlH0nEbDxsPz-RjRo-15" style="edgeStyle=orthogonalEdgeStyle;rounded=0;orthogonalLoop=1;jettySize=auto;html=1;entryX=1;entryY=0.5;entryDx=0;entryDy=0;" edge="1" parent="1" target="w4OVlH0nEbDxsPz-RjRo-12">
          <mxGeometry relative="1" as="geometry">
            <mxPoint x="560" y="400" as="sourcePoint" />
            <Array as="points">
              <mxPoint x="560" y="550" />
              <mxPoint x="463" y="550" />
            </Array>
          </mxGeometry>
        </mxCell>
        <mxCell id="w4OVlH0nEbDxsPz-RjRo-16" value="kelas" style="text;html=1;strokeColor=none;fillColor=none;align=center;verticalAlign=middle;whiteSpace=wrap;rounded=0;" vertex="1" parent="1">
          <mxGeometry x="530" y="365" width="60" height="30" as="geometry" />
        </mxCell>
        <mxCell id="w4OVlH0nEbDxsPz-RjRo-17" value="Data Kelas" style="text;html=1;strokeColor=none;fillColor=none;align=center;verticalAlign=middle;whiteSpace=wrap;rounded=0;" vertex="1" parent="1">
          <mxGeometry x="220" y="140" width="60" height="30" as="geometry" />
        </mxCell>
        <mxCell id="w4OVlH0nEbDxsPz-RjRo-18" value="Data Kelas" style="text;html=1;strokeColor=none;fillColor=none;align=center;verticalAlign=middle;whiteSpace=wrap;rounded=0;" vertex="1" parent="1">
          <mxGeometry x="460" y="139" width="60" height="30" as="geometry" />
        </mxCell>
        <mxCell id="w4OVlH0nEbDxsPz-RjRo-19" value="Data Kelas" style="text;html=1;strokeColor=none;fillColor=none;align=center;verticalAlign=middle;whiteSpace=wrap;rounded=0;" vertex="1" parent="1">
          <mxGeometry x="220" y="274" width="60" height="30" as="geometry" />
        </mxCell>
        <mxCell id="w4OVlH0nEbDxsPz-RjRo-20" value="Data Kelas" style="text;html=1;strokeColor=none;fillColor=none;align=center;verticalAlign=middle;whiteSpace=wrap;rounded=0;" vertex="1" parent="1">
          <mxGeometry x="460" y="274" width="60" height="30" as="geometry" />
        </mxCell>
        <mxCell id="w4OVlH0nEbDxsPz-RjRo-21" value="Data Kelas" style="text;html=1;strokeColor=none;fillColor=none;align=center;verticalAlign=middle;whiteSpace=wrap;rounded=0;" vertex="1" parent="1">
          <mxGeometry x="220" y="394" width="60" height="30" as="geometry" />
        </mxCell>
        <mxCell id="w4OVlH0nEbDxsPz-RjRo-22" value="Data Kelas" style="text;html=1;strokeColor=none;fillColor=none;align=center;verticalAlign=middle;whiteSpace=wrap;rounded=0;" vertex="1" parent="1">
          <mxGeometry x="450" y="395" width="60" height="30" as="geometry" />
        </mxCell>
        <mxCell id="w4OVlH0nEbDxsPz-RjRo-23" value="Data Kelas" style="text;html=1;strokeColor=none;fillColor=none;align=center;verticalAlign=middle;whiteSpace=wrap;rounded=0;" vertex="1" parent="1">
          <mxGeometry x="450" y="519" width="60" height="30" as="geometry" />
        </mxCell>
        <mxCell id="w4OVlH0nEbDxsPz-RjRo-24" value="Data Kelas" style="text;html=1;strokeColor=none;fillColor=none;align=center;verticalAlign=middle;whiteSpace=wrap;rounded=0;" vertex="1" parent="1">
          <mxGeometry x="220" y="519.5" width="60" height="30" as="geometry" />
        </mxCell>
      </root>
    </mxGraphModel>
  </diagram>
  <diagram id="AdC1BM6g7XgQfCNGDgg_" name="DFD Level 2 Proses 4">
    <mxGraphModel dx="954" dy="484" grid="1" gridSize="10" guides="1" tooltips="1" connect="1" arrows="1" fold="1" page="1" pageScale="1" pageWidth="827" pageHeight="1169" math="0" shadow="0">
      <root>
        <mxCell id="0" />
        <mxCell id="1" parent="0" />
        <mxCell id="RSYCTIy82NBn7OD3AAW9-1" style="edgeStyle=orthogonalEdgeStyle;rounded=0;orthogonalLoop=1;jettySize=auto;html=1;exitX=1;exitY=0.5;exitDx=0;exitDy=0;" edge="1" parent="1" source="RSYCTIy82NBn7OD3AAW9-2">
          <mxGeometry relative="1" as="geometry">
            <mxPoint x="560" y="360" as="targetPoint" />
          </mxGeometry>
        </mxCell>
        <mxCell id="RSYCTIy82NBn7OD3AAW9-2" value="4.1&lt;br&gt;Insert Data Mata Pelajaran" style="ellipse;whiteSpace=wrap;html=1;aspect=fixed;" vertex="1" parent="1">
          <mxGeometry x="325" y="140" width="70" height="70" as="geometry" />
        </mxCell>
        <mxCell id="RSYCTIy82NBn7OD3AAW9-3" style="edgeStyle=orthogonalEdgeStyle;rounded=0;orthogonalLoop=1;jettySize=auto;html=1;exitX=0.5;exitY=0;exitDx=0;exitDy=0;entryX=0;entryY=0.5;entryDx=0;entryDy=0;" edge="1" parent="1" source="RSYCTIy82NBn7OD3AAW9-6" target="RSYCTIy82NBn7OD3AAW9-2">
          <mxGeometry relative="1" as="geometry" />
        </mxCell>
        <mxCell id="RSYCTIy82NBn7OD3AAW9-4" style="edgeStyle=orthogonalEdgeStyle;rounded=0;orthogonalLoop=1;jettySize=auto;html=1;exitX=0.75;exitY=0;exitDx=0;exitDy=0;entryX=0;entryY=0.5;entryDx=0;entryDy=0;" edge="1" parent="1" source="RSYCTIy82NBn7OD3AAW9-6" target="RSYCTIy82NBn7OD3AAW9-8">
          <mxGeometry relative="1" as="geometry" />
        </mxCell>
        <mxCell id="RSYCTIy82NBn7OD3AAW9-5" style="edgeStyle=orthogonalEdgeStyle;rounded=0;orthogonalLoop=1;jettySize=auto;html=1;exitX=0.75;exitY=1;exitDx=0;exitDy=0;" edge="1" parent="1" source="RSYCTIy82NBn7OD3AAW9-6" target="RSYCTIy82NBn7OD3AAW9-10">
          <mxGeometry relative="1" as="geometry" />
        </mxCell>
        <mxCell id="RSYCTIy82NBn7OD3AAW9-6" value="Admin" style="rounded=0;whiteSpace=wrap;html=1;" vertex="1" parent="1">
          <mxGeometry x="120" y="360" width="80" height="40" as="geometry" />
        </mxCell>
        <mxCell id="RSYCTIy82NBn7OD3AAW9-7" style="edgeStyle=orthogonalEdgeStyle;rounded=0;orthogonalLoop=1;jettySize=auto;html=1;exitX=1;exitY=0.5;exitDx=0;exitDy=0;" edge="1" parent="1" source="RSYCTIy82NBn7OD3AAW9-8">
          <mxGeometry relative="1" as="geometry">
            <mxPoint x="540" y="360" as="targetPoint" />
          </mxGeometry>
        </mxCell>
        <mxCell id="RSYCTIy82NBn7OD3AAW9-8" value="4.2&lt;br&gt;Update Data Mata Pelajaran" style="ellipse;whiteSpace=wrap;html=1;aspect=fixed;" vertex="1" parent="1">
          <mxGeometry x="325" y="270" width="70" height="70" as="geometry" />
        </mxCell>
        <mxCell id="RSYCTIy82NBn7OD3AAW9-9" style="edgeStyle=orthogonalEdgeStyle;rounded=0;orthogonalLoop=1;jettySize=auto;html=1;" edge="1" parent="1" source="RSYCTIy82NBn7OD3AAW9-10">
          <mxGeometry relative="1" as="geometry">
            <mxPoint x="540" y="400" as="targetPoint" />
            <Array as="points">
              <mxPoint x="540" y="425" />
            </Array>
          </mxGeometry>
        </mxCell>
        <mxCell id="RSYCTIy82NBn7OD3AAW9-10" value="4.3&lt;br&gt;Delete Data Mata Pelajaran" style="ellipse;whiteSpace=wrap;html=1;aspect=fixed;" vertex="1" parent="1">
          <mxGeometry x="325" y="390" width="70" height="70" as="geometry" />
        </mxCell>
        <mxCell id="RSYCTIy82NBn7OD3AAW9-11" style="edgeStyle=orthogonalEdgeStyle;rounded=0;orthogonalLoop=1;jettySize=auto;html=1;entryX=0.5;entryY=1;entryDx=0;entryDy=0;" edge="1" parent="1" source="RSYCTIy82NBn7OD3AAW9-12" target="RSYCTIy82NBn7OD3AAW9-6">
          <mxGeometry relative="1" as="geometry" />
        </mxCell>
        <mxCell id="RSYCTIy82NBn7OD3AAW9-12" value="4.4&lt;br&gt;View Data Mata Pelajaran" style="ellipse;whiteSpace=wrap;html=1;aspect=fixed;" vertex="1" parent="1">
          <mxGeometry x="325" y="514.5" width="70" height="70" as="geometry" />
        </mxCell>
        <mxCell id="RSYCTIy82NBn7OD3AAW9-13" value="" style="endArrow=none;html=1;rounded=0;" edge="1" parent="1">
          <mxGeometry width="50" height="50" relative="1" as="geometry">
            <mxPoint x="520" y="360" as="sourcePoint" />
            <mxPoint x="600" y="360" as="targetPoint" />
          </mxGeometry>
        </mxCell>
        <mxCell id="RSYCTIy82NBn7OD3AAW9-14" value="" style="endArrow=none;html=1;rounded=0;" edge="1" parent="1">
          <mxGeometry width="50" height="50" relative="1" as="geometry">
            <mxPoint x="520" y="400" as="sourcePoint" />
            <mxPoint x="600" y="400" as="targetPoint" />
          </mxGeometry>
        </mxCell>
        <mxCell id="RSYCTIy82NBn7OD3AAW9-15" style="edgeStyle=orthogonalEdgeStyle;rounded=0;orthogonalLoop=1;jettySize=auto;html=1;entryX=1;entryY=0.5;entryDx=0;entryDy=0;" edge="1" parent="1" target="RSYCTIy82NBn7OD3AAW9-12">
          <mxGeometry relative="1" as="geometry">
            <mxPoint x="560" y="400" as="sourcePoint" />
            <Array as="points">
              <mxPoint x="560" y="550" />
              <mxPoint x="463" y="550" />
            </Array>
          </mxGeometry>
        </mxCell>
        <mxCell id="RSYCTIy82NBn7OD3AAW9-16" value="matapelajaran" style="text;html=1;strokeColor=none;fillColor=none;align=center;verticalAlign=middle;whiteSpace=wrap;rounded=0;" vertex="1" parent="1">
          <mxGeometry x="530" y="365" width="60" height="30" as="geometry" />
        </mxCell>
        <mxCell id="RSYCTIy82NBn7OD3AAW9-17" value="Data Mata Pelajaran" style="text;html=1;strokeColor=none;fillColor=none;align=center;verticalAlign=middle;whiteSpace=wrap;rounded=0;" vertex="1" parent="1">
          <mxGeometry x="200" y="140" width="80" height="30" as="geometry" />
        </mxCell>
        <mxCell id="RSYCTIy82NBn7OD3AAW9-18" value="Data Mata Pelajaran" style="text;html=1;strokeColor=none;fillColor=none;align=center;verticalAlign=middle;whiteSpace=wrap;rounded=0;" vertex="1" parent="1">
          <mxGeometry x="460" y="139" width="80" height="30" as="geometry" />
        </mxCell>
        <mxCell id="RSYCTIy82NBn7OD3AAW9-19" value="Data Mata Pelajaran" style="text;html=1;strokeColor=none;fillColor=none;align=center;verticalAlign=middle;whiteSpace=wrap;rounded=0;" vertex="1" parent="1">
          <mxGeometry x="200" y="274" width="80" height="30" as="geometry" />
        </mxCell>
        <mxCell id="RSYCTIy82NBn7OD3AAW9-20" value="Data Mata Pelajaran" style="text;html=1;strokeColor=none;fillColor=none;align=center;verticalAlign=middle;whiteSpace=wrap;rounded=0;" vertex="1" parent="1">
          <mxGeometry x="450" y="274" width="70" height="30" as="geometry" />
        </mxCell>
        <mxCell id="RSYCTIy82NBn7OD3AAW9-21" value="Data Mata Pelajaran" style="text;html=1;strokeColor=none;fillColor=none;align=center;verticalAlign=middle;whiteSpace=wrap;rounded=0;" vertex="1" parent="1">
          <mxGeometry x="220" y="394" width="70" height="30" as="geometry" />
        </mxCell>
        <mxCell id="RSYCTIy82NBn7OD3AAW9-22" value="Data Mata Pelajaran" style="text;html=1;strokeColor=none;fillColor=none;align=center;verticalAlign=middle;whiteSpace=wrap;rounded=0;" vertex="1" parent="1">
          <mxGeometry x="440" y="395" width="70" height="30" as="geometry" />
        </mxCell>
        <mxCell id="RSYCTIy82NBn7OD3AAW9-23" value="Data Mata Pelajaran" style="text;html=1;strokeColor=none;fillColor=none;align=center;verticalAlign=middle;whiteSpace=wrap;rounded=0;" vertex="1" parent="1">
          <mxGeometry x="450" y="519" width="70" height="30" as="geometry" />
        </mxCell>
        <mxCell id="RSYCTIy82NBn7OD3AAW9-24" value="Data Mata Pelajaran" style="text;html=1;strokeColor=none;fillColor=none;align=center;verticalAlign=middle;whiteSpace=wrap;rounded=0;" vertex="1" parent="1">
          <mxGeometry x="220" y="519.5" width="80" height="30" as="geometry" />
        </mxCell>
        <mxCell id="RSYCTIy82NBn7OD3AAW9-29" value="" style="endArrow=none;html=1;rounded=0;" edge="1" parent="1">
          <mxGeometry width="50" height="50" relative="1" as="geometry">
            <mxPoint x="400" y="39.5" as="sourcePoint" />
            <mxPoint x="480" y="39.5" as="targetPoint" />
          </mxGeometry>
        </mxCell>
        <mxCell id="RSYCTIy82NBn7OD3AAW9-30" value="" style="endArrow=none;html=1;rounded=0;" edge="1" parent="1">
          <mxGeometry width="50" height="50" relative="1" as="geometry">
            <mxPoint x="400" y="79.5" as="sourcePoint" />
            <mxPoint x="480" y="79.5" as="targetPoint" />
          </mxGeometry>
        </mxCell>
        <mxCell id="RSYCTIy82NBn7OD3AAW9-31" style="edgeStyle=orthogonalEdgeStyle;rounded=0;orthogonalLoop=1;jettySize=auto;html=1;" edge="1" parent="1" source="RSYCTIy82NBn7OD3AAW9-32" target="RSYCTIy82NBn7OD3AAW9-2">
          <mxGeometry relative="1" as="geometry" />
        </mxCell>
        <mxCell id="RSYCTIy82NBn7OD3AAW9-32" value="kelas" style="text;html=1;strokeColor=none;fillColor=none;align=center;verticalAlign=middle;whiteSpace=wrap;rounded=0;" vertex="1" parent="1">
          <mxGeometry x="410" y="44.5" width="60" height="30" as="geometry" />
        </mxCell>
        <mxCell id="RSYCTIy82NBn7OD3AAW9-33" value="Data Kelas" style="text;html=1;strokeColor=none;fillColor=none;align=center;verticalAlign=middle;whiteSpace=wrap;rounded=0;" vertex="1" parent="1">
          <mxGeometry x="270" y="60" width="80" height="30" as="geometry" />
        </mxCell>
      </root>
    </mxGraphModel>
  </diagram>
  <diagram id="nuXoCfaDqeYlLN3JULyp" name="DFD Level 2 Proses 5">
    <mxGraphModel dx="954" dy="484" grid="1" gridSize="10" guides="1" tooltips="1" connect="1" arrows="1" fold="1" page="1" pageScale="1" pageWidth="827" pageHeight="1169" math="0" shadow="0">
      <root>
        <mxCell id="0" />
        <mxCell id="1" parent="0" />
        <mxCell id="1g9dk-0L4TJz6jXSD8pd-1" style="edgeStyle=orthogonalEdgeStyle;rounded=0;orthogonalLoop=1;jettySize=auto;html=1;exitX=1;exitY=0.5;exitDx=0;exitDy=0;" edge="1" parent="1" source="1g9dk-0L4TJz6jXSD8pd-2">
          <mxGeometry relative="1" as="geometry">
            <mxPoint x="720" y="360" as="targetPoint" />
          </mxGeometry>
        </mxCell>
        <mxCell id="1g9dk-0L4TJz6jXSD8pd-2" value="5.1&lt;br&gt;Insert Data Mengajar" style="ellipse;whiteSpace=wrap;html=1;aspect=fixed;" vertex="1" parent="1">
          <mxGeometry x="485" y="140" width="70" height="70" as="geometry" />
        </mxCell>
        <mxCell id="1g9dk-0L4TJz6jXSD8pd-3" style="edgeStyle=orthogonalEdgeStyle;rounded=0;orthogonalLoop=1;jettySize=auto;html=1;exitX=0.5;exitY=0;exitDx=0;exitDy=0;entryX=0;entryY=0.5;entryDx=0;entryDy=0;" edge="1" parent="1" source="1g9dk-0L4TJz6jXSD8pd-6" target="1g9dk-0L4TJz6jXSD8pd-2">
          <mxGeometry relative="1" as="geometry" />
        </mxCell>
        <mxCell id="1g9dk-0L4TJz6jXSD8pd-4" style="edgeStyle=orthogonalEdgeStyle;rounded=0;orthogonalLoop=1;jettySize=auto;html=1;exitX=0.75;exitY=0;exitDx=0;exitDy=0;entryX=0;entryY=0.5;entryDx=0;entryDy=0;" edge="1" parent="1" source="1g9dk-0L4TJz6jXSD8pd-6" target="1g9dk-0L4TJz6jXSD8pd-8">
          <mxGeometry relative="1" as="geometry" />
        </mxCell>
        <mxCell id="1g9dk-0L4TJz6jXSD8pd-5" style="edgeStyle=orthogonalEdgeStyle;rounded=0;orthogonalLoop=1;jettySize=auto;html=1;exitX=0.75;exitY=1;exitDx=0;exitDy=0;" edge="1" parent="1" source="1g9dk-0L4TJz6jXSD8pd-6" target="1g9dk-0L4TJz6jXSD8pd-10">
          <mxGeometry relative="1" as="geometry" />
        </mxCell>
        <mxCell id="1g9dk-0L4TJz6jXSD8pd-6" value="Admin" style="rounded=0;whiteSpace=wrap;html=1;" vertex="1" parent="1">
          <mxGeometry x="320" y="360" width="80" height="40" as="geometry" />
        </mxCell>
        <mxCell id="1g9dk-0L4TJz6jXSD8pd-7" style="edgeStyle=orthogonalEdgeStyle;rounded=0;orthogonalLoop=1;jettySize=auto;html=1;exitX=1;exitY=0.5;exitDx=0;exitDy=0;" edge="1" parent="1" source="1g9dk-0L4TJz6jXSD8pd-8">
          <mxGeometry relative="1" as="geometry">
            <mxPoint x="700.0000000000002" y="360" as="targetPoint" />
          </mxGeometry>
        </mxCell>
        <mxCell id="1g9dk-0L4TJz6jXSD8pd-8" value="5.2&lt;br&gt;Update Data Mengajar" style="ellipse;whiteSpace=wrap;html=1;aspect=fixed;" vertex="1" parent="1">
          <mxGeometry x="485" y="270" width="70" height="70" as="geometry" />
        </mxCell>
        <mxCell id="1g9dk-0L4TJz6jXSD8pd-9" style="edgeStyle=orthogonalEdgeStyle;rounded=0;orthogonalLoop=1;jettySize=auto;html=1;" edge="1" parent="1" source="1g9dk-0L4TJz6jXSD8pd-10">
          <mxGeometry relative="1" as="geometry">
            <mxPoint x="700.0000000000002" y="400" as="targetPoint" />
            <Array as="points">
              <mxPoint x="700" y="425" />
            </Array>
          </mxGeometry>
        </mxCell>
        <mxCell id="1g9dk-0L4TJz6jXSD8pd-10" value="5.3&lt;br&gt;Delete Data Mengajar" style="ellipse;whiteSpace=wrap;html=1;aspect=fixed;" vertex="1" parent="1">
          <mxGeometry x="485" y="390" width="70" height="70" as="geometry" />
        </mxCell>
        <mxCell id="1g9dk-0L4TJz6jXSD8pd-11" style="edgeStyle=orthogonalEdgeStyle;rounded=0;orthogonalLoop=1;jettySize=auto;html=1;entryX=0.5;entryY=1;entryDx=0;entryDy=0;" edge="1" parent="1" source="1g9dk-0L4TJz6jXSD8pd-13" target="1g9dk-0L4TJz6jXSD8pd-6">
          <mxGeometry relative="1" as="geometry" />
        </mxCell>
        <mxCell id="1g9dk-0L4TJz6jXSD8pd-12" style="edgeStyle=orthogonalEdgeStyle;rounded=0;orthogonalLoop=1;jettySize=auto;html=1;exitX=0.5;exitY=1;exitDx=0;exitDy=0;" edge="1" parent="1" source="1g9dk-0L4TJz6jXSD8pd-13" target="1g9dk-0L4TJz6jXSD8pd-28">
          <mxGeometry relative="1" as="geometry" />
        </mxCell>
        <mxCell id="1g9dk-0L4TJz6jXSD8pd-13" value="5.4&lt;br&gt;View Data Mengajar" style="ellipse;whiteSpace=wrap;html=1;aspect=fixed;" vertex="1" parent="1">
          <mxGeometry x="485" y="514.5" width="70" height="70" as="geometry" />
        </mxCell>
        <mxCell id="1g9dk-0L4TJz6jXSD8pd-14" value="" style="endArrow=none;html=1;rounded=0;" edge="1" parent="1">
          <mxGeometry width="50" height="50" relative="1" as="geometry">
            <mxPoint x="680.0000000000002" y="360" as="sourcePoint" />
            <mxPoint x="760" y="360" as="targetPoint" />
          </mxGeometry>
        </mxCell>
        <mxCell id="1g9dk-0L4TJz6jXSD8pd-15" value="" style="endArrow=none;html=1;rounded=0;" edge="1" parent="1">
          <mxGeometry width="50" height="50" relative="1" as="geometry">
            <mxPoint x="680.0000000000002" y="400" as="sourcePoint" />
            <mxPoint x="760" y="400" as="targetPoint" />
          </mxGeometry>
        </mxCell>
        <mxCell id="1g9dk-0L4TJz6jXSD8pd-16" style="edgeStyle=orthogonalEdgeStyle;rounded=0;orthogonalLoop=1;jettySize=auto;html=1;entryX=1;entryY=0.5;entryDx=0;entryDy=0;" edge="1" parent="1" target="1g9dk-0L4TJz6jXSD8pd-13">
          <mxGeometry relative="1" as="geometry">
            <mxPoint x="720" y="400" as="sourcePoint" />
            <Array as="points">
              <mxPoint x="720" y="550" />
              <mxPoint x="623" y="550" />
            </Array>
          </mxGeometry>
        </mxCell>
        <mxCell id="1g9dk-0L4TJz6jXSD8pd-17" value="mengajar" style="text;html=1;strokeColor=none;fillColor=none;align=center;verticalAlign=middle;whiteSpace=wrap;rounded=0;" vertex="1" parent="1">
          <mxGeometry x="690" y="365" width="60" height="30" as="geometry" />
        </mxCell>
        <mxCell id="1g9dk-0L4TJz6jXSD8pd-18" value="Data Mengajar" style="text;html=1;strokeColor=none;fillColor=none;align=center;verticalAlign=middle;whiteSpace=wrap;rounded=0;" vertex="1" parent="1">
          <mxGeometry x="360" y="140" width="80" height="30" as="geometry" />
        </mxCell>
        <mxCell id="1g9dk-0L4TJz6jXSD8pd-19" value="Data Mengajar" style="text;html=1;strokeColor=none;fillColor=none;align=center;verticalAlign=middle;whiteSpace=wrap;rounded=0;" vertex="1" parent="1">
          <mxGeometry x="380" y="274" width="80" height="30" as="geometry" />
        </mxCell>
        <mxCell id="1g9dk-0L4TJz6jXSD8pd-20" value="Data Mengajar" style="text;html=1;strokeColor=none;fillColor=none;align=center;verticalAlign=middle;whiteSpace=wrap;rounded=0;" vertex="1" parent="1">
          <mxGeometry x="600" y="274" width="80" height="30" as="geometry" />
        </mxCell>
        <mxCell id="1g9dk-0L4TJz6jXSD8pd-21" value="Data Mengajar" style="text;html=1;strokeColor=none;fillColor=none;align=center;verticalAlign=middle;whiteSpace=wrap;rounded=0;" vertex="1" parent="1">
          <mxGeometry x="403" y="390" width="80" height="30" as="geometry" />
        </mxCell>
        <mxCell id="1g9dk-0L4TJz6jXSD8pd-22" value="Data Mengajar" style="text;html=1;strokeColor=none;fillColor=none;align=center;verticalAlign=middle;whiteSpace=wrap;rounded=0;" vertex="1" parent="1">
          <mxGeometry x="590" y="395" width="80" height="30" as="geometry" />
        </mxCell>
        <mxCell id="1g9dk-0L4TJz6jXSD8pd-23" value="Data Mengajar" style="text;html=1;strokeColor=none;fillColor=none;align=center;verticalAlign=middle;whiteSpace=wrap;rounded=0;" vertex="1" parent="1">
          <mxGeometry x="610" y="519" width="80" height="30" as="geometry" />
        </mxCell>
        <mxCell id="1g9dk-0L4TJz6jXSD8pd-24" value="Data Mengajar" style="text;html=1;strokeColor=none;fillColor=none;align=center;verticalAlign=middle;whiteSpace=wrap;rounded=0;" vertex="1" parent="1">
          <mxGeometry x="380" y="519.5" width="90" height="30" as="geometry" />
        </mxCell>
        <mxCell id="1g9dk-0L4TJz6jXSD8pd-25" style="edgeStyle=orthogonalEdgeStyle;rounded=0;orthogonalLoop=1;jettySize=auto;html=1;exitX=0.75;exitY=0;exitDx=0;exitDy=0;entryX=0.5;entryY=0;entryDx=0;entryDy=0;jumpSize=10;jumpStyle=arc;" edge="1" parent="1" source="1g9dk-0L4TJz6jXSD8pd-28" target="1g9dk-0L4TJz6jXSD8pd-8">
          <mxGeometry relative="1" as="geometry" />
        </mxCell>
        <mxCell id="1g9dk-0L4TJz6jXSD8pd-28" value="Pegawai" style="rounded=0;whiteSpace=wrap;html=1;" vertex="1" parent="1">
          <mxGeometry x="160" y="360" width="80" height="40" as="geometry" />
        </mxCell>
        <mxCell id="1g9dk-0L4TJz6jXSD8pd-29" value="Data Mengajar" style="text;html=1;strokeColor=none;fillColor=none;align=center;verticalAlign=middle;whiteSpace=wrap;rounded=0;" vertex="1" parent="1">
          <mxGeometry x="240" y="212" width="80" height="30" as="geometry" />
        </mxCell>
        <mxCell id="1g9dk-0L4TJz6jXSD8pd-31" value="Data Mengajar" style="text;html=1;strokeColor=none;fillColor=none;align=center;verticalAlign=middle;whiteSpace=wrap;rounded=0;" vertex="1" parent="1">
          <mxGeometry x="250" y="569" width="80" height="30" as="geometry" />
        </mxCell>
        <mxCell id="1g9dk-0L4TJz6jXSD8pd-32" value="" style="endArrow=none;html=1;rounded=0;" edge="1" parent="1">
          <mxGeometry width="50" height="50" relative="1" as="geometry">
            <mxPoint x="720.0000000000002" y="38.22999999999993" as="sourcePoint" />
            <mxPoint x="800" y="38.22999999999993" as="targetPoint" />
          </mxGeometry>
        </mxCell>
        <mxCell id="1g9dk-0L4TJz6jXSD8pd-33" value="" style="endArrow=none;html=1;rounded=0;" edge="1" parent="1">
          <mxGeometry width="50" height="50" relative="1" as="geometry">
            <mxPoint x="720.0000000000002" y="78.22999999999993" as="sourcePoint" />
            <mxPoint x="800" y="78.22999999999993" as="targetPoint" />
          </mxGeometry>
        </mxCell>
        <mxCell id="1g9dk-0L4TJz6jXSD8pd-34" style="edgeStyle=orthogonalEdgeStyle;rounded=0;jumpStyle=arc;jumpSize=10;orthogonalLoop=1;jettySize=auto;html=1;entryX=1;entryY=1;entryDx=0;entryDy=0;" edge="1" parent="1" source="1g9dk-0L4TJz6jXSD8pd-35" target="1g9dk-0L4TJz6jXSD8pd-2">
          <mxGeometry relative="1" as="geometry">
            <Array as="points">
              <mxPoint x="760" y="200" />
            </Array>
          </mxGeometry>
        </mxCell>
        <mxCell id="1g9dk-0L4TJz6jXSD8pd-35" value="pegawai" style="text;html=1;strokeColor=none;fillColor=none;align=center;verticalAlign=middle;whiteSpace=wrap;rounded=0;" vertex="1" parent="1">
          <mxGeometry x="730" y="43.22999999999999" width="60" height="30" as="geometry" />
        </mxCell>
        <mxCell id="1g9dk-0L4TJz6jXSD8pd-36" value="Data Pegawai" style="text;html=1;strokeColor=none;fillColor=none;align=center;verticalAlign=middle;whiteSpace=wrap;rounded=0;" vertex="1" parent="1">
          <mxGeometry x="760" y="130" width="60" height="30" as="geometry" />
        </mxCell>
        <mxCell id="1g9dk-0L4TJz6jXSD8pd-37" value="Data Mengajar" style="text;html=1;strokeColor=none;fillColor=none;align=center;verticalAlign=middle;whiteSpace=wrap;rounded=0;" vertex="1" parent="1">
          <mxGeometry x="590" y="140" width="80" height="30" as="geometry" />
        </mxCell>
        <mxCell id="1g9dk-0L4TJz6jXSD8pd-39" value="" style="endArrow=none;html=1;rounded=0;" edge="1" parent="1">
          <mxGeometry width="50" height="50" relative="1" as="geometry">
            <mxPoint x="560.0000000000002" y="37.72999999999993" as="sourcePoint" />
            <mxPoint x="640" y="37.72999999999993" as="targetPoint" />
          </mxGeometry>
        </mxCell>
        <mxCell id="1g9dk-0L4TJz6jXSD8pd-40" value="" style="endArrow=none;html=1;rounded=0;" edge="1" parent="1">
          <mxGeometry width="50" height="50" relative="1" as="geometry">
            <mxPoint x="560.0000000000002" y="77.72999999999993" as="sourcePoint" />
            <mxPoint x="640" y="77.72999999999993" as="targetPoint" />
          </mxGeometry>
        </mxCell>
        <mxCell id="1g9dk-0L4TJz6jXSD8pd-42" style="edgeStyle=orthogonalEdgeStyle;shape=connector;rounded=0;jumpStyle=arc;orthogonalLoop=1;jettySize=auto;html=1;labelBackgroundColor=default;strokeColor=default;fontFamily=Helvetica;fontSize=11;fontColor=default;endArrow=classic;" edge="1" parent="1" target="1g9dk-0L4TJz6jXSD8pd-2">
          <mxGeometry relative="1" as="geometry">
            <mxPoint x="550" y="58" as="sourcePoint" />
            <Array as="points">
              <mxPoint x="551" y="58" />
              <mxPoint x="551" y="60" />
              <mxPoint x="520" y="60" />
            </Array>
          </mxGeometry>
        </mxCell>
        <mxCell id="1g9dk-0L4TJz6jXSD8pd-41" value="matapelajaran" style="text;html=1;strokeColor=none;fillColor=none;align=center;verticalAlign=middle;whiteSpace=wrap;rounded=0;" vertex="1" parent="1">
          <mxGeometry x="570" y="42.72999999999999" width="60" height="30" as="geometry" />
        </mxCell>
        <mxCell id="1g9dk-0L4TJz6jXSD8pd-43" value="Data Mata Pelajaran" style="text;html=1;strokeColor=none;fillColor=none;align=center;verticalAlign=middle;whiteSpace=wrap;rounded=0;" vertex="1" parent="1">
          <mxGeometry x="430" y="73.23" width="80" height="30" as="geometry" />
        </mxCell>
      </root>
    </mxGraphModel>
  </diagram>
  <diagram id="yeUm3PtSFJ9ywYRrNO7D" name="DFD Level 2 Proses 6">
    <mxGraphModel dx="954" dy="484" grid="1" gridSize="10" guides="1" tooltips="1" connect="1" arrows="1" fold="1" page="1" pageScale="1" pageWidth="827" pageHeight="1169" math="0" shadow="0">
      <root>
        <mxCell id="0" />
        <mxCell id="1" parent="0" />
        <mxCell id="--2-VYZCeFZ-OcfxFcVY-30" style="edgeStyle=orthogonalEdgeStyle;rounded=0;orthogonalLoop=1;jettySize=auto;html=1;exitX=1;exitY=0.5;exitDx=0;exitDy=0;" edge="1" parent="1" source="--2-VYZCeFZ-OcfxFcVY-31">
          <mxGeometry relative="1" as="geometry">
            <mxPoint x="730" y="370" as="targetPoint" />
          </mxGeometry>
        </mxCell>
        <mxCell id="--2-VYZCeFZ-OcfxFcVY-31" value="6.1&lt;br&gt;Insert Data Siswa" style="ellipse;whiteSpace=wrap;html=1;aspect=fixed;" vertex="1" parent="1">
          <mxGeometry x="495" y="150" width="70" height="70" as="geometry" />
        </mxCell>
        <mxCell id="--2-VYZCeFZ-OcfxFcVY-32" style="edgeStyle=orthogonalEdgeStyle;rounded=0;orthogonalLoop=1;jettySize=auto;html=1;exitX=0.5;exitY=0;exitDx=0;exitDy=0;entryX=0;entryY=0.5;entryDx=0;entryDy=0;" edge="1" parent="1" source="--2-VYZCeFZ-OcfxFcVY-35" target="--2-VYZCeFZ-OcfxFcVY-31">
          <mxGeometry relative="1" as="geometry" />
        </mxCell>
        <mxCell id="--2-VYZCeFZ-OcfxFcVY-33" style="edgeStyle=orthogonalEdgeStyle;rounded=0;orthogonalLoop=1;jettySize=auto;html=1;exitX=0.75;exitY=0;exitDx=0;exitDy=0;entryX=0;entryY=0.5;entryDx=0;entryDy=0;" edge="1" parent="1" source="--2-VYZCeFZ-OcfxFcVY-35" target="--2-VYZCeFZ-OcfxFcVY-37">
          <mxGeometry relative="1" as="geometry" />
        </mxCell>
        <mxCell id="--2-VYZCeFZ-OcfxFcVY-34" style="edgeStyle=orthogonalEdgeStyle;rounded=0;orthogonalLoop=1;jettySize=auto;html=1;exitX=0.75;exitY=1;exitDx=0;exitDy=0;" edge="1" parent="1" source="--2-VYZCeFZ-OcfxFcVY-35" target="--2-VYZCeFZ-OcfxFcVY-39">
          <mxGeometry relative="1" as="geometry" />
        </mxCell>
        <mxCell id="--2-VYZCeFZ-OcfxFcVY-35" value="Admin" style="rounded=0;whiteSpace=wrap;html=1;" vertex="1" parent="1">
          <mxGeometry x="290" y="370" width="80" height="40" as="geometry" />
        </mxCell>
        <mxCell id="--2-VYZCeFZ-OcfxFcVY-36" style="edgeStyle=orthogonalEdgeStyle;rounded=0;orthogonalLoop=1;jettySize=auto;html=1;exitX=1;exitY=0.5;exitDx=0;exitDy=0;" edge="1" parent="1" source="--2-VYZCeFZ-OcfxFcVY-37">
          <mxGeometry relative="1" as="geometry">
            <mxPoint x="710" y="370" as="targetPoint" />
          </mxGeometry>
        </mxCell>
        <mxCell id="--2-VYZCeFZ-OcfxFcVY-37" value="6.2&lt;br&gt;Update Data Siswa" style="ellipse;whiteSpace=wrap;html=1;aspect=fixed;" vertex="1" parent="1">
          <mxGeometry x="495" y="280" width="70" height="70" as="geometry" />
        </mxCell>
        <mxCell id="--2-VYZCeFZ-OcfxFcVY-38" style="edgeStyle=orthogonalEdgeStyle;rounded=0;orthogonalLoop=1;jettySize=auto;html=1;" edge="1" parent="1" source="--2-VYZCeFZ-OcfxFcVY-39">
          <mxGeometry relative="1" as="geometry">
            <mxPoint x="710" y="410" as="targetPoint" />
            <Array as="points">
              <mxPoint x="710" y="435" />
            </Array>
          </mxGeometry>
        </mxCell>
        <mxCell id="--2-VYZCeFZ-OcfxFcVY-39" value="6.3&lt;br&gt;Delete Data Siswa" style="ellipse;whiteSpace=wrap;html=1;aspect=fixed;" vertex="1" parent="1">
          <mxGeometry x="495" y="400" width="70" height="70" as="geometry" />
        </mxCell>
        <mxCell id="--2-VYZCeFZ-OcfxFcVY-40" style="edgeStyle=orthogonalEdgeStyle;rounded=0;orthogonalLoop=1;jettySize=auto;html=1;entryX=0.5;entryY=1;entryDx=0;entryDy=0;" edge="1" parent="1" source="--2-VYZCeFZ-OcfxFcVY-42" target="--2-VYZCeFZ-OcfxFcVY-35">
          <mxGeometry relative="1" as="geometry" />
        </mxCell>
        <mxCell id="--2-VYZCeFZ-OcfxFcVY-41" style="edgeStyle=orthogonalEdgeStyle;shape=connector;rounded=0;jumpStyle=arc;orthogonalLoop=1;jettySize=auto;html=1;labelBackgroundColor=default;strokeColor=default;fontFamily=Helvetica;fontSize=11;fontColor=default;endArrow=classic;" edge="1" parent="1" source="--2-VYZCeFZ-OcfxFcVY-42" target="--2-VYZCeFZ-OcfxFcVY-56">
          <mxGeometry relative="1" as="geometry">
            <Array as="points">
              <mxPoint x="530" y="610" />
              <mxPoint x="170" y="610" />
            </Array>
          </mxGeometry>
        </mxCell>
        <mxCell id="--2-VYZCeFZ-OcfxFcVY-42" value="6.4&lt;br&gt;View Data Siswa" style="ellipse;whiteSpace=wrap;html=1;aspect=fixed;" vertex="1" parent="1">
          <mxGeometry x="495" y="524.5" width="70" height="70" as="geometry" />
        </mxCell>
        <mxCell id="--2-VYZCeFZ-OcfxFcVY-43" value="" style="endArrow=none;html=1;rounded=0;" edge="1" parent="1">
          <mxGeometry width="50" height="50" relative="1" as="geometry">
            <mxPoint x="690" y="370" as="sourcePoint" />
            <mxPoint x="770" y="370" as="targetPoint" />
          </mxGeometry>
        </mxCell>
        <mxCell id="--2-VYZCeFZ-OcfxFcVY-44" value="" style="endArrow=none;html=1;rounded=0;" edge="1" parent="1">
          <mxGeometry width="50" height="50" relative="1" as="geometry">
            <mxPoint x="690" y="410" as="sourcePoint" />
            <mxPoint x="770" y="410" as="targetPoint" />
          </mxGeometry>
        </mxCell>
        <mxCell id="--2-VYZCeFZ-OcfxFcVY-45" style="edgeStyle=orthogonalEdgeStyle;rounded=0;orthogonalLoop=1;jettySize=auto;html=1;entryX=1;entryY=0.5;entryDx=0;entryDy=0;" edge="1" parent="1" target="--2-VYZCeFZ-OcfxFcVY-42">
          <mxGeometry relative="1" as="geometry">
            <mxPoint x="730" y="410" as="sourcePoint" />
            <Array as="points">
              <mxPoint x="730" y="560" />
              <mxPoint x="633" y="560" />
            </Array>
          </mxGeometry>
        </mxCell>
        <mxCell id="--2-VYZCeFZ-OcfxFcVY-46" value="siswa" style="text;html=1;strokeColor=none;fillColor=none;align=center;verticalAlign=middle;whiteSpace=wrap;rounded=0;" vertex="1" parent="1">
          <mxGeometry x="700" y="375" width="60" height="30" as="geometry" />
        </mxCell>
        <mxCell id="--2-VYZCeFZ-OcfxFcVY-47" value="Data Siswa" style="text;html=1;strokeColor=none;fillColor=none;align=center;verticalAlign=middle;whiteSpace=wrap;rounded=0;" vertex="1" parent="1">
          <mxGeometry x="390" y="150" width="60" height="30" as="geometry" />
        </mxCell>
        <mxCell id="--2-VYZCeFZ-OcfxFcVY-48" value="&lt;meta charset=&quot;utf-8&quot;&gt;&lt;span style=&quot;color: rgb(0, 0, 0); font-family: Helvetica; font-size: 12px; font-style: normal; font-variant-ligatures: normal; font-variant-caps: normal; font-weight: 400; letter-spacing: normal; orphans: 2; text-align: center; text-indent: 0px; text-transform: none; widows: 2; word-spacing: 0px; -webkit-text-stroke-width: 0px; background-color: rgb(251, 251, 251); text-decoration-thickness: initial; text-decoration-style: initial; text-decoration-color: initial; float: none; display: inline !important;&quot;&gt;Data Siswa&lt;/span&gt;" style="text;html=1;strokeColor=none;fillColor=none;align=center;verticalAlign=middle;whiteSpace=wrap;rounded=0;" vertex="1" parent="1">
          <mxGeometry x="630" y="149" width="60" height="30" as="geometry" />
        </mxCell>
        <mxCell id="--2-VYZCeFZ-OcfxFcVY-49" value="Data Siswa" style="text;html=1;strokeColor=none;fillColor=none;align=center;verticalAlign=middle;whiteSpace=wrap;rounded=0;" vertex="1" parent="1">
          <mxGeometry x="390" y="284" width="60" height="30" as="geometry" />
        </mxCell>
        <mxCell id="--2-VYZCeFZ-OcfxFcVY-50" value="Data Siswa" style="text;html=1;strokeColor=none;fillColor=none;align=center;verticalAlign=middle;whiteSpace=wrap;rounded=0;" vertex="1" parent="1">
          <mxGeometry x="630" y="284" width="60" height="30" as="geometry" />
        </mxCell>
        <mxCell id="--2-VYZCeFZ-OcfxFcVY-51" value="Data Siswa" style="text;html=1;strokeColor=none;fillColor=none;align=center;verticalAlign=middle;whiteSpace=wrap;rounded=0;" vertex="1" parent="1">
          <mxGeometry x="390" y="404" width="60" height="30" as="geometry" />
        </mxCell>
        <mxCell id="--2-VYZCeFZ-OcfxFcVY-52" value="&lt;meta charset=&quot;utf-8&quot;&gt;&lt;span style=&quot;color: rgb(0, 0, 0); font-family: Helvetica; font-size: 12px; font-style: normal; font-variant-ligatures: normal; font-variant-caps: normal; font-weight: 400; letter-spacing: normal; orphans: 2; text-align: center; text-indent: 0px; text-transform: none; widows: 2; word-spacing: 0px; -webkit-text-stroke-width: 0px; background-color: rgb(251, 251, 251); text-decoration-thickness: initial; text-decoration-style: initial; text-decoration-color: initial; float: none; display: inline !important;&quot;&gt;Data Siswa&lt;/span&gt;" style="text;html=1;strokeColor=none;fillColor=none;align=center;verticalAlign=middle;whiteSpace=wrap;rounded=0;" vertex="1" parent="1">
          <mxGeometry x="620" y="405" width="60" height="30" as="geometry" />
        </mxCell>
        <mxCell id="--2-VYZCeFZ-OcfxFcVY-53" value="Data Siswa" style="text;html=1;strokeColor=none;fillColor=none;align=center;verticalAlign=middle;whiteSpace=wrap;rounded=0;" vertex="1" parent="1">
          <mxGeometry x="620" y="529" width="60" height="30" as="geometry" />
        </mxCell>
        <mxCell id="--2-VYZCeFZ-OcfxFcVY-54" value="Data Siswa" style="text;html=1;strokeColor=none;fillColor=none;align=center;verticalAlign=middle;whiteSpace=wrap;rounded=0;" vertex="1" parent="1">
          <mxGeometry x="390" y="529.5" width="60" height="30" as="geometry" />
        </mxCell>
        <mxCell id="--2-VYZCeFZ-OcfxFcVY-55" style="edgeStyle=orthogonalEdgeStyle;shape=connector;rounded=0;jumpStyle=arc;orthogonalLoop=1;jettySize=auto;html=1;entryX=0.5;entryY=0;entryDx=0;entryDy=0;labelBackgroundColor=default;strokeColor=default;fontFamily=Helvetica;fontSize=11;fontColor=default;endArrow=classic;" edge="1" parent="1" source="--2-VYZCeFZ-OcfxFcVY-56" target="--2-VYZCeFZ-OcfxFcVY-37">
          <mxGeometry relative="1" as="geometry">
            <Array as="points">
              <mxPoint x="170" y="260" />
              <mxPoint x="530" y="260" />
            </Array>
          </mxGeometry>
        </mxCell>
        <mxCell id="--2-VYZCeFZ-OcfxFcVY-56" value="Siswa" style="rounded=0;whiteSpace=wrap;html=1;" vertex="1" parent="1">
          <mxGeometry x="130" y="365" width="80" height="40" as="geometry" />
        </mxCell>
        <mxCell id="--2-VYZCeFZ-OcfxFcVY-57" value="Data Siswa" style="text;html=1;strokeColor=none;fillColor=none;align=center;verticalAlign=middle;whiteSpace=wrap;rounded=0;" vertex="1" parent="1">
          <mxGeometry x="370" y="220" width="60" height="30" as="geometry" />
        </mxCell>
        <mxCell id="--2-VYZCeFZ-OcfxFcVY-58" value="&lt;meta charset=&quot;utf-8&quot;&gt;&lt;span style=&quot;color: rgb(0, 0, 0); font-family: Helvetica; font-size: 12px; font-style: normal; font-variant-ligatures: normal; font-variant-caps: normal; font-weight: 400; letter-spacing: normal; orphans: 2; text-align: center; text-indent: 0px; text-transform: none; widows: 2; word-spacing: 0px; -webkit-text-stroke-width: 0px; background-color: rgb(251, 251, 251); text-decoration-thickness: initial; text-decoration-style: initial; text-decoration-color: initial; float: none; display: inline !important;&quot;&gt;Data Siswa&lt;/span&gt;" style="text;html=1;strokeColor=none;fillColor=none;align=center;verticalAlign=middle;whiteSpace=wrap;rounded=0;" vertex="1" parent="1">
          <mxGeometry x="260" y="570" width="60" height="30" as="geometry" />
        </mxCell>
      </root>
    </mxGraphModel>
  </diagram>
  <diagram id="UAAQ2gTL2_wzzs1yApib" name="DFD Level 2 Proses 7">
    <mxGraphModel dx="1363" dy="691" grid="1" gridSize="10" guides="1" tooltips="1" connect="1" arrows="1" fold="1" page="1" pageScale="1" pageWidth="827" pageHeight="1169" math="0" shadow="0">
      <root>
        <mxCell id="0" />
        <mxCell id="1" parent="0" />
        <mxCell id="q3sig2sAXiDGby_-eGIC-1" style="edgeStyle=orthogonalEdgeStyle;rounded=0;orthogonalLoop=1;jettySize=auto;html=1;exitX=1;exitY=0.5;exitDx=0;exitDy=0;" edge="1" parent="1" source="q3sig2sAXiDGby_-eGIC-2">
          <mxGeometry relative="1" as="geometry">
            <mxPoint x="720" y="360" as="targetPoint" />
          </mxGeometry>
        </mxCell>
        <mxCell id="q3sig2sAXiDGby_-eGIC-2" value="7.1&lt;br&gt;Insert Data Belajar" style="ellipse;whiteSpace=wrap;html=1;aspect=fixed;" vertex="1" parent="1">
          <mxGeometry x="485" y="140" width="70" height="70" as="geometry" />
        </mxCell>
        <mxCell id="q3sig2sAXiDGby_-eGIC-3" style="edgeStyle=orthogonalEdgeStyle;rounded=0;orthogonalLoop=1;jettySize=auto;html=1;exitX=0.5;exitY=0;exitDx=0;exitDy=0;entryX=0;entryY=0.5;entryDx=0;entryDy=0;" edge="1" parent="1" source="q3sig2sAXiDGby_-eGIC-6" target="q3sig2sAXiDGby_-eGIC-2">
          <mxGeometry relative="1" as="geometry" />
        </mxCell>
        <mxCell id="q3sig2sAXiDGby_-eGIC-4" style="edgeStyle=orthogonalEdgeStyle;rounded=0;orthogonalLoop=1;jettySize=auto;html=1;exitX=0.75;exitY=0;exitDx=0;exitDy=0;entryX=0;entryY=0.5;entryDx=0;entryDy=0;" edge="1" parent="1" source="q3sig2sAXiDGby_-eGIC-6" target="q3sig2sAXiDGby_-eGIC-8">
          <mxGeometry relative="1" as="geometry" />
        </mxCell>
        <mxCell id="q3sig2sAXiDGby_-eGIC-5" style="edgeStyle=orthogonalEdgeStyle;rounded=0;orthogonalLoop=1;jettySize=auto;html=1;exitX=0.75;exitY=1;exitDx=0;exitDy=0;" edge="1" parent="1" source="q3sig2sAXiDGby_-eGIC-6" target="q3sig2sAXiDGby_-eGIC-10">
          <mxGeometry relative="1" as="geometry" />
        </mxCell>
        <mxCell id="q3sig2sAXiDGby_-eGIC-6" value="Admin" style="rounded=0;whiteSpace=wrap;html=1;" vertex="1" parent="1">
          <mxGeometry x="320" y="360" width="80" height="40" as="geometry" />
        </mxCell>
        <mxCell id="q3sig2sAXiDGby_-eGIC-7" style="edgeStyle=orthogonalEdgeStyle;rounded=0;orthogonalLoop=1;jettySize=auto;html=1;exitX=1;exitY=0.5;exitDx=0;exitDy=0;" edge="1" parent="1" source="q3sig2sAXiDGby_-eGIC-8">
          <mxGeometry relative="1" as="geometry">
            <mxPoint x="700.0000000000002" y="360" as="targetPoint" />
          </mxGeometry>
        </mxCell>
        <mxCell id="q3sig2sAXiDGby_-eGIC-8" value="7.2&lt;br&gt;Update Data Belajar" style="ellipse;whiteSpace=wrap;html=1;aspect=fixed;" vertex="1" parent="1">
          <mxGeometry x="485" y="270" width="70" height="70" as="geometry" />
        </mxCell>
        <mxCell id="q3sig2sAXiDGby_-eGIC-9" style="edgeStyle=orthogonalEdgeStyle;rounded=0;orthogonalLoop=1;jettySize=auto;html=1;" edge="1" parent="1" source="q3sig2sAXiDGby_-eGIC-10">
          <mxGeometry relative="1" as="geometry">
            <mxPoint x="700.0000000000002" y="400" as="targetPoint" />
            <Array as="points">
              <mxPoint x="700" y="425" />
            </Array>
          </mxGeometry>
        </mxCell>
        <mxCell id="q3sig2sAXiDGby_-eGIC-10" value="7.3&lt;br&gt;Delete Data Belajar" style="ellipse;whiteSpace=wrap;html=1;aspect=fixed;" vertex="1" parent="1">
          <mxGeometry x="485" y="390" width="70" height="70" as="geometry" />
        </mxCell>
        <mxCell id="q3sig2sAXiDGby_-eGIC-11" style="edgeStyle=orthogonalEdgeStyle;rounded=0;orthogonalLoop=1;jettySize=auto;html=1;entryX=0.5;entryY=1;entryDx=0;entryDy=0;" edge="1" parent="1" source="q3sig2sAXiDGby_-eGIC-13" target="q3sig2sAXiDGby_-eGIC-6">
          <mxGeometry relative="1" as="geometry" />
        </mxCell>
        <mxCell id="q3sig2sAXiDGby_-eGIC-12" style="edgeStyle=orthogonalEdgeStyle;rounded=0;orthogonalLoop=1;jettySize=auto;html=1;exitX=0.5;exitY=1;exitDx=0;exitDy=0;" edge="1" parent="1" source="q3sig2sAXiDGby_-eGIC-13" target="q3sig2sAXiDGby_-eGIC-26">
          <mxGeometry relative="1" as="geometry" />
        </mxCell>
        <mxCell id="q3sig2sAXiDGby_-eGIC-13" value="7.4&lt;br&gt;View Data Belajar" style="ellipse;whiteSpace=wrap;html=1;aspect=fixed;" vertex="1" parent="1">
          <mxGeometry x="485" y="514.5" width="70" height="70" as="geometry" />
        </mxCell>
        <mxCell id="q3sig2sAXiDGby_-eGIC-14" value="" style="endArrow=none;html=1;rounded=0;" edge="1" parent="1">
          <mxGeometry width="50" height="50" relative="1" as="geometry">
            <mxPoint x="680.0000000000002" y="360" as="sourcePoint" />
            <mxPoint x="760" y="360" as="targetPoint" />
          </mxGeometry>
        </mxCell>
        <mxCell id="q3sig2sAXiDGby_-eGIC-15" value="" style="endArrow=none;html=1;rounded=0;" edge="1" parent="1">
          <mxGeometry width="50" height="50" relative="1" as="geometry">
            <mxPoint x="680.0000000000002" y="400" as="sourcePoint" />
            <mxPoint x="760" y="400" as="targetPoint" />
          </mxGeometry>
        </mxCell>
        <mxCell id="q3sig2sAXiDGby_-eGIC-16" style="edgeStyle=orthogonalEdgeStyle;rounded=0;orthogonalLoop=1;jettySize=auto;html=1;entryX=1;entryY=0.5;entryDx=0;entryDy=0;" edge="1" parent="1" target="q3sig2sAXiDGby_-eGIC-13">
          <mxGeometry relative="1" as="geometry">
            <mxPoint x="720" y="400" as="sourcePoint" />
            <Array as="points">
              <mxPoint x="720" y="550" />
              <mxPoint x="623" y="550" />
            </Array>
          </mxGeometry>
        </mxCell>
        <mxCell id="q3sig2sAXiDGby_-eGIC-17" value="belajar" style="text;html=1;strokeColor=none;fillColor=none;align=center;verticalAlign=middle;whiteSpace=wrap;rounded=0;" vertex="1" parent="1">
          <mxGeometry x="690" y="365" width="60" height="30" as="geometry" />
        </mxCell>
        <mxCell id="q3sig2sAXiDGby_-eGIC-18" value="&lt;meta charset=&quot;utf-8&quot;&gt;&lt;span style=&quot;color: rgb(0, 0, 0); font-family: Helvetica; font-size: 12px; font-style: normal; font-variant-ligatures: normal; font-variant-caps: normal; font-weight: 400; letter-spacing: normal; orphans: 2; text-align: center; text-indent: 0px; text-transform: none; widows: 2; word-spacing: 0px; -webkit-text-stroke-width: 0px; background-color: rgb(251, 251, 251); text-decoration-thickness: initial; text-decoration-style: initial; text-decoration-color: initial; float: none; display: inline !important;&quot;&gt;Data Belajar&lt;/span&gt;" style="text;html=1;strokeColor=none;fillColor=none;align=center;verticalAlign=middle;whiteSpace=wrap;rounded=0;" vertex="1" parent="1">
          <mxGeometry x="360" y="140" width="80" height="30" as="geometry" />
        </mxCell>
        <mxCell id="q3sig2sAXiDGby_-eGIC-19" value="&lt;meta charset=&quot;utf-8&quot;&gt;&lt;span style=&quot;color: rgb(0, 0, 0); font-family: Helvetica; font-size: 12px; font-style: normal; font-variant-ligatures: normal; font-variant-caps: normal; font-weight: 400; letter-spacing: normal; orphans: 2; text-align: center; text-indent: 0px; text-transform: none; widows: 2; word-spacing: 0px; -webkit-text-stroke-width: 0px; background-color: rgb(251, 251, 251); text-decoration-thickness: initial; text-decoration-style: initial; text-decoration-color: initial; float: none; display: inline !important;&quot;&gt;Data Belajar&lt;/span&gt;" style="text;html=1;strokeColor=none;fillColor=none;align=center;verticalAlign=middle;whiteSpace=wrap;rounded=0;" vertex="1" parent="1">
          <mxGeometry x="380" y="274" width="80" height="30" as="geometry" />
        </mxCell>
        <mxCell id="q3sig2sAXiDGby_-eGIC-20" value="&lt;meta charset=&quot;utf-8&quot;&gt;&lt;span style=&quot;color: rgb(0, 0, 0); font-family: Helvetica; font-size: 12px; font-style: normal; font-variant-ligatures: normal; font-variant-caps: normal; font-weight: 400; letter-spacing: normal; orphans: 2; text-align: center; text-indent: 0px; text-transform: none; widows: 2; word-spacing: 0px; -webkit-text-stroke-width: 0px; background-color: rgb(251, 251, 251); text-decoration-thickness: initial; text-decoration-style: initial; text-decoration-color: initial; float: none; display: inline !important;&quot;&gt;Data Belajar&lt;/span&gt;" style="text;html=1;strokeColor=none;fillColor=none;align=center;verticalAlign=middle;whiteSpace=wrap;rounded=0;" vertex="1" parent="1">
          <mxGeometry x="600" y="274" width="80" height="30" as="geometry" />
        </mxCell>
        <mxCell id="q3sig2sAXiDGby_-eGIC-21" value="&lt;meta charset=&quot;utf-8&quot;&gt;&lt;span style=&quot;color: rgb(0, 0, 0); font-family: Helvetica; font-size: 12px; font-style: normal; font-variant-ligatures: normal; font-variant-caps: normal; font-weight: 400; letter-spacing: normal; orphans: 2; text-align: center; text-indent: 0px; text-transform: none; widows: 2; word-spacing: 0px; -webkit-text-stroke-width: 0px; background-color: rgb(251, 251, 251); text-decoration-thickness: initial; text-decoration-style: initial; text-decoration-color: initial; float: none; display: inline !important;&quot;&gt;Data Belajar&lt;/span&gt;" style="text;html=1;strokeColor=none;fillColor=none;align=center;verticalAlign=middle;whiteSpace=wrap;rounded=0;" vertex="1" parent="1">
          <mxGeometry x="403" y="390" width="80" height="30" as="geometry" />
        </mxCell>
        <mxCell id="q3sig2sAXiDGby_-eGIC-22" value="&lt;meta charset=&quot;utf-8&quot;&gt;&lt;span style=&quot;color: rgb(0, 0, 0); font-family: Helvetica; font-size: 12px; font-style: normal; font-variant-ligatures: normal; font-variant-caps: normal; font-weight: 400; letter-spacing: normal; orphans: 2; text-align: center; text-indent: 0px; text-transform: none; widows: 2; word-spacing: 0px; -webkit-text-stroke-width: 0px; background-color: rgb(251, 251, 251); text-decoration-thickness: initial; text-decoration-style: initial; text-decoration-color: initial; float: none; display: inline !important;&quot;&gt;Data Belajar&lt;/span&gt;" style="text;html=1;strokeColor=none;fillColor=none;align=center;verticalAlign=middle;whiteSpace=wrap;rounded=0;" vertex="1" parent="1">
          <mxGeometry x="590" y="395" width="80" height="30" as="geometry" />
        </mxCell>
        <mxCell id="q3sig2sAXiDGby_-eGIC-23" value="&lt;meta charset=&quot;utf-8&quot;&gt;&lt;span style=&quot;color: rgb(0, 0, 0); font-family: Helvetica; font-size: 12px; font-style: normal; font-variant-ligatures: normal; font-variant-caps: normal; font-weight: 400; letter-spacing: normal; orphans: 2; text-align: center; text-indent: 0px; text-transform: none; widows: 2; word-spacing: 0px; -webkit-text-stroke-width: 0px; background-color: rgb(251, 251, 251); text-decoration-thickness: initial; text-decoration-style: initial; text-decoration-color: initial; float: none; display: inline !important;&quot;&gt;Data Belajar&lt;/span&gt;" style="text;html=1;strokeColor=none;fillColor=none;align=center;verticalAlign=middle;whiteSpace=wrap;rounded=0;" vertex="1" parent="1">
          <mxGeometry x="610" y="519" width="80" height="30" as="geometry" />
        </mxCell>
        <mxCell id="q3sig2sAXiDGby_-eGIC-24" value="&lt;meta charset=&quot;utf-8&quot;&gt;&lt;span style=&quot;color: rgb(0, 0, 0); font-family: Helvetica; font-size: 12px; font-style: normal; font-variant-ligatures: normal; font-variant-caps: normal; font-weight: 400; letter-spacing: normal; orphans: 2; text-align: center; text-indent: 0px; text-transform: none; widows: 2; word-spacing: 0px; -webkit-text-stroke-width: 0px; background-color: rgb(251, 251, 251); text-decoration-thickness: initial; text-decoration-style: initial; text-decoration-color: initial; float: none; display: inline !important;&quot;&gt;Data Belajar&lt;/span&gt;" style="text;html=1;strokeColor=none;fillColor=none;align=center;verticalAlign=middle;whiteSpace=wrap;rounded=0;" vertex="1" parent="1">
          <mxGeometry x="380" y="519.5" width="90" height="30" as="geometry" />
        </mxCell>
        <mxCell id="q3sig2sAXiDGby_-eGIC-25" style="edgeStyle=orthogonalEdgeStyle;rounded=0;orthogonalLoop=1;jettySize=auto;html=1;exitX=0.75;exitY=0;exitDx=0;exitDy=0;entryX=0.5;entryY=0;entryDx=0;entryDy=0;jumpSize=10;jumpStyle=arc;" edge="1" parent="1" source="q3sig2sAXiDGby_-eGIC-26" target="q3sig2sAXiDGby_-eGIC-8">
          <mxGeometry relative="1" as="geometry" />
        </mxCell>
        <mxCell id="q3sig2sAXiDGby_-eGIC-26" value="Pegawai" style="rounded=0;whiteSpace=wrap;html=1;" vertex="1" parent="1">
          <mxGeometry x="160" y="360" width="80" height="40" as="geometry" />
        </mxCell>
        <mxCell id="q3sig2sAXiDGby_-eGIC-27" value="&lt;meta charset=&quot;utf-8&quot;&gt;&lt;span style=&quot;color: rgb(0, 0, 0); font-family: Helvetica; font-size: 12px; font-style: normal; font-variant-ligatures: normal; font-variant-caps: normal; font-weight: 400; letter-spacing: normal; orphans: 2; text-align: center; text-indent: 0px; text-transform: none; widows: 2; word-spacing: 0px; -webkit-text-stroke-width: 0px; background-color: rgb(251, 251, 251); text-decoration-thickness: initial; text-decoration-style: initial; text-decoration-color: initial; float: none; display: inline !important;&quot;&gt;Data Belajar&lt;/span&gt;" style="text;html=1;strokeColor=none;fillColor=none;align=center;verticalAlign=middle;whiteSpace=wrap;rounded=0;" vertex="1" parent="1">
          <mxGeometry x="240" y="212" width="80" height="30" as="geometry" />
        </mxCell>
        <mxCell id="q3sig2sAXiDGby_-eGIC-28" value="&lt;meta charset=&quot;utf-8&quot;&gt;&lt;span style=&quot;color: rgb(0, 0, 0); font-family: Helvetica; font-size: 12px; font-style: normal; font-variant-ligatures: normal; font-variant-caps: normal; font-weight: 400; letter-spacing: normal; orphans: 2; text-align: center; text-indent: 0px; text-transform: none; widows: 2; word-spacing: 0px; -webkit-text-stroke-width: 0px; background-color: rgb(251, 251, 251); text-decoration-thickness: initial; text-decoration-style: initial; text-decoration-color: initial; float: none; display: inline !important;&quot;&gt;Data Belajar&lt;/span&gt;" style="text;html=1;strokeColor=none;fillColor=none;align=center;verticalAlign=middle;whiteSpace=wrap;rounded=0;" vertex="1" parent="1">
          <mxGeometry x="250" y="569" width="80" height="30" as="geometry" />
        </mxCell>
        <mxCell id="q3sig2sAXiDGby_-eGIC-29" value="" style="endArrow=none;html=1;rounded=0;" edge="1" parent="1">
          <mxGeometry width="50" height="50" relative="1" as="geometry">
            <mxPoint x="720.0000000000002" y="38.22999999999993" as="sourcePoint" />
            <mxPoint x="800" y="38.22999999999993" as="targetPoint" />
          </mxGeometry>
        </mxCell>
        <mxCell id="q3sig2sAXiDGby_-eGIC-30" value="" style="endArrow=none;html=1;rounded=0;" edge="1" parent="1">
          <mxGeometry width="50" height="50" relative="1" as="geometry">
            <mxPoint x="720.0000000000002" y="78.22999999999993" as="sourcePoint" />
            <mxPoint x="800" y="78.22999999999993" as="targetPoint" />
          </mxGeometry>
        </mxCell>
        <mxCell id="q3sig2sAXiDGby_-eGIC-31" style="edgeStyle=orthogonalEdgeStyle;rounded=0;jumpStyle=arc;jumpSize=10;orthogonalLoop=1;jettySize=auto;html=1;entryX=1;entryY=1;entryDx=0;entryDy=0;" edge="1" parent="1" source="q3sig2sAXiDGby_-eGIC-32" target="q3sig2sAXiDGby_-eGIC-2">
          <mxGeometry relative="1" as="geometry">
            <Array as="points">
              <mxPoint x="760" y="200" />
            </Array>
          </mxGeometry>
        </mxCell>
        <mxCell id="q3sig2sAXiDGby_-eGIC-32" value="siswa" style="text;html=1;strokeColor=none;fillColor=none;align=center;verticalAlign=middle;whiteSpace=wrap;rounded=0;" vertex="1" parent="1">
          <mxGeometry x="730" y="43.22999999999999" width="60" height="30" as="geometry" />
        </mxCell>
        <mxCell id="q3sig2sAXiDGby_-eGIC-33" value="Data Siswa" style="text;html=1;strokeColor=none;fillColor=none;align=center;verticalAlign=middle;whiteSpace=wrap;rounded=0;" vertex="1" parent="1">
          <mxGeometry x="760" y="130" width="60" height="30" as="geometry" />
        </mxCell>
        <mxCell id="q3sig2sAXiDGby_-eGIC-34" value="&lt;meta charset=&quot;utf-8&quot;&gt;&lt;span style=&quot;color: rgb(0, 0, 0); font-family: Helvetica; font-size: 12px; font-style: normal; font-variant-ligatures: normal; font-variant-caps: normal; font-weight: 400; letter-spacing: normal; orphans: 2; text-align: center; text-indent: 0px; text-transform: none; widows: 2; word-spacing: 0px; -webkit-text-stroke-width: 0px; background-color: rgb(251, 251, 251); text-decoration-thickness: initial; text-decoration-style: initial; text-decoration-color: initial; float: none; display: inline !important;&quot;&gt;Data Belajar&lt;/span&gt;" style="text;html=1;strokeColor=none;fillColor=none;align=center;verticalAlign=middle;whiteSpace=wrap;rounded=0;" vertex="1" parent="1">
          <mxGeometry x="590" y="140" width="80" height="30" as="geometry" />
        </mxCell>
        <mxCell id="q3sig2sAXiDGby_-eGIC-35" value="" style="endArrow=none;html=1;rounded=0;" edge="1" parent="1">
          <mxGeometry width="50" height="50" relative="1" as="geometry">
            <mxPoint x="560.0000000000002" y="37.72999999999993" as="sourcePoint" />
            <mxPoint x="640" y="37.72999999999993" as="targetPoint" />
          </mxGeometry>
        </mxCell>
        <mxCell id="q3sig2sAXiDGby_-eGIC-36" value="" style="endArrow=none;html=1;rounded=0;" edge="1" parent="1">
          <mxGeometry width="50" height="50" relative="1" as="geometry">
            <mxPoint x="560.0000000000002" y="77.72999999999993" as="sourcePoint" />
            <mxPoint x="640" y="77.72999999999993" as="targetPoint" />
          </mxGeometry>
        </mxCell>
        <mxCell id="q3sig2sAXiDGby_-eGIC-37" style="edgeStyle=orthogonalEdgeStyle;shape=connector;rounded=0;jumpStyle=arc;orthogonalLoop=1;jettySize=auto;html=1;labelBackgroundColor=default;strokeColor=default;fontFamily=Helvetica;fontSize=11;fontColor=default;endArrow=classic;" edge="1" parent="1" target="q3sig2sAXiDGby_-eGIC-2">
          <mxGeometry relative="1" as="geometry">
            <mxPoint x="550" y="58" as="sourcePoint" />
            <Array as="points">
              <mxPoint x="551" y="58" />
              <mxPoint x="551" y="60" />
              <mxPoint x="520" y="60" />
            </Array>
          </mxGeometry>
        </mxCell>
        <mxCell id="q3sig2sAXiDGby_-eGIC-38" value="matapelajaran" style="text;html=1;strokeColor=none;fillColor=none;align=center;verticalAlign=middle;whiteSpace=wrap;rounded=0;" vertex="1" parent="1">
          <mxGeometry x="570" y="42.72999999999999" width="60" height="30" as="geometry" />
        </mxCell>
        <mxCell id="q3sig2sAXiDGby_-eGIC-39" value="Data Mata Pelajaran" style="text;html=1;strokeColor=none;fillColor=none;align=center;verticalAlign=middle;whiteSpace=wrap;rounded=0;" vertex="1" parent="1">
          <mxGeometry x="430" y="73.23" width="80" height="30" as="geometry" />
        </mxCell>
      </root>
    </mxGraphModel>
  </diagram>
  <diagram id="l4mzD6ujFk3N9dQzsgJp" name="DFD Level 2 Proses 8">
    <mxGraphModel dx="954" dy="484" grid="1" gridSize="10" guides="1" tooltips="1" connect="1" arrows="1" fold="1" page="1" pageScale="1" pageWidth="827" pageHeight="1169" math="0" shadow="0">
      <root>
        <mxCell id="0" />
        <mxCell id="1" parent="0" />
        <mxCell id="2s0EuTv5KRWfUOIjikql-1" style="edgeStyle=orthogonalEdgeStyle;rounded=0;orthogonalLoop=1;jettySize=auto;html=1;exitX=1;exitY=0.5;exitDx=0;exitDy=0;" edge="1" parent="1" source="2s0EuTv5KRWfUOIjikql-2">
          <mxGeometry relative="1" as="geometry">
            <mxPoint x="600" y="300" as="targetPoint" />
          </mxGeometry>
        </mxCell>
        <mxCell id="2s0EuTv5KRWfUOIjikql-2" value="8.1&lt;br&gt;Login Siswa" style="ellipse;whiteSpace=wrap;html=1;aspect=fixed;" vertex="1" parent="1">
          <mxGeometry x="400" y="260" width="80" height="80" as="geometry" />
        </mxCell>
        <mxCell id="2s0EuTv5KRWfUOIjikql-3" style="edgeStyle=orthogonalEdgeStyle;rounded=0;orthogonalLoop=1;jettySize=auto;html=1;entryX=0;entryY=0.5;entryDx=0;entryDy=0;" edge="1" parent="1" source="2s0EuTv5KRWfUOIjikql-4" target="2s0EuTv5KRWfUOIjikql-2">
          <mxGeometry relative="1" as="geometry" />
        </mxCell>
        <mxCell id="2s0EuTv5KRWfUOIjikql-4" value="Siswa" style="rounded=0;whiteSpace=wrap;html=1;" vertex="1" parent="1">
          <mxGeometry x="200" y="280" width="80" height="40" as="geometry" />
        </mxCell>
        <mxCell id="2s0EuTv5KRWfUOIjikql-5" value="" style="endArrow=none;html=1;rounded=0;" edge="1" parent="1">
          <mxGeometry width="50" height="50" relative="1" as="geometry">
            <mxPoint x="600" y="280" as="sourcePoint" />
            <mxPoint x="680" y="280" as="targetPoint" />
          </mxGeometry>
        </mxCell>
        <mxCell id="2s0EuTv5KRWfUOIjikql-6" value="" style="endArrow=none;html=1;rounded=0;" edge="1" parent="1">
          <mxGeometry width="50" height="50" relative="1" as="geometry">
            <mxPoint x="600" y="320" as="sourcePoint" />
            <mxPoint x="680" y="320" as="targetPoint" />
          </mxGeometry>
        </mxCell>
        <mxCell id="2s0EuTv5KRWfUOIjikql-7" value="siswa" style="text;html=1;strokeColor=none;fillColor=none;align=center;verticalAlign=middle;whiteSpace=wrap;rounded=0;" vertex="1" parent="1">
          <mxGeometry x="610" y="285" width="60" height="30" as="geometry" />
        </mxCell>
        <mxCell id="2s0EuTv5KRWfUOIjikql-10" value="Data Login" style="text;html=1;strokeColor=none;fillColor=none;align=center;verticalAlign=middle;whiteSpace=wrap;rounded=0;fontSize=11;fontFamily=Helvetica;fontColor=default;" vertex="1" parent="1">
          <mxGeometry x="500" y="285" width="80" height="10" as="geometry" />
        </mxCell>
        <mxCell id="2s0EuTv5KRWfUOIjikql-11" value="Data Login" style="text;html=1;strokeColor=none;fillColor=none;align=center;verticalAlign=middle;whiteSpace=wrap;rounded=0;fontSize=11;fontFamily=Helvetica;fontColor=default;" vertex="1" parent="1">
          <mxGeometry x="300" y="285" width="80" height="10" as="geometry" />
        </mxCell>
      </root>
    </mxGraphModel>
  </diagram>
  <diagram id="8OpmAgzi5UoMNCRBswDp" name="DFD Level 2 Proses 9">
    <mxGraphModel dx="954" dy="484" grid="1" gridSize="10" guides="1" tooltips="1" connect="1" arrows="1" fold="1" page="1" pageScale="1" pageWidth="827" pageHeight="1169" math="0" shadow="0">
      <root>
        <mxCell id="0" />
        <mxCell id="1" parent="0" />
        <mxCell id="tBtmjGCtTsWFD9wrgiHR-1" style="edgeStyle=orthogonalEdgeStyle;rounded=0;orthogonalLoop=1;jettySize=auto;html=1;exitX=1;exitY=0.5;exitDx=0;exitDy=0;" edge="1" parent="1" source="tBtmjGCtTsWFD9wrgiHR-2">
          <mxGeometry relative="1" as="geometry">
            <mxPoint x="720" y="360" as="targetPoint" />
          </mxGeometry>
        </mxCell>
        <mxCell id="tBtmjGCtTsWFD9wrgiHR-2" value="9.1&lt;br&gt;Insert Data Belajar" style="ellipse;whiteSpace=wrap;html=1;aspect=fixed;" vertex="1" parent="1">
          <mxGeometry x="485" y="140" width="70" height="70" as="geometry" />
        </mxCell>
        <mxCell id="tBtmjGCtTsWFD9wrgiHR-3" style="edgeStyle=orthogonalEdgeStyle;rounded=0;orthogonalLoop=1;jettySize=auto;html=1;exitX=0.5;exitY=0;exitDx=0;exitDy=0;entryX=0;entryY=0.5;entryDx=0;entryDy=0;" edge="1" parent="1" source="tBtmjGCtTsWFD9wrgiHR-6" target="tBtmjGCtTsWFD9wrgiHR-2">
          <mxGeometry relative="1" as="geometry" />
        </mxCell>
        <mxCell id="tBtmjGCtTsWFD9wrgiHR-6" value="Siswa" style="rounded=0;whiteSpace=wrap;html=1;" vertex="1" parent="1">
          <mxGeometry x="320" y="360" width="80" height="40" as="geometry" />
        </mxCell>
        <mxCell id="tBtmjGCtTsWFD9wrgiHR-7" style="edgeStyle=orthogonalEdgeStyle;rounded=0;orthogonalLoop=1;jettySize=auto;html=1;exitX=1;exitY=0.5;exitDx=0;exitDy=0;" edge="1" parent="1" source="tBtmjGCtTsWFD9wrgiHR-8">
          <mxGeometry relative="1" as="geometry">
            <mxPoint x="700.0000000000002" y="360" as="targetPoint" />
          </mxGeometry>
        </mxCell>
        <mxCell id="tBtmjGCtTsWFD9wrgiHR-8" value="9.2&lt;br&gt;Update Data Belajar" style="ellipse;whiteSpace=wrap;html=1;aspect=fixed;" vertex="1" parent="1">
          <mxGeometry x="485" y="270" width="70" height="70" as="geometry" />
        </mxCell>
        <mxCell id="tBtmjGCtTsWFD9wrgiHR-11" style="edgeStyle=orthogonalEdgeStyle;rounded=0;orthogonalLoop=1;jettySize=auto;html=1;entryX=0.5;entryY=1;entryDx=0;entryDy=0;" edge="1" parent="1" source="tBtmjGCtTsWFD9wrgiHR-13" target="tBtmjGCtTsWFD9wrgiHR-6">
          <mxGeometry relative="1" as="geometry" />
        </mxCell>
        <mxCell id="tBtmjGCtTsWFD9wrgiHR-12" style="edgeStyle=orthogonalEdgeStyle;rounded=0;orthogonalLoop=1;jettySize=auto;html=1;exitX=0.5;exitY=1;exitDx=0;exitDy=0;" edge="1" parent="1" source="tBtmjGCtTsWFD9wrgiHR-13" target="tBtmjGCtTsWFD9wrgiHR-26">
          <mxGeometry relative="1" as="geometry" />
        </mxCell>
        <mxCell id="tBtmjGCtTsWFD9wrgiHR-13" value="9.3&lt;br&gt;View Data Belajar" style="ellipse;whiteSpace=wrap;html=1;aspect=fixed;" vertex="1" parent="1">
          <mxGeometry x="485" y="514.5" width="70" height="70" as="geometry" />
        </mxCell>
        <mxCell id="tBtmjGCtTsWFD9wrgiHR-14" value="" style="endArrow=none;html=1;rounded=0;" edge="1" parent="1">
          <mxGeometry width="50" height="50" relative="1" as="geometry">
            <mxPoint x="680.0000000000002" y="360" as="sourcePoint" />
            <mxPoint x="760" y="360" as="targetPoint" />
          </mxGeometry>
        </mxCell>
        <mxCell id="tBtmjGCtTsWFD9wrgiHR-15" value="" style="endArrow=none;html=1;rounded=0;" edge="1" parent="1">
          <mxGeometry width="50" height="50" relative="1" as="geometry">
            <mxPoint x="680.0000000000002" y="400" as="sourcePoint" />
            <mxPoint x="760" y="400" as="targetPoint" />
          </mxGeometry>
        </mxCell>
        <mxCell id="tBtmjGCtTsWFD9wrgiHR-16" style="edgeStyle=orthogonalEdgeStyle;rounded=0;orthogonalLoop=1;jettySize=auto;html=1;entryX=1;entryY=0.5;entryDx=0;entryDy=0;" edge="1" parent="1" target="tBtmjGCtTsWFD9wrgiHR-13">
          <mxGeometry relative="1" as="geometry">
            <mxPoint x="720" y="400" as="sourcePoint" />
            <Array as="points">
              <mxPoint x="720" y="550" />
              <mxPoint x="623" y="550" />
            </Array>
          </mxGeometry>
        </mxCell>
        <mxCell id="tBtmjGCtTsWFD9wrgiHR-17" value="belajar" style="text;html=1;strokeColor=none;fillColor=none;align=center;verticalAlign=middle;whiteSpace=wrap;rounded=0;" vertex="1" parent="1">
          <mxGeometry x="690" y="365" width="60" height="30" as="geometry" />
        </mxCell>
        <mxCell id="tBtmjGCtTsWFD9wrgiHR-18" value="&lt;meta charset=&quot;utf-8&quot;&gt;&lt;span style=&quot;color: rgb(0, 0, 0); font-family: Helvetica; font-size: 12px; font-style: normal; font-variant-ligatures: normal; font-variant-caps: normal; font-weight: 400; letter-spacing: normal; orphans: 2; text-align: center; text-indent: 0px; text-transform: none; widows: 2; word-spacing: 0px; -webkit-text-stroke-width: 0px; background-color: rgb(251, 251, 251); text-decoration-thickness: initial; text-decoration-style: initial; text-decoration-color: initial; float: none; display: inline !important;&quot;&gt;Data Absensi&lt;/span&gt;" style="text;html=1;strokeColor=none;fillColor=none;align=center;verticalAlign=middle;whiteSpace=wrap;rounded=0;" vertex="1" parent="1">
          <mxGeometry x="360" y="140" width="80" height="30" as="geometry" />
        </mxCell>
        <mxCell id="tBtmjGCtTsWFD9wrgiHR-20" value="&lt;meta charset=&quot;utf-8&quot;&gt;&lt;span style=&quot;color: rgb(0, 0, 0); font-family: Helvetica; font-size: 12px; font-style: normal; font-variant-ligatures: normal; font-variant-caps: normal; font-weight: 400; letter-spacing: normal; orphans: 2; text-align: center; text-indent: 0px; text-transform: none; widows: 2; word-spacing: 0px; -webkit-text-stroke-width: 0px; background-color: rgb(251, 251, 251); text-decoration-thickness: initial; text-decoration-style: initial; text-decoration-color: initial; float: none; display: inline !important;&quot;&gt;Data Absensi&lt;/span&gt;" style="text;html=1;strokeColor=none;fillColor=none;align=center;verticalAlign=middle;whiteSpace=wrap;rounded=0;" vertex="1" parent="1">
          <mxGeometry x="600" y="274" width="80" height="30" as="geometry" />
        </mxCell>
        <mxCell id="tBtmjGCtTsWFD9wrgiHR-23" value="&lt;meta charset=&quot;utf-8&quot;&gt;&lt;span style=&quot;color: rgb(0, 0, 0); font-family: Helvetica; font-size: 12px; font-style: normal; font-variant-ligatures: normal; font-variant-caps: normal; font-weight: 400; letter-spacing: normal; orphans: 2; text-align: center; text-indent: 0px; text-transform: none; widows: 2; word-spacing: 0px; -webkit-text-stroke-width: 0px; background-color: rgb(251, 251, 251); text-decoration-thickness: initial; text-decoration-style: initial; text-decoration-color: initial; float: none; display: inline !important;&quot;&gt;Data Absensi&lt;/span&gt;" style="text;html=1;strokeColor=none;fillColor=none;align=center;verticalAlign=middle;whiteSpace=wrap;rounded=0;" vertex="1" parent="1">
          <mxGeometry x="610" y="519" width="80" height="30" as="geometry" />
        </mxCell>
        <mxCell id="tBtmjGCtTsWFD9wrgiHR-24" value="&lt;meta charset=&quot;utf-8&quot;&gt;&lt;span style=&quot;color: rgb(0, 0, 0); font-family: Helvetica; font-size: 12px; font-style: normal; font-variant-ligatures: normal; font-variant-caps: normal; font-weight: 400; letter-spacing: normal; orphans: 2; text-align: center; text-indent: 0px; text-transform: none; widows: 2; word-spacing: 0px; -webkit-text-stroke-width: 0px; background-color: rgb(251, 251, 251); text-decoration-thickness: initial; text-decoration-style: initial; text-decoration-color: initial; float: none; display: inline !important;&quot;&gt;Data Absensi&lt;/span&gt;" style="text;html=1;strokeColor=none;fillColor=none;align=center;verticalAlign=middle;whiteSpace=wrap;rounded=0;" vertex="1" parent="1">
          <mxGeometry x="380" y="519.5" width="90" height="30" as="geometry" />
        </mxCell>
        <mxCell id="tBtmjGCtTsWFD9wrgiHR-25" style="edgeStyle=orthogonalEdgeStyle;rounded=0;orthogonalLoop=1;jettySize=auto;html=1;exitX=0.75;exitY=0;exitDx=0;exitDy=0;entryX=0.5;entryY=0;entryDx=0;entryDy=0;jumpSize=10;jumpStyle=arc;" edge="1" parent="1" source="tBtmjGCtTsWFD9wrgiHR-26" target="tBtmjGCtTsWFD9wrgiHR-8">
          <mxGeometry relative="1" as="geometry" />
        </mxCell>
        <mxCell id="tBtmjGCtTsWFD9wrgiHR-26" value="Pegawai" style="rounded=0;whiteSpace=wrap;html=1;" vertex="1" parent="1">
          <mxGeometry x="160" y="360" width="80" height="40" as="geometry" />
        </mxCell>
        <mxCell id="tBtmjGCtTsWFD9wrgiHR-27" value="&lt;span style=&quot;color: rgb(0, 0, 0); font-family: Helvetica; font-size: 12px; font-style: normal; font-variant-ligatures: normal; font-variant-caps: normal; font-weight: 400; letter-spacing: normal; orphans: 2; text-align: center; text-indent: 0px; text-transform: none; widows: 2; word-spacing: 0px; -webkit-text-stroke-width: 0px; background-color: rgb(251, 251, 251); text-decoration-thickness: initial; text-decoration-style: initial; text-decoration-color: initial; float: none; display: inline !important;&quot;&gt;Data Absensi&lt;/span&gt;" style="text;html=1;strokeColor=none;fillColor=none;align=center;verticalAlign=middle;whiteSpace=wrap;rounded=0;" vertex="1" parent="1">
          <mxGeometry x="240" y="212" width="80" height="30" as="geometry" />
        </mxCell>
        <mxCell id="tBtmjGCtTsWFD9wrgiHR-28" value="&lt;meta charset=&quot;utf-8&quot;&gt;&lt;span style=&quot;color: rgb(0, 0, 0); font-family: Helvetica; font-size: 12px; font-style: normal; font-variant-ligatures: normal; font-variant-caps: normal; font-weight: 400; letter-spacing: normal; orphans: 2; text-align: center; text-indent: 0px; text-transform: none; widows: 2; word-spacing: 0px; -webkit-text-stroke-width: 0px; background-color: rgb(251, 251, 251); text-decoration-thickness: initial; text-decoration-style: initial; text-decoration-color: initial; float: none; display: inline !important;&quot;&gt;Data Absensi&lt;/span&gt;" style="text;html=1;strokeColor=none;fillColor=none;align=center;verticalAlign=middle;whiteSpace=wrap;rounded=0;" vertex="1" parent="1">
          <mxGeometry x="250" y="569" width="80" height="30" as="geometry" />
        </mxCell>
        <mxCell id="tBtmjGCtTsWFD9wrgiHR-29" value="" style="endArrow=none;html=1;rounded=0;" edge="1" parent="1">
          <mxGeometry width="50" height="50" relative="1" as="geometry">
            <mxPoint x="720.0000000000002" y="38.22999999999993" as="sourcePoint" />
            <mxPoint x="800" y="38.22999999999993" as="targetPoint" />
          </mxGeometry>
        </mxCell>
        <mxCell id="tBtmjGCtTsWFD9wrgiHR-30" value="" style="endArrow=none;html=1;rounded=0;" edge="1" parent="1">
          <mxGeometry width="50" height="50" relative="1" as="geometry">
            <mxPoint x="720.0000000000002" y="78.22999999999993" as="sourcePoint" />
            <mxPoint x="800" y="78.22999999999993" as="targetPoint" />
          </mxGeometry>
        </mxCell>
        <mxCell id="tBtmjGCtTsWFD9wrgiHR-31" style="edgeStyle=orthogonalEdgeStyle;rounded=0;jumpStyle=arc;jumpSize=10;orthogonalLoop=1;jettySize=auto;html=1;entryX=1;entryY=1;entryDx=0;entryDy=0;" edge="1" parent="1" source="tBtmjGCtTsWFD9wrgiHR-32" target="tBtmjGCtTsWFD9wrgiHR-2">
          <mxGeometry relative="1" as="geometry">
            <Array as="points">
              <mxPoint x="760" y="200" />
            </Array>
          </mxGeometry>
        </mxCell>
        <mxCell id="tBtmjGCtTsWFD9wrgiHR-32" value="siswa" style="text;html=1;strokeColor=none;fillColor=none;align=center;verticalAlign=middle;whiteSpace=wrap;rounded=0;" vertex="1" parent="1">
          <mxGeometry x="730" y="43.22999999999999" width="60" height="30" as="geometry" />
        </mxCell>
        <mxCell id="tBtmjGCtTsWFD9wrgiHR-33" value="Data Siswa" style="text;html=1;strokeColor=none;fillColor=none;align=center;verticalAlign=middle;whiteSpace=wrap;rounded=0;" vertex="1" parent="1">
          <mxGeometry x="760" y="130" width="60" height="30" as="geometry" />
        </mxCell>
        <mxCell id="tBtmjGCtTsWFD9wrgiHR-34" value="&lt;meta charset=&quot;utf-8&quot;&gt;&lt;span style=&quot;color: rgb(0, 0, 0); font-family: Helvetica; font-size: 12px; font-style: normal; font-variant-ligatures: normal; font-variant-caps: normal; font-weight: 400; letter-spacing: normal; orphans: 2; text-align: center; text-indent: 0px; text-transform: none; widows: 2; word-spacing: 0px; -webkit-text-stroke-width: 0px; background-color: rgb(251, 251, 251); text-decoration-thickness: initial; text-decoration-style: initial; text-decoration-color: initial; float: none; display: inline !important;&quot;&gt;Data Absensi&lt;/span&gt;" style="text;html=1;strokeColor=none;fillColor=none;align=center;verticalAlign=middle;whiteSpace=wrap;rounded=0;" vertex="1" parent="1">
          <mxGeometry x="590" y="140" width="80" height="30" as="geometry" />
        </mxCell>
        <mxCell id="tBtmjGCtTsWFD9wrgiHR-35" value="" style="endArrow=none;html=1;rounded=0;" edge="1" parent="1">
          <mxGeometry width="50" height="50" relative="1" as="geometry">
            <mxPoint x="560.0000000000002" y="37.72999999999993" as="sourcePoint" />
            <mxPoint x="640" y="37.72999999999993" as="targetPoint" />
          </mxGeometry>
        </mxCell>
        <mxCell id="tBtmjGCtTsWFD9wrgiHR-36" value="" style="endArrow=none;html=1;rounded=0;" edge="1" parent="1">
          <mxGeometry width="50" height="50" relative="1" as="geometry">
            <mxPoint x="560.0000000000002" y="77.72999999999993" as="sourcePoint" />
            <mxPoint x="640" y="77.72999999999993" as="targetPoint" />
          </mxGeometry>
        </mxCell>
        <mxCell id="tBtmjGCtTsWFD9wrgiHR-37" style="edgeStyle=orthogonalEdgeStyle;shape=connector;rounded=0;jumpStyle=arc;orthogonalLoop=1;jettySize=auto;html=1;labelBackgroundColor=default;strokeColor=default;fontFamily=Helvetica;fontSize=11;fontColor=default;endArrow=classic;" edge="1" parent="1" target="tBtmjGCtTsWFD9wrgiHR-2">
          <mxGeometry relative="1" as="geometry">
            <mxPoint x="550" y="58" as="sourcePoint" />
            <Array as="points">
              <mxPoint x="551" y="58" />
              <mxPoint x="551" y="60" />
              <mxPoint x="520" y="60" />
            </Array>
          </mxGeometry>
        </mxCell>
        <mxCell id="tBtmjGCtTsWFD9wrgiHR-38" value="mengajar" style="text;html=1;strokeColor=none;fillColor=none;align=center;verticalAlign=middle;whiteSpace=wrap;rounded=0;" vertex="1" parent="1">
          <mxGeometry x="570" y="42.72999999999999" width="60" height="30" as="geometry" />
        </mxCell>
        <mxCell id="tBtmjGCtTsWFD9wrgiHR-39" value="Data Mengajar" style="text;html=1;strokeColor=none;fillColor=none;align=center;verticalAlign=middle;whiteSpace=wrap;rounded=0;" vertex="1" parent="1">
          <mxGeometry x="430" y="73.23" width="80" height="30" as="geometry" />
        </mxCell>
      </root>
    </mxGraphModel>
  </diagram>
  <diagram id="IGsqY1DsPQf5gNuqaFVC" name="DFD Level 2 Proses 10">
    <mxGraphModel dx="954" dy="484" grid="1" gridSize="10" guides="1" tooltips="1" connect="1" arrows="1" fold="1" page="1" pageScale="1" pageWidth="827" pageHeight="1169" math="0" shadow="0">
      <root>
        <mxCell id="0" />
        <mxCell id="1" parent="0" />
        <mxCell id="z_8rhK3Q0foGhCmpm32N-2" value="10.1 Laporan" style="ellipse;whiteSpace=wrap;html=1;aspect=fixed;" vertex="1" parent="1">
          <mxGeometry x="400" y="260" width="80" height="80" as="geometry" />
        </mxCell>
        <mxCell id="z_8rhK3Q0foGhCmpm32N-3" style="edgeStyle=orthogonalEdgeStyle;rounded=0;orthogonalLoop=1;jettySize=auto;html=1;entryX=0;entryY=0.5;entryDx=0;entryDy=0;endArrow=none;endFill=0;startArrow=classic;startFill=1;" edge="1" parent="1" source="z_8rhK3Q0foGhCmpm32N-4" target="z_8rhK3Q0foGhCmpm32N-2">
          <mxGeometry relative="1" as="geometry" />
        </mxCell>
        <mxCell id="z_8rhK3Q0foGhCmpm32N-4" value="Admin" style="rounded=0;whiteSpace=wrap;html=1;" vertex="1" parent="1">
          <mxGeometry x="160" y="280" width="80" height="40" as="geometry" />
        </mxCell>
        <mxCell id="z_8rhK3Q0foGhCmpm32N-5" value="" style="endArrow=none;html=1;rounded=0;" edge="1" parent="1">
          <mxGeometry width="50" height="50" relative="1" as="geometry">
            <mxPoint x="680" y="280.13" as="sourcePoint" />
            <mxPoint x="760" y="280.13" as="targetPoint" />
          </mxGeometry>
        </mxCell>
        <mxCell id="z_8rhK3Q0foGhCmpm32N-6" value="" style="endArrow=none;html=1;rounded=0;" edge="1" parent="1">
          <mxGeometry width="50" height="50" relative="1" as="geometry">
            <mxPoint x="680" y="320.13" as="sourcePoint" />
            <mxPoint x="760" y="320.13" as="targetPoint" />
          </mxGeometry>
        </mxCell>
        <mxCell id="z_8rhK3Q0foGhCmpm32N-7" style="edgeStyle=orthogonalEdgeStyle;rounded=0;orthogonalLoop=1;jettySize=auto;html=1;entryX=1;entryY=0.5;entryDx=0;entryDy=0;" edge="1" parent="1" target="z_8rhK3Q0foGhCmpm32N-2">
          <mxGeometry relative="1" as="geometry">
            <mxPoint x="660" y="300" as="sourcePoint" />
          </mxGeometry>
        </mxCell>
        <mxCell id="z_8rhK3Q0foGhCmpm32N-8" value="siswa" style="text;html=1;strokeColor=none;fillColor=none;align=center;verticalAlign=middle;whiteSpace=wrap;rounded=0;" vertex="1" parent="1">
          <mxGeometry x="690" y="285.13" width="60" height="30" as="geometry" />
        </mxCell>
        <mxCell id="z_8rhK3Q0foGhCmpm32N-12" value="Data Absensi" style="text;html=1;strokeColor=none;fillColor=none;align=center;verticalAlign=middle;whiteSpace=wrap;rounded=0;fontSize=11;fontFamily=Helvetica;fontColor=default;" vertex="1" parent="1">
          <mxGeometry x="545" y="194.13" width="80" height="10" as="geometry" />
        </mxCell>
        <mxCell id="z_8rhK3Q0foGhCmpm32N-13" value="" style="endArrow=none;html=1;rounded=0;" edge="1" parent="1">
          <mxGeometry width="50" height="50" relative="1" as="geometry">
            <mxPoint x="680" y="199.13" as="sourcePoint" />
            <mxPoint x="760" y="199.13" as="targetPoint" />
          </mxGeometry>
        </mxCell>
        <mxCell id="z_8rhK3Q0foGhCmpm32N-14" value="" style="endArrow=none;html=1;rounded=0;" edge="1" parent="1">
          <mxGeometry width="50" height="50" relative="1" as="geometry">
            <mxPoint x="680" y="239.13" as="sourcePoint" />
            <mxPoint x="760" y="239.13" as="targetPoint" />
          </mxGeometry>
        </mxCell>
        <mxCell id="z_8rhK3Q0foGhCmpm32N-15" style="edgeStyle=orthogonalEdgeStyle;rounded=0;orthogonalLoop=1;jettySize=auto;html=1;entryX=1;entryY=0.5;entryDx=0;entryDy=0;" edge="1" parent="1" target="z_8rhK3Q0foGhCmpm32N-2">
          <mxGeometry relative="1" as="geometry">
            <mxPoint x="490" y="290" as="targetPoint" />
            <mxPoint x="650" y="220" as="sourcePoint" />
            <Array as="points">
              <mxPoint x="650" y="221" />
              <mxPoint x="560" y="221" />
              <mxPoint x="560" y="300" />
            </Array>
          </mxGeometry>
        </mxCell>
        <mxCell id="z_8rhK3Q0foGhCmpm32N-16" value="absensi" style="text;html=1;strokeColor=none;fillColor=none;align=center;verticalAlign=middle;whiteSpace=wrap;rounded=0;" vertex="1" parent="1">
          <mxGeometry x="690" y="204.13" width="60" height="30" as="geometry" />
        </mxCell>
        <mxCell id="z_8rhK3Q0foGhCmpm32N-17" value="" style="endArrow=none;html=1;rounded=0;" edge="1" parent="1">
          <mxGeometry width="50" height="50" relative="1" as="geometry">
            <mxPoint x="680" y="360.13" as="sourcePoint" />
            <mxPoint x="760" y="360.13" as="targetPoint" />
          </mxGeometry>
        </mxCell>
        <mxCell id="z_8rhK3Q0foGhCmpm32N-18" value="" style="endArrow=none;html=1;rounded=0;" edge="1" parent="1">
          <mxGeometry width="50" height="50" relative="1" as="geometry">
            <mxPoint x="680" y="400.13" as="sourcePoint" />
            <mxPoint x="760" y="400.13" as="targetPoint" />
          </mxGeometry>
        </mxCell>
        <mxCell id="z_8rhK3Q0foGhCmpm32N-19" style="edgeStyle=orthogonalEdgeStyle;rounded=0;orthogonalLoop=1;jettySize=auto;html=1;" edge="1" parent="1">
          <mxGeometry relative="1" as="geometry">
            <mxPoint x="480" y="300" as="targetPoint" />
            <mxPoint x="640" y="380" as="sourcePoint" />
            <Array as="points">
              <mxPoint x="640" y="381" />
              <mxPoint x="560" y="381" />
              <mxPoint x="560" y="300" />
            </Array>
          </mxGeometry>
        </mxCell>
        <mxCell id="z_8rhK3Q0foGhCmpm32N-20" value="belajar" style="text;html=1;strokeColor=none;fillColor=none;align=center;verticalAlign=middle;whiteSpace=wrap;rounded=0;" vertex="1" parent="1">
          <mxGeometry x="690" y="365.13" width="60" height="30" as="geometry" />
        </mxCell>
        <mxCell id="z_8rhK3Q0foGhCmpm32N-21" value="Data Siswa" style="text;html=1;strokeColor=none;fillColor=none;align=center;verticalAlign=middle;whiteSpace=wrap;rounded=0;fontSize=11;fontFamily=Helvetica;fontColor=default;" vertex="1" parent="1">
          <mxGeometry x="570" y="275.13" width="80" height="10" as="geometry" />
        </mxCell>
        <mxCell id="z_8rhK3Q0foGhCmpm32N-22" value="Data Belajar" style="text;html=1;strokeColor=none;fillColor=none;align=center;verticalAlign=middle;whiteSpace=wrap;rounded=0;fontSize=11;fontFamily=Helvetica;fontColor=default;" vertex="1" parent="1">
          <mxGeometry x="560" y="395.13" width="80" height="10" as="geometry" />
        </mxCell>
        <mxCell id="z_8rhK3Q0foGhCmpm32N-23" value="Data Laporan" style="text;html=1;strokeColor=none;fillColor=none;align=center;verticalAlign=middle;whiteSpace=wrap;rounded=0;fontSize=11;fontFamily=Helvetica;fontColor=default;" vertex="1" parent="1">
          <mxGeometry x="300" y="280" width="80" height="10" as="geometry" />
        </mxCell>
      </root>
    </mxGraphModel>
  </diagram>
</mxfile>
